<svg width="114" height="40" viewBox="0 0 114 40" fill="none" xmlns="http://www.w3.org/2000/svg">
<path d="M60.3058 27.4656L57.0265 12.9604L53.7735 27.4623L60.3058 27.4656ZM57.0506 5.44159L57.0995 5.44173C58.2218 5.44223 59.1897 6.19891 59.4559 7.27904C61.037 13.6918 66.2186 34.6998 66.2186 34.6998L65.3671 34.6994C63.4312 34.6984 61.747 33.3739 61.2899 31.4926L52.7026 31.4883L52.2876 33.1879C52.0719 34.0709 51.2804 34.6921 50.3712 34.6917C49.0908 34.6912 48.1497 33.4922 48.4577 32.2493C49.8701 26.5475 53.362 12.4517 54.6289 7.33504C54.9046 6.22186 55.9037 5.44109 57.0506 5.44159Z" fill="#34386F"/>
<path d="M96.3094 27.0732C93.7593 32.2076 88.5399 35.6976 82.3766 35.6945C73.7898 35.69 66.8083 28.7015 66.813 20.0321C66.8173 11.4862 73.8059 4.46405 82.3926 4.46851C88.5558 4.47155 93.8542 7.96678 96.3166 13.0627C94.4699 13.9743 92.2459 13.5705 90.8371 12.0683C88.8621 9.96205 86.0758 8.6066 82.9284 8.46583C76.5243 8.17974 70.9942 13.2758 70.8035 19.6835C70.6068 26.2947 75.8953 31.7059 82.3787 31.7091C85.7559 31.7108 88.7129 30.2963 90.8118 28.0334C92.217 26.5186 94.4663 26.1398 96.3094 27.0732Z" fill="#34386F"/>
<path d="M103.057 9.49159L99.3593 9.48964C98.2476 9.48918 97.3467 8.58732 97.3472 7.47545C97.3478 6.36373 98.2497 5.46268 99.3614 5.46332L112.797 5.47023C112.796 7.694 110.992 9.49559 108.769 9.49464L107.084 9.49364L107.073 30.6945C107.072 32.9183 105.268 34.72 103.044 34.7189L103.057 9.49159Z" fill="#34386F"/>
<path d="M31.5566 13.2353L31.5497 26.9028L31.5435 26.9088L28.0506 28.9165L22.076 32.3623L22.0776 32.3607L22.0847 18.7098L6.63754 9.77362L6.62695 30.339L6.65145 30.3512L20.0025 38.0709L21.0958 38.7014L21.5321 38.9535V38.953L21.5335 38.9538L22.0724 39.2646L28.0471 35.8207L37.52 30.3547L37.5314 9.79607L31.5566 13.2353Z" fill="#34386F"/>
<path d="M19.7755 21.5201C19.608 20.8155 19.0145 20.2812 18.3232 20.2129C17.7549 20.1566 17.245 20.3816 16.8891 20.7626C16.3282 21.3631 15.6921 21.8804 14.9388 22.1527L14.3519 22.365C12.2819 23.0301 10.0675 22.3496 8.71914 20.6338L6.23077 17.4674C5.45196 16.4765 4.95387 15.2959 4.55782 14.0736C4.53277 13.9963 4.50218 13.9185 4.46577 13.8407C4.24077 13.3603 3.80305 13.0047 3.29791 12.9104C2.11387 12.6892 1.11759 13.6992 1.18864 14.8649C1.22937 15.5313 1.50341 15.9383 2.11177 16.2802C3.37277 16.9891 4.43627 18.0236 5.34164 19.1824C6.3145 20.4279 7.2585 21.6878 7.2585 21.6878C8.81518 23.6682 9.48468 26.2704 9.10205 28.8532L8.80287 30.8737C8.6725 31.7548 8.22046 33.1192 7.70859 33.8412C7.40714 34.2664 7.27532 34.8243 7.41514 35.399C7.58655 36.1036 8.18468 36.6352 8.87791 36.6983C9.98641 36.7997 10.8868 35.8308 10.8191 34.7207C10.8085 34.5451 10.7739 34.3782 10.7191 34.2225C10.3684 33.2267 10.3732 32.1209 10.5306 31.0579L10.8677 28.7823C11.1895 26.6079 12.688 24.7967 14.6995 24.1502L14.7595 24.1287C15.7152 23.7842 16.7411 23.5992 17.7177 23.8059C17.8744 23.8391 18.0387 23.8492 18.2079 23.833C19.268 23.7307 20.0441 22.6497 19.7755 21.5201Z" fill="#DBDADB"/>
<path d="M37.5316 9.79605L22.0849 18.7098L6.6377 9.77364L22.0932 0.834412L31.562 6.33855L37.5316 9.79605Z" fill="#DBDADB"/>
<path d="M37.5204 30.3547L28.0466 35.8195L22.0728 39.2645L22.0781 32.3607L28.0501 28.9168L31.55 26.9029L37.5204 30.3547Z" fill="#DBDADB"/>
</svg>
