<svg width="54" height="50" viewBox="0 0 54 50" fill="none" xmlns="http://www.w3.org/2000/svg">
<g clip-path="url(#clip0_819_2302)">
<path d="M3.84619 25.0032C3.84561 21.2897 4.82262 17.6414 6.67902 14.4252C8.53542 11.2089 11.2058 8.53802 14.4217 6.68099C17.6376 4.82396 21.2856 3.84623 24.9992 3.84609C28.7127 3.84594 32.3609 4.82339 35.5769 6.68016C36.0184 6.93116 36.5412 6.99735 37.0313 6.8643C37.5214 6.73124 37.9389 6.40974 38.1928 5.96996C38.4468 5.53018 38.5164 5.00781 38.3866 4.51686C38.2568 4.02591 37.9381 3.60622 37.5 3.3494C32.7341 0.59779 27.1934 -0.504365 21.7373 0.213861C16.2811 0.932087 11.2144 3.43056 7.32293 7.32179C3.43144 11.213 0.932647 16.2796 0.214071 21.7357C-0.504506 27.1918 0.597294 32.7325 3.3486 37.4986C6.0999 42.2647 10.3469 45.9898 15.4311 48.0962C20.5152 50.2026 26.1523 50.5726 31.4682 49.1488C36.784 47.7249 41.4815 44.5869 44.8321 40.2213C48.1828 35.8556 49.9993 30.5064 50 25.0032C50 24.4932 49.7974 24.0041 49.4367 23.6434C49.0761 23.2828 48.587 23.0801 48.0769 23.0801C47.5669 23.0801 47.0778 23.2828 46.7171 23.6434C46.3565 24.0041 46.1539 24.4932 46.1539 25.0032C46.1539 30.6136 43.9252 35.9941 39.958 39.9612C35.9909 43.9284 30.6104 46.1571 25 46.1571C19.3897 46.1571 14.0091 43.9284 10.042 39.9612C6.07489 35.9941 3.84619 30.6136 3.84619 25.0032Z" fill="#4750D5"/>
<path d="M53.282 7.13323C53.4608 6.95443 53.6026 6.74217 53.6994 6.50855C53.7962 6.27494 53.846 6.02456 53.846 5.7717C53.846 5.51883 53.7962 5.26845 53.6994 5.03484C53.6026 4.80122 53.4608 4.58896 53.282 4.41016C53.1032 4.23136 52.8909 4.08953 52.6573 3.99276C52.4237 3.896 52.1733 3.84619 51.9205 3.84619C51.6676 3.84619 51.4172 3.896 51.1836 3.99276C50.95 4.08953 50.7377 4.23136 50.5589 4.41016L24.9974 29.9755L14.8205 19.7948C14.6417 19.616 14.4294 19.4741 14.1958 19.3774C13.9622 19.2806 13.7118 19.2308 13.459 19.2308C13.2061 19.2308 12.9557 19.2806 12.7221 19.3774C12.4885 19.4741 12.2762 19.616 12.0974 19.7948C11.9186 19.9736 11.7768 20.1858 11.68 20.4194C11.5833 20.6531 11.5334 20.9034 11.5334 21.1563C11.5334 21.4092 11.5833 21.6595 11.68 21.8932C11.7768 22.1268 11.9186 22.339 12.0974 22.5178L23.6359 34.0563C23.8145 34.2354 24.0267 34.3775 24.2604 34.4744C24.494 34.5714 24.7445 34.6213 24.9974 34.6213C25.2504 34.6213 25.5008 34.5714 25.7345 34.4744C25.9681 34.3775 26.1803 34.2354 26.3589 34.0563L53.282 7.13323Z" fill="#4750D5"/>
</g>
<defs>
<clipPath id="clip0_819_2302">
<rect width="53.846" height="50" fill="white"/>
</clipPath>
</defs>
</svg>
