<svg width="54" height="46" viewBox="0 0 54 46" fill="none" xmlns="http://www.w3.org/2000/svg">
<path fill-rule="evenodd" clip-rule="evenodd" d="M23.1551 10.4748H30.341V12.0389C30.341 12.2127 30.1984 12.3553 30.0246 12.3553L23.4718 12.3576C23.2981 12.3576 23.1555 12.215 23.1555 12.0412L23.1551 10.4748ZM23.1551 7.38436H30.341V9.26714L23.1551 9.26491V7.38436ZM23.4715 4.2917H30.0243C30.1981 4.2917 30.3407 4.4343 30.3407 4.60809V6.17225L23.1547 6.17448V4.61032C23.1547 4.4343 23.2977 4.2917 23.4715 4.2917ZM18.9484 27.8989V29.8373H21.074V27.8989H18.9484ZM22.4755 27.8989H24.1756V36.2279L15.8466 36.2301V27.8994H17.5467V30.5397C17.5467 30.9274 17.8608 31.2416 18.2486 31.2416H21.7757C22.1634 31.2416 22.4776 30.9275 22.4776 30.5397L22.4755 27.8989ZM18.9484 37.4417V39.3802H21.074V37.4417H18.9484ZM22.4755 37.4417H24.1756V45.7707H15.8466V37.4417H17.5467V40.082C17.5467 40.4697 17.8608 40.7839 18.2486 40.7839H21.7757C22.1634 40.7839 22.4776 40.4697 22.4776 40.082L22.4755 37.4417ZM28.4893 37.4417V39.3802H30.6149V37.4417H28.4893ZM32.0164 37.4417H33.7165V45.7707H25.3875V37.4417H27.0876V40.082C27.0876 40.4697 27.4017 40.7839 27.7894 40.7839H31.3166C31.7043 40.7839 32.0184 40.4697 32.0184 40.082L32.0164 37.4417ZM49.8682 14.9131H53.4711L26.749 0L0 14.9131H49.8682ZM5.34557 45.9977V16.1252H48.1234V46L40.7481 45.9978V22.382C40.7481 22.0478 40.4763 21.776 40.142 21.776H13.8009C13.4667 21.776 13.1949 22.0478 13.1949 22.382V45.9978L5.34557 45.9977Z" fill="#34386F"/>
</svg>
