<svg width="43" height="50" viewBox="0 0 43 50" fill="none" xmlns="http://www.w3.org/2000/svg">
<path fill-rule="evenodd" clip-rule="evenodd" d="M14.2437 0.714698C13.1934 1.76495 13.2456 4.61552 14.333 5.62395C14.7751 6.03419 15.5266 6.42406 16.0026 6.49017C17.4212 6.68814 17.2719 7.43107 15.7303 7.84631C14.9502 8.05643 13.4461 8.61103 12.3883 9.0788L10.4647 9.92965L9.29656 8.53813C7.72243 6.66313 6.89624 6.73066 4.05175 8.96624C1.30123 11.1278 1.14936 11.849 2.97577 14.0781L4.21541 15.5908L3.366 16.8404C0.990341 20.3364 -0.246086 25.2081 0.0408654 29.9401C0.374629 35.4436 2.15637 39.353 6.20335 43.4611C8.51432 45.8071 9.6439 46.6419 12.0996 47.8186C23.7838 53.4179 37.074 47.8601 41.6334 35.4683C42.5357 33.0162 42.6526 32.225 42.6504 28.5879C42.6476 24.0038 42.1898 22.1517 40.1032 18.2852L38.8825 16.0228L40.1422 14.3065C41.7167 12.1617 41.7381 11.1779 40.2408 9.76313C38.5584 8.17364 36.0216 6.43228 35.388 6.43228C35.0871 6.43228 34.1466 7.17807 33.2979 8.0893L31.7549 9.74633L29.6994 8.84581C28.5691 8.35053 27.2022 7.84309 26.6616 7.71802C25.3169 7.40677 25.3647 6.43228 26.7248 6.43228C29.0319 6.43228 30.224 2.46678 28.4254 0.776876C27.6403 0.0396657 27.2751 0 21.2785 0C15.4347 0 14.9044 0.0539597 14.2437 0.714698ZM15.2264 1.10063C14.2926 1.64452 14.3423 4.83922 15.2922 5.34772C16.2731 5.87267 17.1025 5.80585 17.1025 5.20193C17.1025 4.13095 18.5976 3.57349 21.4704 3.57349C24.2923 3.57349 25.2836 3.9973 25.7535 5.4049C25.8811 5.78691 26.1491 5.81549 26.9596 5.53212C27.8962 5.20478 28.0131 4.98895 28.1138 3.39982C28.2779 0.809752 28.0349 0.712554 21.4118 0.725418C18.3039 0.731493 15.5759 0.896945 15.2264 1.10063ZM17.6385 10.5993C13.97 11.3841 10.726 13.2319 8.08228 16.0425C2.52944 21.9462 1.45239 29.9044 5.2042 37.3083C7.16533 41.178 11.8455 44.9266 16.3635 46.2459C18.826 46.9649 23.4801 46.9739 26.2024 46.2649C35.7725 43.7724 41.6155 33.5583 39.0676 23.7762C37.3531 17.1938 31.7602 11.9851 24.8898 10.5722C21.6094 9.89749 20.9057 9.90035 17.6385 10.5993ZM17.3269 11.8318C15.0166 12.3743 11.1616 14.6195 9.23938 16.5417C8.11695 17.6641 6.87516 19.463 5.99108 21.2472C4.74179 23.7683 4.53274 24.5463 4.35085 27.3565C4.00708 32.6624 5.79668 37.2615 9.6271 40.915C16.4099 47.3844 26.743 47.2444 33.3951 40.5923C40.0521 33.9349 40.1876 23.6075 33.7074 16.8133C29.5561 12.4611 23.0598 10.4857 17.3269 11.8318ZM17.0639 13.025C7.11851 15.768 2.31253 27.2679 7.29004 36.4135C8.44928 38.5433 11.6987 41.7659 13.7345 42.8043C19.4177 45.7038 26.5118 45.0931 31.162 41.3042C34.9692 38.2017 37.0182 34.417 37.3684 29.8386C37.9634 22.0695 32.9752 14.9897 25.5002 12.9928C23.295 12.4039 19.2609 12.4193 17.0639 13.025ZM26.8063 23.0729C24.0601 25.6312 21.7394 27.5159 21.3356 27.5159C20.9497 27.5159 19.3381 26.511 17.7543 25.2824C13.3314 21.8515 13.5551 21.9852 13.0655 22.4862C12.5999 22.9625 13.5143 23.8648 17.5224 26.8823C18.6377 27.722 19.6447 28.7666 19.7601 29.2029C20.2293 30.9789 22.8201 30.9657 22.8201 29.1875C22.8201 28.6086 24.2244 27.1003 27.8229 23.8144C30.5745 21.3016 32.8258 19.0964 32.8258 18.9141C32.8258 17.89 31.0584 19.111 26.8063 23.0729Z" fill="#34386F"/>
</svg>
