<svg width="56" height="50" viewBox="0 0 56 50" fill="none" xmlns="http://www.w3.org/2000/svg">
<path fill-rule="evenodd" clip-rule="evenodd" d="M3.69226 0.146237C2.44005 0.552924 1.2842 1.76235 0.985516 2.97841C0.888403 3.37397 0.858141 8.2237 0.883591 19.2984L0.919929 35.0556L1.2057 35.6223C1.65517 36.5133 2.16619 37.0398 3.03121 37.5031L3.83204 37.932L22.6025 37.9652L41.373 37.9985V21.739V5.47956H44.4117H47.4504V5.97979V6.48002H44.9182H42.3859V24.2382V41.9963H24.66H6.93407V45.9982V50H28.7116H50.4892V43.9972V37.9945H51.2976C52.9647 37.9945 54.2639 37.2559 55.0372 35.8685L55.4904 35.0556V18.9858V2.91588L55.1769 2.2906C54.5237 0.987874 53.2892 0.152366 51.8166 0.0165534C49.7982 -0.169532 47.9227 1.23349 47.551 3.20739L47.4057 3.97887H28.2H8.99433L8.91697 3.42137C8.74123 2.15491 7.8148 0.920719 6.62602 0.36909C5.85216 0.0100505 4.44169 -0.0971244 3.69226 0.146237ZM3.91269 1.1487C3.24303 1.38806 2.49994 2.08413 2.17239 2.77907L1.87206 3.41611L1.8708 17.3285L1.86953 31.241L2.47095 30.8154C4.06261 29.689 5.89914 29.7376 7.53549 30.9494L7.94698 31.2541V17.4122C7.94698 6.90984 7.90988 3.446 7.79302 3.05545C7.58753 2.36851 6.53866 1.33253 5.84317 1.12956C5.19858 0.941478 4.47233 0.948606 3.91269 1.1487ZM50.4892 1.14094C49.8677 1.33441 48.8078 2.41841 48.6173 3.05545C48.5004 3.446 48.4633 6.90884 48.4633 17.4079V31.2455L49.0953 30.8162C50.742 29.6974 52.5014 29.744 54.1293 30.9494L54.5408 31.2541V17.4122C54.5408 6.90984 54.5037 3.446 54.3868 3.05545C54.1813 2.36851 53.1325 1.33253 52.437 1.12956C51.8147 0.947981 51.0955 0.952233 50.4892 1.14094ZM16.0503 7.48048V8.98117H16.5567H17.0632V8.48094V7.98071H23.6471H30.231V8.48094V8.98117H30.7374H31.2439V7.48048V5.97979H30.7374H30.231V6.48002V6.98025H23.6471H17.0632V6.48002V5.97979H16.5567H16.0503V7.48048ZM43.3988 8.98117V9.98163H44.9182H46.4375V10.4819V10.9821H44.9182H43.3988V11.9825V12.983H44.4117H45.4246V13.4832V13.9835H44.4117H43.3988V14.9839V15.9844H44.9182H46.4375V16.4846V16.9848H44.9182H43.3988V17.9853V18.9858H44.4117H45.4246V19.486V19.9862H44.4117H43.3988V20.9867V21.9871H44.9182H46.4375V22.4874V22.9876H44.9182H43.3988V23.9881V24.9885H44.4117H45.4246V25.4887V25.989H44.4117H43.3988V26.9894V27.9899H44.9182H46.4375V28.4901V28.9904H44.9182H43.3988V29.9908V30.9913H44.4117H45.4246V31.4915V31.9917H44.4117H43.3988V32.9922V33.9927H44.9182H46.4375V34.4929V34.9931H44.9182H43.3988V35.9936V36.994H44.4117H45.4246V37.4943V37.9945H44.4117H43.3988V38.9949V39.9954H44.9182H46.4375V40.4956V40.9959H44.9182H43.3988V41.9963V42.9968H42.3859H41.373V44.4975V45.9982H40.8665H40.3601V44.4975V42.9968H39.3472H38.3342V43.9972V44.9977H37.8278H37.3213V43.9972V42.9968H36.3084H35.2955V44.4975V45.9982H34.7891H34.2826V44.4975V42.9968H33.2697H32.2568V43.9972V44.9977H31.7503H31.2439V43.9972V42.9968H30.231H29.2181V44.4975V45.9982H28.7116H28.2052V44.4975V42.9968H27.1922H26.1793V43.9972V44.9977H25.6729H25.1664V43.9972V42.9968H24.1535H23.1406V44.4975V45.9982H22.6342H22.1277V44.4975V42.9968H21.1148H20.1019V43.9972V44.9977H19.5954H19.089V43.9972V42.9968H18.0761H17.0632V44.4975V45.9982H16.5567H16.0503V44.4975V42.9968H15.0373H14.0244V43.9972V44.9977H13.518H13.0115V43.9972V42.9968H11.9986H10.9857V44.4975V45.9982H10.4793H9.9728V44.4975V42.9968H8.95989H7.94698V45.9982V48.9995H28.7116H49.4762L49.471 40.4018L49.466 31.8041L49.0954 32.2322C48.8776 32.4838 48.6628 32.9348 48.574 33.3265C48.4237 33.9899 48.421 33.9927 47.9367 33.9927H47.4504V20.9867V7.98071H45.4246H43.3988V8.98117ZM19.7854 12.1006L16.1136 14.2062L16.0842 18.4405L16.0547 22.675L17.1604 23.2909C17.7684 23.6296 19.4758 24.601 20.9544 25.4492L23.6428 26.9918L27.4395 24.8333L31.2364 22.675L31.2084 18.4409L31.1806 14.2068L27.5088 12.1C25.4893 10.9412 23.7515 9.99351 23.6471 9.99413C23.5426 9.99476 21.8048 10.9427 19.7854 12.1006ZM32.2568 10.4819V10.9821H32.7632H33.2697V18.4855V25.989H32.7632H32.2568V26.4892V26.9894H33.7762H35.2955V26.4892V25.989H34.7891H34.2826V18.4855V10.9821H34.7891H35.2955V10.4819V9.98163H33.7762H32.2568V10.4819ZM20.6494 12.762C18.4316 14.016 17.7513 14.4559 17.8639 14.5637C17.9458 14.6421 19.2827 15.4258 20.835 16.305L23.6572 17.9036L24.0767 17.6632C24.3075 17.5308 25.6424 16.7754 27.0434 15.9844C28.4442 15.1934 29.5899 14.5181 29.5894 14.4837C29.5883 14.4165 23.9269 11.1919 23.7124 11.1363C23.6416 11.118 22.2633 11.8496 20.6494 12.762ZM17.0632 18.7088V22.0793L20.0007 23.7528C21.6163 24.6731 22.9837 25.445 23.0394 25.4679C23.095 25.4909 23.1406 23.9916 23.1406 22.1361V18.7625L20.2027 17.092C18.5868 16.1733 17.2194 15.4029 17.1639 15.38C17.1085 15.357 17.0632 16.855 17.0632 18.7088ZM29.9081 15.4699C29.842 15.5309 28.5202 16.2964 26.9707 17.1711L24.1535 18.7613V22.1355C24.1535 23.9912 24.2013 25.4909 24.2596 25.4679C24.318 25.445 25.6854 24.6739 27.2984 23.7542L30.231 22.0823V18.7206C30.231 16.8718 30.1854 15.3591 30.1297 15.3591C30.074 15.3591 29.9742 15.409 29.9081 15.4699ZM14.0244 28.7402C14.0244 28.9765 13.94 28.9904 12.5051 28.9904H10.9857V31.4915V33.9927H12.5051C13.94 33.9927 14.0244 34.0065 14.0244 34.2428C14.0244 34.479 14.1089 34.4929 15.5438 34.4929C16.9787 34.4929 17.0632 34.479 17.0632 34.2428C17.0632 33.9952 17.1476 33.9927 25.4821 33.9927H33.9011L36.3708 32.7748C37.7293 32.105 38.8407 31.5275 38.8407 31.4915C38.8407 31.4555 37.7293 30.878 36.3708 30.2082L33.9011 28.9904H25.4821C17.1476 28.9904 17.0632 28.9879 17.0632 28.7402C17.0632 28.504 16.9787 28.4901 15.5438 28.4901C14.1089 28.4901 14.0244 28.504 14.0244 28.7402ZM15.0373 31.4915V33.4924H15.5438H16.0503V31.4915V29.4906H15.5438H15.0373V31.4915ZM11.9986 31.4915V32.9922H13.0115H14.0244V31.4915V29.9908H13.0115H11.9986V31.4915ZM17.0632 30.491V30.9913H25.1664H33.2697V30.491V29.9908H25.1664H17.0632V30.491ZM34.2826 31.4915C34.2826 32.1105 34.3102 32.617 34.344 32.617C34.4737 32.617 36.5617 31.5573 36.5617 31.4915C36.5617 31.4257 34.4737 30.366 34.344 30.366C34.3102 30.366 34.2826 30.8725 34.2826 31.4915ZM17.0632 32.492V32.9922H25.1664H33.2697V32.492V31.9917H25.1664H17.0632V32.492Z" fill="#34386F"/>
</svg>
