<svg width="47" height="50" viewBox="0 0 47 50" fill="none" xmlns="http://www.w3.org/2000/svg">
<g clip-path="url(#clip0_437_907)">
<path d="M34.2266 48.211C34.1236 48.0465 34.0269 47.8787 33.9359 47.707C33.9191 47.6757 33.9012 47.6451 33.8851 47.6134C33.6675 47.1868 33.4877 46.74 33.3494 46.2763C33.3371 46.2359 33.3278 46.1956 33.3165 46.1553C33.2643 45.9699 33.218 45.7827 33.1789 45.5922C33.1651 45.5245 33.1521 45.4568 33.1397 45.3892C33.1089 45.2156 33.0835 45.0407 33.0636 44.865C33.056 44.7955 33.0457 44.7271 33.0399 44.6576C33.0183 44.4164 33.0045 44.1737 33.0045 43.9285C33.0045 43.6794 33.0176 43.4335 33.0399 43.1891C33.0505 43.0728 33.069 42.9594 33.0845 42.8449C33.1006 42.7253 33.1143 42.6062 33.136 42.4885C33.1638 42.3336 33.1991 42.1828 33.2351 42.0312C33.2513 41.9635 33.2667 41.8959 33.2842 41.8289C33.3326 41.6474 33.3879 41.4692 33.4479 41.2935C33.4572 41.2676 33.4658 41.2428 33.474 41.2169C33.6717 40.657 33.9229 40.1256 34.231 39.6346H13.8141C13.359 39.6346 12.9908 39.249 12.9908 38.7723C12.9908 38.2956 13.3597 37.91 13.8141 37.91H35.4496C35.522 37.91 35.5865 37.9349 35.6534 37.9529C36.2721 37.4053 36.9794 36.9682 37.7457 36.6561C37.7625 36.6489 37.7797 36.6431 37.7965 36.6367C37.9801 36.5632 38.1661 36.4963 38.3569 36.4383C38.3785 36.4318 38.4008 36.4271 38.4221 36.4207C38.6129 36.3648 38.8041 36.3141 39 36.2748V2.58636C39.0024 1.16028 37.8939 0 36.5319 0H2.4705C1.10844 0 0 1.16037 0 2.58636V45.9633C0 47.389 1.10844 48.5487 2.4705 48.5487H34.4436C34.4014 48.4882 34.3643 48.4245 34.3238 48.3633C34.2916 48.3132 34.2586 48.2632 34.2264 48.2117L34.2266 48.211ZM13.8158 8.91334H35.4512C35.9063 8.91334 36.2745 9.29965 36.2745 9.7756C36.2745 10.2516 35.9056 10.6379 35.4512 10.6379L13.8158 10.6375C13.3607 10.6375 12.9925 10.2512 12.9925 9.77524C12.9925 9.29965 13.3607 8.91334 13.8158 8.91334ZM13.8158 18.5788H35.4512C35.9063 18.5788 36.2745 18.9651 36.2745 19.441C36.2745 19.917 35.9056 20.3033 35.4512 20.3033L13.8158 20.3029C13.3607 20.3029 12.9925 19.9166 12.9925 19.4407C12.9925 18.9651 13.3607 18.5788 13.8158 18.5788ZM13.8158 28.2451H35.4512C35.9063 28.2451 36.2745 28.6307 36.2745 29.1074C36.2745 29.5841 35.9056 29.9697 35.4512 29.9697L13.8158 29.9693C13.3607 29.9693 12.9925 29.5837 12.9925 29.107C12.9925 28.6304 13.3607 28.2451 13.8158 28.2451ZM8.77935 37.7447L5.55147 41.0368C5.39326 41.198 5.18564 41.2819 4.9763 41.2819C4.82187 41.2819 4.66573 41.2369 4.52811 41.1433L3.10358 40.1756C2.72232 39.916 2.61319 39.3828 2.8613 38.9829C3.10976 38.5836 3.61937 38.4691 4.00066 38.7298L4.87301 39.3234L7.62974 36.512C7.95576 36.1797 8.47772 36.1855 8.79449 36.5275C9.11227 36.8674 9.10541 37.4124 8.77939 37.7447L8.77935 37.7447ZM8.77935 28.0802L5.55147 31.3711C5.39326 31.5317 5.18564 31.6156 4.9763 31.6156C4.82187 31.6156 4.66573 31.5706 4.52811 31.477L3.10358 30.5085C2.72232 30.2489 2.61319 29.7157 2.8613 29.3158C3.10976 28.9158 3.61937 28.8027 4.00066 29.0627L4.87301 29.6564L7.62974 26.8449C7.95576 26.5144 8.47772 26.5198 8.79449 26.8619C9.11227 27.2017 9.10541 27.7468 8.77939 28.0802L8.77935 28.0802ZM8.77935 18.4129L5.55147 21.7039C5.39326 21.8651 5.18564 21.9483 4.9763 21.9483C4.82187 21.9483 4.66573 21.9022 4.52811 21.8097L3.10358 20.842C2.72232 20.5824 2.61319 20.0485 2.8613 19.6492C3.10976 19.2507 3.61937 19.1373 4.00066 19.3951L4.87301 19.9877L7.62974 17.1773C7.95576 16.845 8.47772 16.8522 8.79449 17.1935C9.11227 17.5356 9.10541 18.0814 8.77939 18.4129L8.77935 18.4129ZM8.77935 8.74744L5.55147 12.0395C5.39326 12.2008 5.18564 12.284 4.9763 12.284C4.82187 12.284 4.66573 12.239 4.52811 12.1454L3.10358 11.1776C2.72232 10.918 2.61319 10.3841 2.8613 9.9849C3.10976 9.58564 3.61937 9.47295 4.00066 9.73072L4.87301 10.3233L7.62974 7.51189C7.95576 7.17959 8.47772 7.18788 8.79449 7.5281C9.11227 7.86939 9.10541 8.41519 8.77939 8.74745L8.77935 8.74744Z" fill="#34386F"/>
<path d="M40.3716 37.8572C40.198 37.8572 40.0281 37.8683 39.8578 37.8838C39.8571 37.8838 39.8564 37.8845 39.8553 37.8845C39.6666 37.9007 39.4801 37.9263 39.2972 37.9605C39.2926 37.9612 39.2875 37.9619 39.2828 37.963C39.1 37.9969 38.9192 38.0404 38.7425 38.0905C38.7385 38.0912 38.7353 38.0919 38.7313 38.0937C36.7458 38.6661 35.1797 40.2535 34.5989 42.2333C34.5982 42.2358 34.5975 42.239 34.5964 42.2423C34.5457 42.4158 34.5028 42.5929 34.4675 42.7722C34.4571 42.8287 34.4506 42.8867 34.4416 42.9432C34.42 43.0739 34.3981 43.2046 34.3844 43.3374C34.3657 43.5326 34.3545 43.7302 34.3545 43.93C34.3545 44.1525 34.3682 44.3736 34.3916 44.5914C34.3995 44.6681 34.415 44.7423 34.4261 44.8179C34.4463 44.9565 34.4679 45.0954 34.4971 45.2322C34.5172 45.3233 34.5421 45.4123 34.5655 45.5015C34.5968 45.6193 34.6292 45.7356 34.667 45.8508C34.6983 45.9451 34.7322 46.0369 34.7678 46.1291C34.8096 46.2371 34.8542 46.3436 34.9017 46.4484C34.9421 46.538 34.9831 46.6259 35.0285 46.713C35.0857 46.8235 35.148 46.9316 35.2114 47.0388C35.2549 47.1123 35.2967 47.1857 35.3428 47.2567C35.4443 47.4122 35.5534 47.563 35.6693 47.7099C35.683 47.7269 35.6952 47.7463 35.7089 47.7632C35.8526 47.94 36.0056 48.1092 36.1701 48.2698C36.1701 48.2698 36.1708 48.2705 36.1715 48.2712C36.3303 48.4267 36.4999 48.5736 36.677 48.7133C37.6995 49.5162 38.9793 50 40.3716 50C43.6892 50 46.3875 47.2768 46.3875 43.9282C46.3875 40.58 43.6884 37.8572 40.3716 37.8572L40.3716 37.8572ZM44.3974 42.2379L39.6465 46.8549C39.4794 47.0162 39.262 47.0993 39.0431 47.0993C38.8537 47.0993 38.6633 47.0381 38.5052 46.9121L36.4092 45.2499C36.0351 44.954 35.9736 44.411 36.2706 44.0388C36.5665 43.6661 37.1109 43.6049 37.4842 43.9001L38.9851 45.0896L43.1909 41.0026C43.533 40.6721 44.0806 40.6775 44.4129 41.0188C44.7466 41.3598 44.7391 41.9056 44.3974 42.2379L44.3974 42.2379Z" fill="#34386F"/>
</g>
<defs>
<clipPath id="clip0_437_907">
<rect width="46.3875" height="50" fill="white"/>
</clipPath>
</defs>
</svg>
