<svg width="48" height="48" viewBox="0 0 48 48" fill="none" xmlns="http://www.w3.org/2000/svg">
<rect x="0.5" y="0.5" width="47" height="47" rx="3.5" stroke="#4750D5"/>
<path d="M23.6031 6.19971C19.5035 6.19971 15.5036 7.60011 12.2536 10.1001L12.404 10.6001L12.8044 11.0005C15.8552 8.6001 19.6539 7.2505 23.6054 7.2505C33.1564 7.2505 40.9549 15.0515 40.9549 24.6C40.9529 34.151 33.1539 41.9495 23.6034 41.9495C14.0039 41.9495 6.25391 34.1485 6.25391 24.6C6.25391 20.6996 7.60351 16.85 10.0547 13.799L9.65432 13.3986L9.10352 13.2482C6.55467 16.5002 5.20312 20.5002 5.20312 24.5997C5.20312 34.7502 13.4531 43.0002 23.6036 43.0002C33.7541 43.0002 42.0041 34.7502 42.0041 24.5997C42.0041 14.4492 33.7541 6.19922 23.6036 6.19922L23.6031 6.19971Z" fill="#4750D5"/>
<path d="M15.1933 19.0515L12.9941 16.8015L12.2441 16.0515C10.3437 18.5515 9.34375 21.5005 9.34375 24.6025C9.34375 32.452 15.7442 38.8525 23.5937 38.8525C31.4432 38.8525 37.8437 32.452 37.8437 24.6025C37.8437 16.753 31.4432 10.3525 23.5937 10.3525C20.4433 10.3525 17.5427 11.3525 15.0427 13.2021L18.7927 16.9521C20.1931 16.0517 21.8435 15.5517 23.5935 15.5517C28.5935 15.5517 32.5935 19.6025 32.5935 24.6027C32.5935 29.6029 28.5427 33.6027 23.5935 33.6027C18.5935 33.6027 14.5425 29.5519 14.5425 24.6027C14.5425 22.9035 14.9918 21.2023 15.9429 19.8019L15.1933 19.0515Z" fill="#4750D5"/>
<path d="M22.5488 25.5517C22.0488 25.5517 21.5488 25.3525 21.1484 24.9521L19.0488 22.8525C18.8496 23.4033 18.6992 24.0029 18.6992 24.5517C18.6992 27.2021 20.8984 29.4013 23.5488 29.4013C26.1992 29.4013 28.3984 27.2021 28.3984 24.5517C28.3984 21.8525 26.1992 19.7021 23.5488 19.7021C22.9492 19.7021 22.3984 19.8018 21.8496 20.0029L23.9492 22.1025C24.6992 22.9033 24.6992 24.1533 23.9492 24.9033C23.5977 25.3506 23.0488 25.5517 22.5488 25.5517Z" fill="#4750D5"/>
<path d="M10.25 12.6L21.8495 24.1995C22.2499 24.5999 22.7987 24.5999 23.1991 24.1995C23.5995 23.8499 23.5995 23.2503 23.1991 22.8499L20.5995 20.1995L17.5487 17.1487L11.6992 11.3497L11.5976 11.2482C11.5469 11.1974 11.498 11.1486 11.498 11.0978V11.047L9.69722 5.1465L7.49997 3L6.99998 7.4492V7.49998C6.99998 7.55076 6.99997 7.65037 6.94919 7.6992C6.94919 7.74998 6.89841 7.79881 6.84958 7.84959C6.7988 7.90037 6.74998 7.9492 6.6992 7.9492C6.64842 7.99998 6.64842 7.99997 6.59959 7.99997H6.49998H6.4492L2 8.49997L4.1992 10.6992L10.0997 12.5C10.1505 12.5 10.1992 12.5512 10.25 12.6Z" fill="#4750D5"/>
</svg>
