<svg width="51" height="75" viewBox="0 0 51 75" fill="none" xmlns="http://www.w3.org/2000/svg">
<g clip-path="url(#clip0_225_269)">
<path fill-rule="evenodd" clip-rule="evenodd" d="M4.12537 72.0297H5.77553C6.68312 72.0297 7.34319 71.7822 7.34319 70.8746C7.34319 69.802 6.4356 69.7194 5.28048 69.7194H4.12537V72.0297ZM4.12537 67.4092H5.69302C6.4356 67.4092 6.93065 67.0792 6.93065 66.3366C6.93065 65.3465 6.18807 65.3465 5.4455 65.3465H4.12537V67.4092ZM0.329987 62.2937H5.77553C8.33329 62.2937 10.396 62.9538 10.396 65.5115C10.396 66.8317 9.65342 67.7392 8.91085 68.2343C10.1485 68.5643 10.8085 69.802 10.8085 71.1221C10.8085 73.9274 8.82834 74.9175 5.94055 74.9175H0.329987V62.2937Z" fill="#B43C28"/>
<path fill-rule="evenodd" clip-rule="evenodd" d="M21.4521 62.2937V65.264H16.3366V75H12.6237V62.2937H21.4521Z" fill="#B43C28"/>
<path fill-rule="evenodd" clip-rule="evenodd" d="M33.9934 62.2937V75H30.4455V70.9571L30.6931 67.7392L26.5677 75H23.1023V62.2937H26.6502V66.3366L26.4851 69.5544L30.5281 62.2937H33.9934Z" fill="#B43C28"/>
<path fill-rule="evenodd" clip-rule="evenodd" d="M39.934 66.4191L43.2343 62.2937H47.6073L43.4819 67.0792L48.0198 75H43.5644L40.8416 69.967L39.934 70.9571V75H36.2211V62.2937H39.934V66.4191Z" fill="#B43C28"/>
<path fill-rule="evenodd" clip-rule="evenodd" d="M0.577558 33.1681H47.8548V59.4058H0.577558V33.1681ZM0.577558 32.5081C0.247525 32.5081 0 32.7556 0 33.0856V59.4058C0 59.7358 0.247525 59.9833 0.577558 59.9833H47.7723C48.1023 59.9833 48.3498 59.7358 48.3498 59.4058V33.1681C48.3498 32.8381 48.1023 32.5906 47.7723 32.5906H0.577558V32.5081Z" fill="#B43C28"/>
<path fill-rule="evenodd" clip-rule="evenodd" d="M3.05282 36.0559C2.97031 36.0559 2.97031 36.1384 2.97031 36.1384V38.2011C2.97031 38.2836 3.05282 38.2836 3.05282 38.2836H6.43566C6.51817 38.2836 6.51817 38.2011 6.51817 38.2011V36.1384C6.51817 36.0559 6.43566 36.0559 6.43566 36.0559H3.05282ZM6.43566 38.7786H3.05282C2.72279 38.7786 2.55777 38.5311 2.55777 38.2836V36.2209C2.55777 35.8908 2.80529 35.7258 3.05282 35.7258H6.43566C6.76569 35.7258 6.93071 35.9734 6.93071 36.2209V38.2836C6.93071 38.5311 6.68318 38.7786 6.43566 38.7786Z" fill="#B43C28"/>
<path fill-rule="evenodd" clip-rule="evenodd" d="M3.05282 42.1618C2.97031 42.1618 2.97031 42.2443 2.97031 42.2443V44.307C2.97031 44.3895 3.05282 44.3895 3.05282 44.3895H6.43566C6.51817 44.3895 6.51817 44.307 6.51817 44.307V42.2443C6.51817 42.1618 6.43566 42.1618 6.43566 42.1618H3.05282ZM6.43566 44.8846H3.05282C2.72279 44.8846 2.55777 44.6371 2.55777 44.3895V42.3268C2.55777 41.9968 2.80529 41.8318 3.05282 41.8318H6.43566C6.76569 41.8318 6.93071 42.0793 6.93071 42.3268V44.3895C6.93071 44.6371 6.68318 44.8846 6.43566 44.8846Z" fill="#B43C28"/>
<path fill-rule="evenodd" clip-rule="evenodd" d="M3.05282 48.2673C2.97031 48.2673 2.97031 48.3498 2.97031 48.3498V50.4125C2.97031 50.495 3.05282 50.495 3.05282 50.495H6.43566C6.51817 50.495 6.51817 50.4125 6.51817 50.4125V48.3498C6.51817 48.2673 6.43566 48.2673 6.43566 48.2673H3.05282ZM6.43566 50.9075H3.05282C2.72279 50.9075 2.55777 50.66 2.55777 50.4125V48.3498C2.55777 48.0198 2.80529 47.8547 3.05282 47.8547H6.43566C6.76569 47.8547 6.93071 48.1023 6.93071 48.3498V50.4125C6.93071 50.7425 6.68318 50.9075 6.43566 50.9075Z" fill="#B43C28"/>
<path fill-rule="evenodd" clip-rule="evenodd" d="M3.05282 54.2905C2.97031 54.2905 2.97031 54.373 2.97031 54.373V56.4357C2.97031 56.5182 3.05282 56.5182 3.05282 56.5182H6.43566C6.51817 56.5182 6.51817 56.4357 6.51817 56.4357V54.4555C6.51817 54.373 6.43566 54.373 6.43566 54.373H3.05282V54.2905ZM6.43566 57.0133H3.05282C2.72279 57.0133 2.55777 56.7657 2.55777 56.5182V54.4555C2.55777 54.1255 2.80529 53.9604 3.05282 53.9604H6.43566C6.76569 53.9604 6.93071 54.208 6.93071 54.4555V56.5182C6.93071 56.7657 6.68318 57.0133 6.43566 57.0133Z" fill="#B43C28"/>
<path fill-rule="evenodd" clip-rule="evenodd" d="M41.3366 36.0559C41.2541 36.0559 41.2541 36.1384 41.2541 36.1384V38.2011C41.2541 38.2836 41.3366 38.2836 41.3366 38.2836H44.7195C44.802 38.2836 44.802 38.2011 44.802 38.2011V36.1384C44.802 36.0559 44.7195 36.0559 44.7195 36.0559H41.3366ZM44.6369 38.7786H41.2541C40.9241 38.7786 40.7591 38.5311 40.7591 38.2836V36.2209C40.7591 35.8908 41.0066 35.7258 41.2541 35.7258H44.6369C44.967 35.7258 45.132 35.9734 45.132 36.2209V38.2836C45.2145 38.5311 44.967 38.7786 44.6369 38.7786Z" fill="#B43C28"/>
<path fill-rule="evenodd" clip-rule="evenodd" d="M41.3366 42.1618C41.2541 42.1618 41.2541 42.2443 41.2541 42.2443V44.307C41.2541 44.3895 41.3366 44.3895 41.3366 44.3895H44.7195C44.802 44.3895 44.802 44.307 44.802 44.307V42.2443C44.802 42.1618 44.7195 42.1618 44.7195 42.1618H41.3366ZM44.6369 44.8846H41.2541C40.9241 44.8846 40.7591 44.6371 40.7591 44.3895V42.3268C40.7591 41.9968 41.0066 41.8318 41.2541 41.8318H44.6369C44.967 41.8318 45.132 42.0793 45.132 42.3268V44.3895C45.2145 44.6371 44.967 44.8846 44.6369 44.8846Z" fill="#B43C28"/>
<path fill-rule="evenodd" clip-rule="evenodd" d="M41.3366 48.2673C41.2541 48.2673 41.2541 48.3498 41.2541 48.3498V50.4125C41.2541 50.495 41.3366 50.495 41.3366 50.495H44.7195C44.802 50.495 44.802 50.4125 44.802 50.4125V48.3498C44.802 48.2673 44.7195 48.2673 44.7195 48.2673H41.3366ZM44.6369 50.9075H41.2541C40.9241 50.9075 40.7591 50.66 40.7591 50.4125V48.3498C40.7591 48.0198 41.0066 47.8547 41.2541 47.8547H44.6369C44.967 47.8547 45.132 48.1023 45.132 48.3498V50.4125C45.2145 50.7425 44.967 50.9075 44.6369 50.9075Z" fill="#B43C28"/>
<path fill-rule="evenodd" clip-rule="evenodd" d="M41.3366 54.2905C41.2541 54.2905 41.2541 54.373 41.2541 54.373V56.4357C41.2541 56.5182 41.3366 56.5182 41.3366 56.5182H44.7195C44.802 56.5182 44.802 56.4357 44.802 56.4357V54.4555C44.802 54.373 44.7195 54.373 44.7195 54.373H41.3366V54.2905ZM44.6369 57.0133H41.2541C40.9241 57.0133 40.7591 56.7657 40.7591 56.5182V54.4555C40.7591 54.1255 41.0066 53.9604 41.2541 53.9604H44.6369C44.967 53.9604 45.132 54.208 45.132 54.4555V56.5182C45.2145 56.7657 44.967 57.0133 44.6369 57.0133Z" fill="#B43C28"/>
<path fill-rule="evenodd" clip-rule="evenodd" d="M10.1485 6.68324C10.396 6.93076 10.561 7.17829 11.0561 7.01327C11.1386 6.51822 10.6435 6.18819 10.396 5.85815C10.3135 6.18819 10.1485 6.3532 10.1485 6.68324Z" fill="#2B2A29"/>
<path fill-rule="evenodd" clip-rule="evenodd" d="M19.637 7.50824C18.8944 7.26072 18.0693 6.93068 17.5743 6.51814C17.5743 6.35312 17.4918 6.27062 17.4918 6.18811C17.2442 6.02309 16.9142 5.94058 16.5842 6.02309C15.8416 6.27062 15.264 8.66336 14.8515 9.57095C15.264 9.57095 15.5116 9.65346 15.8416 9.73596C16.0891 9.40593 15.8416 9.15841 15.9241 8.82837C16.0066 8.41583 16.5017 7.83827 16.6667 7.75576C17.9868 6.84817 20.0495 8.0858 21.4522 8.33332C21.0396 7.67326 20.297 7.67326 19.637 7.50824Z" fill="#2B2A29"/>
<path fill-rule="evenodd" clip-rule="evenodd" d="M17.8218 8.91088C18.0693 8.91088 18.1518 8.99339 18.3168 8.91088C19.0594 8.1683 17.2442 8.00329 17.8218 8.91088Z" fill="#2B2A29"/>
<path fill-rule="evenodd" clip-rule="evenodd" d="M22.8548 8.66328C24.1749 9.15833 25.4126 9.90091 26.8152 10.3135C28.1353 11.1385 30.033 11.3035 31.3531 12.1286C31.9307 12.2111 32.3432 12.4587 32.7558 12.6237C32.3432 12.9537 32.3432 13.6138 31.8482 13.6963C31.6007 13.7788 31.4357 13.5313 31.1056 13.4488C30.5281 13.2837 29.373 13.4488 29.2079 13.6138C29.373 13.3663 28.8779 13.2012 28.7129 13.3663C29.1254 14.2738 30.6106 14.1088 31.1881 14.8514C30.6106 15.0164 30.033 15.2639 29.2904 15.3465C29.0429 15.3465 29.1254 15.0164 28.9604 15.0164C28.8779 15.2639 28.8779 15.5115 28.5479 15.5115C28.4654 15.2639 28.3828 14.9339 28.1353 15.0164C28.0528 15.2639 28.4654 15.0989 28.3829 15.3465C28.3003 15.429 28.2178 15.5115 28.0528 15.429C28.2178 15.0989 27.6403 15.2639 27.5578 14.9339C27.5578 14.7689 27.7228 14.7689 27.7228 14.6039C27.4753 14.5214 27.3927 14.7689 27.3102 14.6864C27.3102 14.5214 27.3102 14.4389 27.2277 14.3564C25.6601 13.8613 24.505 12.9537 22.4423 12.8712C22.1947 13.1187 21.6997 13.2012 21.6172 13.6138C22.0297 14.0263 23.0198 13.7788 23.1023 14.5214C23.1848 14.9339 22.9373 15.0164 22.8548 15.429C23.2673 15.8415 23.9274 15.6765 24.3399 15.5115C24.505 15.759 24.67 15.5115 24.835 15.429C25.2475 15.594 25.33 16.089 25.4126 16.4191C25.7426 16.1715 25.5776 15.8415 25.9901 15.759C26.2376 15.759 26.4027 16.0065 26.7327 16.1715C27.2277 16.5016 27.9703 16.7491 28.1353 17.1616C28.7954 17.0791 28.8779 17.5742 29.2904 17.7392C29.6205 17.4917 30.033 17.5742 30.363 17.6567C30.8581 17.4917 30.6106 16.5841 31.1056 16.4191C31.5182 16.4191 31.3531 16.9966 31.6007 17.1616C32.0132 17.1616 31.6007 16.3366 32.0132 16.3366C32.2607 16.3366 32.1782 16.7491 32.3432 16.8316C33.0033 16.5841 33.4159 15.6765 33.9934 15.0989C33.8284 14.8514 33.6634 14.6864 33.6634 14.3564C33.9934 13.3663 34.901 13.1187 36.0561 12.9537C35.8911 12.1286 34.9835 11.6336 33.9934 11.7986C33.5809 11.8811 33.1683 12.2111 32.7558 12.1286C31.1056 11.3861 29.1254 10.891 27.4753 10.1484C25.6601 9.57088 24.0924 8.8283 22.1947 8.33325C22.3597 8.66329 22.6073 8.58078 22.8548 8.66328Z" fill="#2B2A29"/>
<path fill-rule="evenodd" clip-rule="evenodd" d="M28.4653 11.8812C27.6403 11.5512 26.8152 11.2212 26.0726 10.8086C24.1749 10.3961 22.5248 9.57102 20.7096 8.99346C20.7096 8.91095 20.6271 8.99346 20.6271 8.99346C20.6271 8.99346 20.6271 9.07597 20.6271 9.15847C20.6271 9.57102 21.0396 9.57102 21.2871 9.65352C22.1122 9.98356 23.0198 10.2311 23.9274 10.5611C25.6601 11.1387 27.3927 12.0463 29.2079 12.3763C29.1254 11.9638 28.7129 11.9638 28.4653 11.8812Z" fill="#2B2A29"/>
<path fill-rule="evenodd" clip-rule="evenodd" d="M19.307 9.65332C18.5644 10.8084 20.9571 11.221 21.2046 10.3959C20.7096 10.0659 20.132 9.73583 19.307 9.65332Z" fill="#2B2A29"/>
<path fill-rule="evenodd" clip-rule="evenodd" d="M22.2772 10.7258C22.1947 10.8083 22.1122 10.8908 22.1122 10.9734C22.1947 11.1384 22.3597 11.1384 22.3597 11.3034C23.2673 11.1384 23.9274 12.2935 24.505 11.5509C23.8449 11.2209 23.1023 10.7258 22.2772 10.7258Z" fill="#2B2A29"/>
<path fill-rule="evenodd" clip-rule="evenodd" d="M35.7261 14.0265C36.1386 14.0265 37.1287 14.7691 37.2112 13.944C36.7987 13.944 35.8086 13.1189 35.7261 14.0265Z" fill="#2B2A29"/>
<path fill-rule="evenodd" clip-rule="evenodd" d="M36.1386 15.3467C36.2211 15.7592 37.0462 16.5843 37.0462 15.5942C36.7162 15.5117 36.3036 15.3467 36.1386 15.3467Z" fill="#2B2A29"/>
<path fill-rule="evenodd" clip-rule="evenodd" d="M22.1122 21.5348C22.1122 21.6998 22.6898 22.6899 22.8548 22.7724C23.0198 22.9374 23.5149 23.0199 23.8449 23.1849C24.7525 23.5975 25.5776 23.7625 25.8251 22.8549C25.6601 22.2773 25.33 22.1123 24.9175 21.7823C24.7525 21.6173 24.5875 21.3697 24.4224 21.2872C23.8449 20.7922 22.9373 20.4622 22.3597 20.4622C22.3597 20.7922 22.0297 21.1222 22.1122 21.5348Z" fill="#2B2A29"/>
<path fill-rule="evenodd" clip-rule="evenodd" d="M31.8482 39.2739C31.9307 38.4488 31.8482 37.6238 31.7657 36.7987C31.6832 35.5611 31.8482 34.3234 31.6007 33.4158C31.3532 32.4257 30.8581 31.8482 30.4456 31.0231C30.1155 30.363 29.6205 29.538 29.1254 29.0429C28.7129 28.6304 27.9703 28.3828 27.7228 27.8878C27.5578 27.4752 27.6403 26.9802 27.4753 26.6502C27.0627 25.5776 26.1551 25.2475 25.0825 25C24.2574 25.2475 23.2673 25.4125 22.6898 25.9076C22.6898 26.5677 22.7723 27.5578 22.7723 28.4653C23.2673 29.4554 24.0924 29.9505 25 30.4455C26.6502 31.3531 27.9703 32.4257 28.6304 34.2409C29.373 34.8185 30.4456 35.5611 30.6931 36.5512C30.6931 36.7162 30.6931 36.8812 30.6931 37.1287C30.6931 37.3762 30.8581 37.7063 30.9406 38.0363C31.0231 38.7789 30.7756 39.8515 31.5182 39.8515C31.8482 39.6865 31.8482 39.4389 31.8482 39.2739Z" fill="#2B2A29"/>
<path fill-rule="evenodd" clip-rule="evenodd" d="M37.7063 55.363C36.8812 55.1155 36.2212 55.033 35.6436 54.7855C34.6535 53.3829 33.4159 51.8152 33.4159 49.505C33.4159 48.3498 33.8284 47.2772 33.7459 46.1221C33.6634 45.297 33.5809 44.3895 33.4159 43.6469C33.2509 42.9043 32.7558 42.2442 32.7558 41.5842C32.7558 41.0891 32.9208 40.5941 33.0033 40.099C33.0858 39.0264 32.8383 37.7888 32.7558 36.7162C32.6733 35.9736 32.7558 35.231 32.8383 34.6535C32.6733 33.7459 32.5083 32.9208 32.2608 32.4258C31.8482 32.5908 21.4522 32.9208 21.4522 32.8383C21.7822 33.4984 21.8647 34.1584 21.8647 34.901C21.8647 36.0561 21.3697 37.1287 21.4522 38.5314C21.4522 39.0264 21.7822 39.604 21.7822 40.0165C21.6997 40.7591 20.7921 41.1716 20.9571 42.0792C20.4621 42.7393 19.802 42.8218 19.0594 43.1518C18.5644 43.3993 17.9868 43.8944 17.4918 44.2244C16.9967 44.5545 16.5017 45.132 16.1716 45.5446C15.1815 47.0297 14.769 49.0099 13.3664 50.165C12.7888 50.6601 12.0462 50.8251 11.5512 51.5677C11.5512 52.3102 12.3763 52.7228 12.8713 53.3829C13.6964 54.3729 14.0264 55.3631 15.099 56.1056C15.4291 56.3531 15.8416 56.7657 16.0891 56.7657C16.3367 56.8482 16.6667 56.6832 17.0792 56.6832C17.4918 56.6832 17.9868 56.8482 18.2344 56.6007C18.3169 55.4456 17.2443 55.6931 16.8317 55.1155C16.5017 54.703 16.2542 53.2178 16.1716 52.4753C16.1716 50.9901 17.0792 50.4126 17.9868 49.505C18.5644 49.0099 18.9769 48.2673 19.5545 47.7723C19.8845 47.5248 20.3796 47.3597 20.7921 47.1122C21.2046 46.8647 21.5347 46.5347 21.8647 46.3696C22.1947 46.2046 22.4423 46.2046 22.7723 46.0396C23.5149 45.7096 24.0099 44.8845 24.7525 44.637C25.6601 42.7393 26.2377 40.5116 26.6502 38.2013C27.0627 38.8614 27.3103 39.604 27.7228 40.3465C27.8878 40.6766 28.0528 41.0066 28.3004 41.4192C28.5479 41.7492 28.8779 42.0792 28.9604 42.4093C29.0429 42.6568 28.9604 43.0693 28.9604 43.3993C28.9604 43.7294 29.1254 44.0594 29.208 44.3069C29.208 45.132 28.7954 45.8746 29.0429 46.8647C29.538 49.1749 31.4357 51.2376 30.8581 53.6304C30.6931 54.2904 30.2806 54.703 30.198 55.363C30.1155 55.7756 30.3631 56.1881 30.3631 56.6007C31.1881 56.6007 32.1782 56.7657 33.1683 56.6832C34.6535 56.6007 35.9736 56.6832 37.1287 56.7657C37.7888 56.7657 39.274 56.9307 39.3565 56.3532C39.1915 55.8581 38.1188 55.5281 37.7063 55.363ZM50.0825 18.1518C48.6799 18.1518 47.4423 17.4092 46.2047 16.9967C45.7096 16.8317 45.2971 16.7492 44.802 16.5842C43.5644 16.1716 42.1617 15.7591 40.8416 15.3465C40.6766 15.429 40.7591 15.7591 40.5941 15.8416C43.1518 16.9967 46.1221 17.9043 48.8449 18.8944C49.1749 19.0594 49.67 19.0594 49.7525 19.5545C49.4225 19.637 48.8449 19.5545 48.4324 19.472C48.5974 19.8845 49.1749 19.8845 49.34 20.3795C48.6799 20.5446 48.2674 20.132 47.6898 20.2145C47.4423 20.0495 47.1948 19.8845 46.9472 19.8845C44.472 19.1419 42.1617 18.2343 39.6865 17.4092C39.439 17.4092 39.439 17.7393 39.1915 17.7393C38.7789 17.8218 38.4489 17.4092 37.9538 17.3267C37.7888 17.2442 37.6238 17.3267 37.4588 17.3267C37.2113 17.2442 36.8812 17.0792 36.6337 16.9967C35.8086 16.7492 34.736 16.5017 34.1584 16.1716C32.5908 17.4092 31.3532 19.3894 28.4654 19.1419C28.4654 19.5545 28.8779 20.132 28.8779 20.7921C28.8779 22.0297 28.4654 23.2673 27.4753 23.4323C27.4753 24.2574 28.2178 24.4224 28.5479 25.0825C28.7129 25.4125 28.7954 25.9076 28.8779 26.4026C28.9604 26.6502 28.8779 26.8977 28.9604 27.2277C29.0429 27.5578 29.4555 28.0528 29.7855 28.4654C30.6106 29.538 31.4357 30.9406 32.0132 32.1782C32.1782 32.5083 24.9175 32.5083 21.2046 32.6733C20.7096 31.4356 20.0495 29.2904 20.4621 27.6403C20.6271 27.1452 21.0396 26.5677 20.9571 26.0726C20.8746 25.2475 18.8944 25.4125 18.3994 24.835C17.6568 23.9274 18.3994 23.1023 18.4819 22.0297C19.2244 21.0396 19.7195 19.8845 19.5545 18.2343C19.472 17.4918 19.1419 16.7492 19.0594 16.0066C18.9769 15.099 18.8944 13.5314 19.1419 12.9538C19.307 12.6238 20.0495 12.2112 20.0495 11.8812C20.0495 11.3036 18.3994 10.9736 17.8218 10.7261C17.6568 10.6436 17.2443 10.396 16.9967 10.396C16.7492 10.396 16.5842 10.6436 16.2542 10.7261C15.6766 10.8086 15.2641 10.5611 14.769 10.4785C14.274 10.8086 14.439 11.5512 13.8614 11.6337C13.2839 11.7162 12.1287 11.0561 11.5512 10.8086C10.6436 10.5611 9.90101 10.231 9.24095 10.066C9.07593 9.15842 8.58088 8.08581 9.15844 7.34324C9.15844 6.84819 8.7459 6.35314 8.99342 5.9406C9.24095 5.69307 9.57098 5.85809 9.736 6.10561C10.231 4.78548 10.8086 3.54786 11.3037 2.22772C11.8812 2.31023 12.2938 2.64026 12.7888 2.72277C13.1188 2.14522 13.2839 1.32013 13.6964 0.742574C13.7789 0.412541 13.4489 0.165017 13.6964 0C14.1089 0.0825083 14.274 0 14.5215 0H14.6865C15.4291 0 16.4192 0.577558 16.5017 1.07261C15.5941 1.48515 15.5116 2.64026 15.099 3.54786C15.5941 4.20792 17.0792 3.87789 16.9967 5.11551C17.7393 5.19802 17.9043 6.0231 18.4819 6.43565C19.307 6.9307 20.3796 6.9307 21.2872 7.42574C20.9571 7.09571 20.4621 6.84819 20.4621 6.35314C20.4621 5.85809 21.0396 5.44555 21.3697 5.11551C21.6997 4.78548 22.1947 4.20792 22.5248 4.04291C23.0198 3.87789 23.8449 3.79538 24.4225 3.9604C24.67 4.04291 24.835 4.20792 25.0825 4.29043C25.7426 4.53795 26.4852 4.53796 26.8977 4.78548C27.3103 4.9505 27.5578 5.36304 27.7228 5.52805C28.5479 5.52805 29.2905 5.77558 29.208 6.35314C29.208 7.0132 28.2178 6.9307 27.6403 7.26073C27.7228 7.75578 27.4753 7.83829 27.5578 8.33334C27.6403 8.9934 28.7954 9.57096 27.7228 9.81848C29.2905 10.4785 31.1056 10.9736 32.6733 11.6337C33.3334 11.3036 33.9934 10.8911 34.901 11.0561C35.7261 11.2211 36.3037 12.6238 37.1287 13.0363C40.7591 14.3564 44.7195 15.5941 48.5149 16.9967C49.1749 17.2442 49.7525 17.4918 50.0825 18.1518Z" fill="#B43C28"/>
<path fill-rule="evenodd" clip-rule="evenodd" d="M31.3532 48.2671C31.0231 47.0294 31.8482 45.5443 31.4357 44.3892C30.6106 45.0492 30.4456 47.607 31.3532 48.2671Z" fill="#2B2A29"/>
<path fill-rule="evenodd" clip-rule="evenodd" d="M8.0033 5.28014C8.41584 5.61017 8.91089 6.18773 9.24093 6.8478C9.57096 9.73559 5.77558 10.3957 4.86799 8.16793C4.53796 6.10522 5.69307 4.95011 7.59076 5.11512C7.0132 4.62007 6.43565 4.29004 6.35314 3.54747C5.77558 0.329645 11.1386 -0.0828968 10.8086 3.38245C10.6436 4.62007 9.57096 5.36265 8.0033 5.28014Z" fill="#B43C28"/>
<path fill-rule="evenodd" clip-rule="evenodd" d="M10.396 5.85815C10.6435 6.18819 11.0561 6.51822 11.0561 7.01327C10.561 7.09578 10.396 6.93076 10.1485 6.68324C10.1485 6.3532 10.3135 6.18819 10.396 5.85815Z" fill="#FEFEFE"/>
<path fill-rule="evenodd" clip-rule="evenodd" d="M21.4522 8.16853C20.0495 7.921 17.9868 6.68338 16.6667 7.59097C16.5017 7.75599 16.0066 8.25104 15.9241 8.66358C15.8416 8.99361 16.0891 9.32364 15.8416 9.57117C15.5116 9.57117 15.264 9.40615 14.8515 9.40615C15.264 8.49856 15.8416 6.18833 16.5842 5.8583C16.8317 5.77579 17.1617 5.8583 17.4918 6.02331C17.4918 6.10582 17.5743 6.18833 17.5743 6.35335C18.0693 6.76589 18.8119 7.09592 19.637 7.34344C20.297 7.67348 21.0396 7.67348 21.4522 8.16853Z" fill="#FEFEFE"/>
<path fill-rule="evenodd" clip-rule="evenodd" d="M18.3168 8.91088C18.0693 8.99339 18.0693 8.91088 17.8218 8.91088C17.2442 8.00329 19.0594 8.1683 18.3168 8.91088Z" fill="#FEFEFE"/>
<path fill-rule="evenodd" clip-rule="evenodd" d="M27.3928 15.4292C27.3928 15.5117 27.3927 15.5117 27.4753 15.5942C27.6403 15.5942 27.7228 15.5117 27.7228 15.4292C27.6403 15.3467 27.4753 15.3467 27.3928 15.4292ZM22.2772 8.41602C24.1749 8.91107 25.7426 9.65364 27.5578 10.2312C29.2079 10.9738 31.1056 11.4688 32.8383 12.2114C33.2508 12.2939 33.6634 11.8814 34.0759 11.8814C35.066 11.7163 35.9736 12.2114 36.1386 13.0365C34.9835 13.2015 34.0759 13.449 33.7459 14.4391C33.7459 14.7692 33.9934 14.9342 34.0759 15.1817C33.5809 15.7593 33.0858 16.5843 32.4258 16.9144C32.1782 16.8319 32.3432 16.5018 32.0957 16.4193C31.6832 16.4193 32.0957 17.2444 31.6832 17.2444C31.3531 17.0794 31.5182 16.5018 31.1056 16.5018C30.6106 16.6668 30.8581 17.5744 30.363 17.7395C29.9505 17.6569 29.538 17.5744 29.2904 17.822C28.8779 17.6569 28.7954 17.1619 28.1353 17.2444C27.8878 16.8319 27.2277 16.5843 26.7327 16.2543C26.4027 16.0893 26.2376 15.8418 25.9901 15.8418C25.5776 15.9243 25.7426 16.2543 25.4126 16.5018C25.33 16.1718 25.2475 15.6767 24.835 15.5117C24.67 15.5942 24.505 15.7593 24.3399 15.5942C23.9274 15.7593 23.1848 15.9243 22.8548 15.5117C22.9373 15.0992 23.1848 14.9342 23.1023 14.6041C22.9373 13.8616 21.9472 14.1091 21.6172 13.6965C21.6997 13.284 22.1122 13.2015 22.4423 12.954C24.505 12.954 25.6601 13.8616 27.2277 14.4391C27.3102 14.5216 27.3102 14.6041 27.3102 14.7692C27.4753 14.8517 27.4753 14.6866 27.7228 14.6866C27.7228 14.8517 27.5578 14.8517 27.5578 15.0167C27.6403 15.2642 28.2178 15.1817 28.0528 15.5117C28.2178 15.5117 28.3003 15.5117 28.3829 15.4292C28.4654 15.1817 28.0528 15.4292 28.1353 15.0992C28.3828 14.9342 28.5479 15.3467 28.5479 15.5942C28.8779 15.5942 28.8779 15.2642 28.9604 15.0992C29.2079 15.0992 29.1254 15.4292 29.2904 15.4292C30.033 15.4292 30.6106 15.1817 31.1881 14.9342C30.6106 14.1916 29.0429 14.3566 28.7129 13.449C28.8779 13.3665 29.373 13.5315 29.2079 13.6965C29.373 13.5315 30.6106 13.3665 31.1056 13.5315C31.4357 13.614 31.6007 13.8616 31.8482 13.7791C32.3432 13.6965 32.4258 12.954 32.7558 12.7064C32.3432 12.4589 31.9307 12.2114 31.3531 12.2114C30.033 11.4688 28.1353 11.2213 26.8152 10.3962C25.4126 9.98367 24.0924 9.2411 22.8548 8.74605C22.6073 8.58103 22.3597 8.66354 22.2772 8.41602Z" fill="#FEFEFE"/>
<path fill-rule="evenodd" clip-rule="evenodd" d="M29.2079 12.2938C27.3927 11.9638 25.6601 11.0562 23.9274 10.4786C23.0198 10.1486 22.1122 9.90105 21.2871 9.57102C21.0396 9.48851 20.6271 9.48851 20.6271 9.07597C20.7096 9.07597 20.6271 8.99346 20.7096 8.99346C20.7921 8.99346 20.7921 8.91095 20.7921 8.99346C22.6073 9.57102 24.1749 10.3136 26.1551 10.8086C26.8977 11.1387 27.7228 11.5512 28.5479 11.8812C28.7129 11.9638 29.1254 11.9638 29.2079 12.2938Z" fill="#FEFEFE"/>
<path fill-rule="evenodd" clip-rule="evenodd" d="M21.2871 10.3959C21.0396 11.221 18.6469 10.8084 19.3894 9.65332C20.132 9.73583 20.7096 10.0659 21.2871 10.3959Z" fill="#FEFEFE"/>
<path fill-rule="evenodd" clip-rule="evenodd" d="M24.505 11.4689C23.9274 12.294 23.1848 11.1388 22.3597 11.2214C22.2772 11.0563 22.1122 11.0563 22.1122 10.8913C22.1122 10.7263 22.1947 10.7263 22.2772 10.6438C23.1023 10.7263 23.8449 11.2214 24.505 11.4689Z" fill="#FEFEFE"/>
<path fill-rule="evenodd" clip-rule="evenodd" d="M37.2937 13.944C37.1287 14.6866 36.2211 14.0265 35.7261 14.0265C35.8086 13.1189 36.7987 13.944 37.2937 13.944Z" fill="#FEFEFE"/>
<path fill-rule="evenodd" clip-rule="evenodd" d="M36.9637 15.5942C36.9637 16.5843 36.1386 15.7592 36.0561 15.3467C36.3036 15.3467 36.7162 15.5117 36.9637 15.5942Z" fill="#FEFEFE"/>
<path fill-rule="evenodd" clip-rule="evenodd" d="M27.7228 15.4288C27.6403 15.5113 27.6403 15.5938 27.4753 15.5938C27.4753 15.5113 27.3927 15.5113 27.3927 15.4288C27.4753 15.3463 27.6403 15.3463 27.7228 15.4288Z" fill="#B43C28"/>
<path fill-rule="evenodd" clip-rule="evenodd" d="M22.4422 20.4617C22.9373 20.3792 23.8449 20.7918 24.5049 21.2868C24.67 21.3693 24.7525 21.6169 25 21.7819C25.4125 22.1119 25.7426 22.2769 25.9076 22.8545C25.6601 23.8446 24.835 23.5971 23.9274 23.1845C23.5973 23.0195 23.1023 22.937 22.9373 22.772C22.7723 22.607 22.1947 21.6169 22.1947 21.5343C22.0297 21.1218 22.3597 20.7918 22.4422 20.4617Z" fill="#FEFEFE"/>
<path fill-rule="evenodd" clip-rule="evenodd" d="M29.1254 33.4984C29.208 33.4984 29.2905 33.4984 29.373 33.4158C29.373 33.2508 29.2905 33.2508 29.1254 33.2508C29.1254 33.3333 29.1254 33.4158 29.1254 33.4984ZM28.7954 33.1683C29.0429 33.2508 29.1254 33.0858 29.0429 32.8383C28.7954 32.7558 28.7954 32.9208 28.7954 33.1683ZM26.5677 28.3828C26.4027 29.1254 27.3928 29.7855 27.5578 30.6106C27.6403 31.1056 27.5578 31.6007 27.8053 31.8482C28.0528 32.1782 28.4654 32.5908 28.7129 32.7558C28.7954 32.2607 28.1353 32.0957 27.9703 31.6007C27.8053 31.1056 27.9703 30.4455 27.8053 29.868C27.5578 29.2079 27.1452 28.7954 26.6502 28.3828H26.5677ZM31.6007 39.8515C30.8581 39.8515 31.1056 38.7789 31.0231 38.0363C31.0231 37.7063 30.8581 37.3762 30.7756 37.1287C30.7756 36.8812 30.7756 36.7162 30.7756 36.5512C30.5281 35.5611 29.4555 34.8185 28.7129 34.2409C28.0528 32.4257 26.7327 31.3531 25.0825 30.4455C24.1749 29.9505 23.2674 29.4554 22.8548 28.4653C22.7723 27.5578 22.7723 26.5677 22.7723 25.9076C23.3499 25.4125 24.34 25.2475 25.165 25C26.2377 25.2475 27.2278 25.6601 27.5578 26.6502C27.7228 27.0627 27.6403 27.4752 27.8053 27.8878C28.0528 28.3828 28.7954 28.6304 29.208 29.0429C29.703 29.4554 30.1981 30.363 30.5281 31.0231C30.9406 31.8482 31.4357 32.4257 31.6832 33.4158C31.9307 34.4059 31.7657 35.6436 31.8482 36.7987C31.9307 37.6238 32.0132 38.5314 31.9307 39.2739C31.8482 39.4389 31.8482 39.6865 31.6007 39.8515Z" fill="#FEFEFE"/>
<path fill-rule="evenodd" clip-rule="evenodd" d="M26.6502 28.3831C27.1452 28.7956 27.5578 29.2081 27.8053 29.8682C27.9703 30.4458 27.8053 31.0233 27.9703 31.6009C28.1353 32.0134 28.7954 32.2609 28.7129 32.756C28.4654 32.6735 27.9703 32.1784 27.8053 31.8484C27.6403 31.6009 27.7228 31.1058 27.5578 30.6108C27.3928 29.8682 26.4027 29.1256 26.5677 28.3831H26.6502Z" fill="#B43C28"/>
<path fill-rule="evenodd" clip-rule="evenodd" d="M29.0429 32.8384C29.0429 33.0859 29.0429 33.1684 28.7954 33.1684C28.7954 32.9209 28.7954 32.7558 29.0429 32.8384Z" fill="#B43C28"/>
<path fill-rule="evenodd" clip-rule="evenodd" d="M29.1254 33.2507C29.2904 33.2507 29.3729 33.2507 29.3729 33.4157C29.2904 33.4157 29.2904 33.4983 29.1254 33.4983C29.1254 33.4157 29.1254 33.3332 29.1254 33.2507Z" fill="#B43C28"/>
<path fill-rule="evenodd" clip-rule="evenodd" d="M31.3531 44.3892C31.7657 45.5443 30.9406 47.0294 31.2706 48.2671C30.4456 47.607 30.6106 45.0492 31.3531 44.3892Z" fill="#FEFEFE"/>
<path fill-rule="evenodd" clip-rule="evenodd" d="M27.5578 33.0031H21.5346L21.3696 32.7556L21.5346 32.5081H27.5578V33.0031Z" fill="#B43C28"/>
<path fill-rule="evenodd" clip-rule="evenodd" d="M31.3532 32.3433L31.4357 32.5908L32.1782 32.3433H31.3532Z" fill="#B43C28"/>
</g>
<defs>
<clipPath id="clip0_225_269">
<rect width="50.8333" height="75" fill="white"/>
</clipPath>
</defs>
</svg>
