<svg width="48" height="48" viewBox="0 0 48 48" fill="none" xmlns="http://www.w3.org/2000/svg">
<rect x="0.5" y="0.5" width="47" height="47" rx="3.5" stroke="#4750D5"/>
<path d="M32.853 40.7119C32.7753 40.5935 32.7022 40.4727 32.6335 40.349C32.6208 40.3265 32.6073 40.3045 32.5951 40.2816C32.4308 39.9745 32.2949 39.6528 32.1905 39.3189C32.1811 39.2899 32.1741 39.2608 32.1656 39.2318C32.1262 39.0983 32.0912 38.9635 32.0616 38.8264C32.0513 38.7776 32.0414 38.7289 32.0321 38.6802C32.0087 38.5552 31.9896 38.4293 31.9745 38.3028C31.9688 38.2527 31.9611 38.2035 31.9566 38.1535C31.9403 37.9798 31.9299 37.8051 31.9299 37.6285C31.9299 37.4492 31.9398 37.2721 31.9566 37.0961C31.9647 37.0124 31.9787 36.9307 31.9903 36.8483C32.0025 36.7622 32.0129 36.6764 32.0292 36.5917C32.0502 36.4802 32.0769 36.3716 32.1041 36.2625C32.1163 36.2137 32.128 36.165 32.1412 36.1168C32.1778 35.9861 32.2195 35.8578 32.2649 35.7313C32.2719 35.7127 32.2783 35.6948 32.2846 35.6761C32.4339 35.273 32.6236 34.8904 32.8564 34.5369H17.4345C17.0907 34.5369 16.8126 34.2592 16.8126 33.916C16.8126 33.5728 17.0912 33.2952 17.4345 33.2952H33.7768C33.8315 33.2952 33.8802 33.3131 33.9308 33.3261C34.3981 32.9318 34.9324 32.6171 35.5112 32.3924C35.5239 32.3872 35.5368 32.3831 35.5496 32.3784C35.6882 32.3255 35.8287 32.2773 35.9728 32.2356C35.9892 32.2309 36.006 32.2275 36.0221 32.2229C36.1662 32.1827 36.3106 32.1461 36.4586 32.1179V7.86218C36.4604 6.8354 35.6232 6 34.5943 6H8.86609C7.83726 6 7 6.83547 7 7.86218V39.0936C7 40.1201 7.83726 40.955 8.86609 40.955H33.017C32.9851 40.9115 32.9571 40.8656 32.9265 40.8215C32.9021 40.7855 32.8772 40.7495 32.8529 40.7124L32.853 40.7119ZM17.4357 12.4176H33.7781C34.1218 12.4176 34.3999 12.6957 34.3999 13.0384C34.3999 13.3811 34.1213 13.6593 33.7781 13.6593L17.4357 13.659C17.092 13.659 16.8139 13.3809 16.8139 13.0382C16.8139 12.6957 17.092 12.4176 17.4357 12.4176V12.4176ZM17.4357 19.3767H33.7781C34.1218 19.3767 34.3999 19.6549 34.3999 19.9975C34.3999 20.3402 34.1213 20.6184 33.7781 20.6184L17.4357 20.6181C17.092 20.6181 16.8139 20.34 16.8139 19.9973C16.8139 19.6549 17.092 19.3767 17.4357 19.3767V19.3767ZM17.4357 26.3365H33.7781C34.1218 26.3365 34.3999 26.6141 34.3999 26.9573C34.3999 27.3005 34.1213 27.5781 33.7781 27.5781L17.4357 27.5779C17.092 27.5779 16.8139 27.3003 16.8139 26.9571C16.8139 26.6139 17.092 26.3365 17.4357 26.3365ZM13.6315 33.1762L11.1933 35.5465C11.0738 35.6626 10.917 35.723 10.7588 35.723C10.6422 35.723 10.5243 35.6906 10.4203 35.6232L9.34429 34.9264C9.0563 34.7395 8.97387 34.3556 9.16128 34.0677C9.34895 33.7802 9.73389 33.6978 10.0219 33.8854L10.6808 34.3129L12.7631 32.2886C13.0094 32.0494 13.4036 32.0535 13.6429 32.2998C13.8829 32.5445 13.8778 32.9369 13.6315 33.1762L13.6315 33.1762ZM13.6315 26.2177L11.1933 28.5872C11.0738 28.7028 10.917 28.7632 10.7588 28.7632C10.6422 28.7632 10.5243 28.7308 10.4203 28.6634L9.34429 27.9661C9.0563 27.7792 8.97387 27.3953 9.16128 27.1074C9.34895 26.8194 9.73389 26.738 10.0219 26.9251L10.6808 27.3526L12.7631 25.3283C13.0094 25.0904 13.4036 25.0943 13.6429 25.3405C13.8829 25.5852 13.8778 25.9777 13.6315 26.2177L13.6315 26.2177ZM13.6315 19.2573L11.1933 21.6268C11.0738 21.7429 10.917 21.8028 10.7588 21.8028C10.6422 21.8028 10.5243 21.7696 10.4203 21.703L9.34429 21.0062C9.0563 20.8193 8.97387 20.4349 9.16128 20.1474C9.34895 19.8605 9.73389 19.7788 10.0219 19.9644L10.6808 20.3911L12.7631 18.3677C13.0094 18.1284 13.4036 18.1336 13.6429 18.3793C13.8829 18.6256 13.8778 19.0186 13.6315 19.2573L13.6315 19.2573ZM13.6315 12.2982L11.1933 14.6684C11.0738 14.7846 10.917 14.8445 10.7588 14.8445C10.6422 14.8445 10.5243 14.8121 10.4203 14.7447L9.34429 14.0479C9.0563 13.861 8.97387 13.4766 9.16128 13.1891C9.34895 12.9017 9.73389 12.8205 10.0219 13.0061L10.6808 13.4328L12.7631 11.4086C13.0094 11.1693 13.4036 11.1753 13.6429 11.4202C13.8829 11.666 13.8778 12.0589 13.6315 12.2982L13.6315 12.2982Z" fill="#4750D5"/>
<path d="M37.5071 33.2573C37.3822 33.2573 37.2598 33.2654 37.1372 33.2765C37.1367 33.2765 37.1362 33.277 37.1354 33.277C36.9995 33.2887 36.8653 33.3071 36.7336 33.3317C36.7302 33.3322 36.7266 33.3328 36.7232 33.3335C36.5915 33.3579 36.4614 33.3893 36.3341 33.4253C36.3313 33.4258 36.329 33.4263 36.3261 33.4276C34.8965 33.8398 33.7689 34.9827 33.3508 36.4081C33.3503 36.4099 33.3498 36.4122 33.349 36.4146C33.3124 36.5395 33.2816 36.6671 33.2562 36.7961C33.2487 36.8368 33.244 36.8786 33.2375 36.9193C33.222 37.0134 33.2062 37.1075 33.1963 37.2031C33.1828 37.3436 33.1748 37.4859 33.1748 37.6298C33.1748 37.79 33.1847 37.9491 33.2015 38.106C33.2072 38.1612 33.2184 38.2146 33.2264 38.269C33.2409 38.3688 33.2565 38.4689 33.2775 38.5674C33.292 38.633 33.3099 38.697 33.3267 38.7613C33.3493 38.846 33.3726 38.9298 33.3998 39.0127C33.4224 39.0806 33.4467 39.1467 33.4724 39.2131C33.5025 39.2908 33.5346 39.3676 33.5688 39.443C33.5979 39.5075 33.6274 39.5708 33.6601 39.6335C33.7013 39.7131 33.7461 39.7909 33.7917 39.8681C33.8231 39.921 33.8532 39.9739 33.8864 40.025C33.9595 40.1369 34.038 40.2455 34.1215 40.3513C34.1313 40.3635 34.1401 40.3775 34.15 40.3897C34.2534 40.5169 34.3636 40.6388 34.482 40.7544C34.482 40.7544 34.4826 40.7549 34.4831 40.7554C34.5974 40.8674 34.7195 40.9732 34.847 41.0737C35.5832 41.6518 36.5047 42.0002 37.5071 42.0002C39.8958 42.0002 41.8386 40.0395 41.8386 37.6285C41.8386 35.2178 39.8952 33.2573 37.5071 33.2573L37.5071 33.2573ZM40.4057 36.4115L36.985 39.7357C36.8648 39.8518 36.7082 39.9117 36.5506 39.9117C36.4142 39.9117 36.2771 39.8676 36.1633 39.7769L34.6542 38.5801C34.3849 38.367 34.3405 37.9761 34.5544 37.7081C34.7675 37.4398 35.1594 37.3957 35.4282 37.6083L36.5089 38.4647L39.537 35.5221C39.7833 35.2841 40.1776 35.288 40.4168 35.5337C40.6571 35.7792 40.6517 36.1722 40.4057 36.4115L40.4057 36.4115Z" fill="#4750D5"/>
</svg>
