<svg width="48" height="48" viewBox="0 0 48 48" fill="none" xmlns="http://www.w3.org/2000/svg">
<rect x="0.5" y="0.5" width="47" height="47" rx="3.5" stroke="#4750D5"/>
<path d="M39.1762 28.6414C38.0631 28.5731 31.7551 26.7984 29.4545 25.8428C29.3803 28.4366 29.3061 32.8052 29.3061 33.1465C29.2319 33.6243 28.4898 35.8086 26.1892 38.6755C26.1892 38.6755 26.0408 36.7643 25.8182 34.4435C25.6698 32.737 24.4824 31.7813 24.4824 30.894C24.4824 30.6209 25.3729 30.0749 25.3729 29.5288C25.3729 28.9827 25.1503 28.3684 23.8887 28.3684C22.6271 28.3684 22.4044 28.9144 22.4044 29.5288C22.4044 30.0749 23.295 30.6209 23.295 30.894C23.295 31.7813 22.1076 32.737 21.9592 34.4435C21.7365 36.7643 21.5881 38.6755 21.5881 38.6755C19.2134 35.8086 18.5455 33.6243 18.4712 33.1465C18.397 32.8052 18.3228 28.4366 18.3228 25.8428C16.0223 26.7984 9.71428 28.5731 8.60111 28.6414C7.33952 28.7097 6.96846 29.051 6.37477 30.0749C5.78108 31.0305 4.29685 35.6721 4 38.8803C11.7922 42.0202 22.9239 43.9998 35.243 43.9998C38.2115 43.9998 41.18 43.8632 44 43.6585C43.6289 37.8564 42.2189 30.9622 41.6252 30.0749C40.8089 29.051 40.4378 28.7779 39.1762 28.6414Z" fill="#4750D5"/>
<path d="M16.2451 14.7167C16.2451 15.2628 16.3935 16.6962 16.542 17.8567C16.6162 19.0171 17.4325 18.8805 17.5067 18.744C17.5067 20.3822 18.9909 21.9522 18.9909 21.9522C19.6588 22.9078 21.9594 24.2048 23.8147 24.2048C20.401 24.2048 18.9909 22.9761 18.9909 22.9761C18.9909 23.8635 18.9909 25.0239 18.9909 25.4334L23.1468 28.0956H24.4084L28.5642 25.4334C28.5642 24.7508 28.5642 21.9522 28.5642 21.9522C28.5642 21.9522 30.0485 20.314 30.0485 18.744C30.1969 18.8805 30.939 19.0171 31.0132 17.8567C31.0874 16.6962 31.2358 15.2628 31.31 14.7167C31.31 14.1706 30.5679 14.3072 30.5679 14.5802C30.5679 14.1024 30.4937 13.9659 30.5679 13.8976C30.6421 13.8293 31.0874 13.4198 31.0874 13.0102C31.0874 12.6007 31.31 12.3276 31.31 11.5768C31.31 10.8259 31.31 8.91467 31.31 8.43686C31.31 7.95904 30.7906 8.23208 30.7906 7.95904C30.7906 7.68601 30.4937 6.5256 28.7869 6.5256C29.2321 6.1843 29.529 5.09215 29.4548 4.61433C29.3063 4.95563 28.6384 5.16041 28.1932 5.16041C26.1895 5.16041 25.4473 4 23.0726 4C20.0299 4.06826 18.8425 5.56997 18.8425 6.45734C17.1357 6.45734 16.8388 7.61775 16.8388 7.89078C16.8388 8.16382 16.3193 7.89078 16.3193 8.3686C16.3193 8.84642 16.3193 10.7577 16.3193 11.5085C16.3193 12.2594 16.542 12.5324 16.542 12.942C16.542 13.3515 16.9872 13.7611 17.0614 13.8294C17.1357 13.8976 17.0614 14.0341 17.0614 14.5119C16.9872 14.3072 16.2451 14.1706 16.2451 14.7167Z" fill="#4750D5"/>
</svg>
