<svg width="48" height="48" viewBox="0 0 48 48" fill="none" xmlns="http://www.w3.org/2000/svg">
<rect x="0.5" y="0.5" width="47" height="47" rx="3.5" stroke="#4750D5"/>
<path fill-rule="evenodd" clip-rule="evenodd" d="M20.262 39.719H26.9917C27.529 39.719 27.9698 39.2783 27.9698 38.741C27.9698 38.2036 27.529 37.7629 26.9917 37.7629H20.262C19.7247 37.7629 19.284 38.2036 19.284 38.741C19.284 39.2783 19.7247 39.719 20.262 39.719ZM21.198 42.1059H26.0535C26.5834 42.1059 27.0166 41.6726 27.0166 41.1427C27.0166 40.6128 26.5833 40.1796 26.0535 40.1796L21.198 40.182C20.6681 40.182 20.2349 40.6153 20.2349 41.1452C20.2373 41.6726 20.6682 42.1059 21.198 42.1059ZM25.0631 43.9356C25.489 43.6212 25.7935 43.1334 25.9248 42.5689H21.3317C21.4605 43.131 21.7675 43.6212 22.1934 43.9356C22.2528 43.9802 22.3123 44 22.3841 44H24.8749C24.9443 44 25.0037 43.9802 25.0631 43.9356ZM26.6874 23.0975C26.41 23.0975 26.1575 23.2114 25.9743 23.3946C25.791 23.5778 25.6771 23.8304 25.6771 24.1077V25.118H26.6874C26.9647 25.118 27.2173 25.0041 27.4005 24.8208C27.5837 24.6376 27.6976 24.3851 27.6976 24.1077C27.6976 23.8304 27.5837 23.5779 27.4005 23.3947C27.2148 23.2114 26.9647 23.0975 26.6874 23.0975ZM20.5667 23.0975C20.2894 23.0975 20.0368 23.2114 19.8536 23.3946C19.6704 23.5778 19.5565 23.8304 19.5565 24.1077C19.5565 24.385 19.6704 24.6376 19.8536 24.8208C20.0368 25.004 20.2894 25.1179 20.5667 25.1179H21.5769V24.1077C21.5769 23.8304 21.463 23.5778 21.2798 23.3946C21.0941 23.2114 20.844 23.0975 20.5667 23.0975ZM24.2436 34.6033V26.5489H23.0105V34.6008L24.2436 34.6033ZM28.4949 34.8707C28.2398 34.7024 27.9353 34.6033 27.6085 34.6033H25.6772V26.5489H26.6874C27.3609 26.5489 27.97 26.274 28.4132 25.8308C28.8564 25.3876 29.1313 24.776 29.1313 24.105C29.1313 23.4315 28.8564 22.8225 28.4132 22.3792C27.97 21.936 27.3584 21.6612 26.6874 21.6612C26.0139 21.6612 25.4049 21.936 24.9616 22.3792C24.5184 22.8224 24.2436 23.434 24.2436 24.105V25.1153H23.0105V24.105C23.0105 23.4315 22.7357 22.8225 22.2925 22.3792C21.8493 21.936 21.2377 21.6612 20.5667 21.6612C19.8932 21.6612 19.2841 21.936 18.8409 22.3792C18.3977 22.8224 18.1228 23.434 18.1228 24.105C18.1228 24.7785 18.3977 25.3876 18.8409 25.8308C19.2841 26.274 19.8957 26.5489 20.5667 26.5489H21.5769V34.6008H19.6456C19.3188 34.6008 19.0142 34.6998 18.7592 34.8682C18.373 34.2071 17.8308 33.6302 17.1473 33.1672C7.78776 26.8434 12.1606 11.9677 23.6298 11.9677C35.0963 11.9677 39.4712 26.8438 30.1123 33.1672C29.424 33.6302 28.8811 34.2071 28.4949 34.8707ZM20.7649 14.6392C19.3066 15.0923 18.0636 15.8797 17.0633 16.885C16.0061 17.9497 15.2262 19.257 14.7656 20.6658C14.6443 21.0422 14.8498 21.4458 15.2261 21.5671C15.6025 21.6884 16.0061 21.4829 16.1274 21.1066C16.5211 19.9032 17.1822 18.7915 18.0785 17.8902C18.9179 17.0459 19.9652 16.3823 21.1859 16.0035C21.5647 15.8871 21.7752 15.4885 21.6588 15.1096C21.5424 14.7333 21.1438 14.5228 20.7649 14.6392ZM37.4139 24.343H42.5368C42.9329 24.343 43.2548 24.0211 43.2548 23.6249C43.2548 23.2288 42.9329 22.9069 42.5368 22.9069H37.4139C37.0177 22.9069 36.6959 23.2288 36.6959 23.6249C36.6959 24.0236 37.0177 24.343 37.4139 24.343ZM33.8831 14.3844L37.5055 10.762C37.7853 10.4822 37.7853 10.0266 37.5055 9.74682C37.2257 9.46704 36.7701 9.46703 36.4903 9.74682L32.8679 13.3692C32.5881 13.649 32.5881 14.1046 32.8679 14.3819C33.1477 14.6642 33.6033 14.6642 33.8831 14.3844ZM24.3429 9.84089C24.3429 10.237 24.021 10.5589 23.6249 10.5589C23.2287 10.5589 22.9068 10.237 22.9068 9.84089L22.9093 4.71804C22.9093 4.32187 23.2312 4 23.6273 4C24.0235 4 24.3454 4.32188 24.3454 4.71804L24.3429 9.84089ZM14.3869 13.3717L10.7645 9.74929C10.4847 9.4695 10.0316 9.4695 9.75177 9.74929C9.47198 10.0291 9.47198 10.4822 9.75177 10.7645L13.3741 14.3869C13.6539 14.6667 14.107 14.6667 14.3893 14.3869C14.6642 14.1046 14.6642 13.6515 14.3869 13.3717ZM9.84089 22.9094H4.71804C4.32187 22.9094 4 23.2312 4 23.6274C4 24.0235 4.32188 24.3454 4.71804 24.3454H9.84089C10.2371 24.3454 10.5589 24.0235 10.5589 23.6274C10.5565 23.2312 10.237 22.9094 9.84089 22.9094ZM13.3717 32.8679L9.7493 36.4903C9.4695 36.7701 9.4695 37.2232 9.7493 37.5055C10.0291 37.7853 10.4822 37.7853 10.762 37.5055L14.3844 33.8831C14.6642 33.6033 14.6642 33.1502 14.3844 32.8704C14.1071 32.5881 13.6515 32.5881 13.3717 32.8679ZM32.8679 33.8831L36.4903 37.5055C36.7701 37.7853 37.2232 37.7853 37.5055 37.5055C37.7853 37.2257 37.7853 36.7701 37.5055 36.4903L33.8831 32.8679C33.6033 32.5881 33.1477 32.5881 32.8679 32.8679C32.5881 33.1477 32.5881 33.6008 32.8679 33.8831ZM19.6437 37.2975H27.6113C28.2081 37.2975 28.6983 36.8097 28.6983 36.2106C28.6983 35.6139 28.2105 35.1236 27.6113 35.1236L19.6437 35.1261C19.047 35.1261 18.5568 35.6139 18.5568 36.2131C18.5568 36.8098 19.047 37.2975 19.6437 37.2975Z" fill="#4750D5"/>
</svg>
