<svg width="120" height="120" viewBox="0 0 120 120" fill="none" xmlns="http://www.w3.org/2000/svg">
<g clip-path="url(#clip0_836_2326)">
<circle cx="60" cy="60" r="60" fill="url(#paint0_linear_836_2326)" fill-opacity="0.6"/>
<circle cx="60" cy="60" r="51.25" fill="#34386F" stroke="white" stroke-width="1.5"/>
<path fill-rule="evenodd" clip-rule="evenodd" d="M67.6733 43.7678C68.0772 44.1524 68.6066 44.7484 68.8496 45.0921C69.2537 45.6637 69.8644 46.8694 70.033 47.4286C70.1684 47.8777 69.7659 47.6636 68.8928 46.8222C68.4168 46.3636 67.7706 45.8352 67.4566 45.6482C66.1603 44.8757 64.3021 44.4752 62.3269 44.5425L61.4256 44.5732L61.9932 44.8418C63.2212 45.4227 64.5331 46.5368 65.244 47.6022C65.5254 48.024 65.5548 48.118 65.4277 48.1897C65.3228 48.249 65.0852 48.1488 64.6529 47.863C62.7217 46.5861 60.4247 46.3262 57.6927 47.0752L56.4636 47.4122L57.4497 47.6365C58.6035 47.8992 59.8389 48.4889 60.7519 49.2129C61.0949 49.4849 61.3756 49.7414 61.3756 49.7828C61.3756 49.9682 61.015 49.9625 60.4434 49.7681C59.0032 49.278 57.211 49.2784 55.6673 49.7688C55.1372 49.9372 52.8083 51.14 52.5428 51.3825C52.5043 51.4177 53.045 51.4478 53.7445 51.4493C55.1563 51.4524 55.9388 51.6116 57.0952 52.1307C57.6399 52.3752 57.7499 52.4614 57.6588 52.5723C57.5771 52.6716 57.2634 52.7104 56.5314 52.7117C54.9525 52.7144 53.6994 53.0547 52.3895 53.8364C51.8053 54.1852 49.3496 56.5278 49.7087 56.3939C50.5662 56.0742 51.6536 55.8257 52.4126 55.7759C53.3003 55.7178 54.7314 55.869 54.8994 56.0386C55.0176 56.1579 54.5714 56.4495 54.268 56.4511C53.818 56.4535 52.3905 57.0178 51.6406 57.4896C50.5645 58.1666 49.6208 59.2093 48.7736 60.6577C48.3791 61.3321 48.0563 61.9079 48.0563 61.9374C48.0563 61.9669 48.3421 61.7977 48.6912 61.5614C49.8159 60.8002 51.6222 60.1897 52.7495 60.1897C53.3529 60.1897 53.1904 60.4747 52.332 60.9222C50.3103 61.9759 49.0354 63.6987 48.3517 66.3006C48.177 66.9653 48.0079 67.5781 47.9759 67.6623C47.9439 67.7466 48.2294 67.482 48.6103 67.0744C49.6344 65.9787 50.698 65.2607 51.9321 64.8323C52.4303 64.6592 52.4627 64.6586 52.4627 64.8222C52.4627 64.9179 52.1104 65.3589 51.6798 65.8022C49.9839 67.5477 49.2813 69.583 49.3778 72.4706L49.4083 73.3803L49.684 72.7863C50.219 71.6335 51.4936 70.1294 52.5094 69.4525C52.8483 69.2266 52.9191 69.2102 52.9914 69.3406C53.0502 69.4468 52.9512 69.6861 52.6677 70.123C51.4027 72.0722 51.1451 74.3906 51.8872 77.148L52.221 78.3886L52.4429 77.4007C52.5694 76.8367 52.8346 76.0655 53.0607 75.604C53.4496 74.8098 54.4029 73.4308 54.563 73.4308C54.7502 73.4308 54.752 73.7826 54.5674 74.3355C54.0998 75.7367 54.0639 77.4098 54.4698 78.889C54.665 79.6002 55.2879 80.9024 55.9345 81.951L56.2181 82.4108L56.2209 81.13C56.224 79.7083 56.382 78.9174 56.896 77.7511C57.1382 77.2013 57.2237 77.0903 57.3335 77.1822C57.432 77.2647 57.4704 77.5813 57.4716 78.3202C57.4743 79.9138 57.8115 81.1785 58.586 82.5006C58.9315 83.0902 61.2526 85.5688 61.1199 85.2064C60.8031 84.341 60.5569 83.2433 60.5076 82.4773C60.45 81.5813 60.5998 80.1369 60.7679 79.9673C60.883 79.8511 61.1753 80.2953 61.1753 80.5867C61.1753 81.0054 61.6746 82.354 62.0998 83.0837C62.589 83.9234 63.6127 85.032 64.3799 85.5531C64.9659 85.9511 66.5369 86.8742 66.6283 86.8742C66.6583 86.8742 66.5305 86.6581 66.3441 86.394C65.5555 85.2762 64.8806 83.352 64.8806 82.221C64.8806 81.8093 64.9066 81.745 65.0575 81.7848C65.1547 81.8105 65.4017 82.1587 65.6064 82.5586C66.3414 83.9954 67.5876 85.2154 69.0337 85.9141C69.4209 86.1012 70.2765 86.3988 70.9351 86.5755C71.5937 86.7521 72.2009 86.9231 72.2843 86.9553C72.3678 86.9877 72.1056 86.6995 71.7017 86.315C70.8166 85.4722 70.198 84.6196 69.7489 83.6235C69.0753 82.1292 69.2515 82.0431 70.4915 83.2606C70.9587 83.7192 71.5992 84.2476 71.9151 84.4346C73.2201 85.2077 75.0478 85.6055 76.9981 85.541L77.9495 85.5096L77.3818 85.241C76.1783 84.6716 74.782 83.4769 74.0953 82.4293C73.8443 82.0463 73.8221 81.9638 73.9503 81.8913C74.0549 81.8322 74.2762 81.9227 74.6665 82.1843C75.3734 82.6579 76.3664 83.0826 77.2609 83.2941C78.3764 83.5577 80.1363 83.4446 81.7028 83.0084L82.9524 82.6605L82.2536 82.5311C80.9041 82.2812 79.3508 81.5197 78.2499 80.5685C77.9961 80.3493 77.9728 80.2926 78.0997 80.2041C78.1823 80.1464 78.3175 80.1205 78.4001 80.1464C80.6351 80.8465 82.1733 80.8766 83.8832 80.2539C84.4171 80.0594 86.6082 78.9024 86.8381 78.6935C86.8798 78.6555 86.5181 78.6436 86.0343 78.667C84.6582 78.7334 83.5376 78.512 82.1799 77.9054C81.7176 77.6989 81.6258 77.6206 81.7165 77.5103C81.798 77.4112 82.1124 77.3724 82.8437 77.3711C84.4229 77.3684 85.6779 77.0275 86.9847 76.2464C87.4867 75.9462 89.8708 73.7552 89.7872 73.6707C89.7692 73.6526 89.5094 73.7319 89.2097 73.847C88.0154 74.3057 86.3852 74.4595 85.1532 74.2298C84.8264 74.1688 84.523 74.0965 84.479 74.0691C84.3016 73.9586 84.657 73.7384 85.1926 73.6271C87.1009 73.2305 88.9552 71.9881 90.0112 70.3985C90.4069 69.8028 91.3187 68.2203 91.3187 68.1291C91.3187 68.0989 91.1016 68.2315 90.8363 68.4239C89.7604 69.2041 88.2751 69.7528 86.9431 69.8623C86.2633 69.9181 86.2257 69.9103 86.2741 69.7236C86.3043 69.6069 86.5585 69.4139 86.8943 69.2527C88.2943 68.5805 89.6649 67.1827 90.3592 65.719C90.5491 65.3186 90.8478 64.447 91.0228 63.7822C91.1978 63.1175 91.3672 62.5047 91.3991 62.4205C91.4312 62.3362 91.1457 62.6008 90.7647 63.0084C90.3837 63.4161 89.7932 63.9504 89.4526 64.1957C88.8863 64.6035 87.6918 65.2199 87.1377 65.3901C86.6925 65.5269 86.9051 65.1203 87.7386 64.2411C88.193 63.7618 88.7349 63.0748 88.9429 62.7146C89.6863 61.4267 90.0617 59.6292 89.9979 57.6627L89.9668 56.7025L89.7007 57.2754C89.1129 58.541 88.0538 59.8168 86.9922 60.5385C86.2382 61.051 86.1877 60.8341 86.8157 59.7795C87.0908 59.3175 87.4379 58.5727 87.5872 58.1243C87.8376 57.3714 87.8578 57.1889 87.8508 55.7423C87.8437 54.2752 87.8212 54.096 87.4963 52.9244L87.1493 51.6733L86.99 52.4894C86.7297 53.8228 86.026 55.2684 85.1114 56.3487C84.8608 56.6447 84.7951 56.6777 84.7092 56.5509C84.6527 56.4675 84.6274 56.331 84.6531 56.2477C85.3467 53.9918 85.3766 52.4392 84.7596 50.7135C84.5701 50.1834 83.4229 47.9666 83.2195 47.7372C83.1851 47.6984 83.1541 48.267 83.1505 49.0007C83.1433 50.4725 83.0107 51.1354 82.4863 52.3191C82.2381 52.879 82.1514 52.9925 82.0416 52.9006C81.9431 52.8181 81.9047 52.5015 81.9035 51.7626C81.9008 50.1687 81.563 48.902 80.7891 47.5831C80.4916 47.0764 78.3209 44.67 78.2372 44.7544C78.2192 44.7726 78.2979 45.0348 78.4118 45.3373C78.6943 46.0865 78.901 47.2324 78.9 48.044C78.8993 48.7055 78.7425 49.9316 78.6365 50.1047C78.5228 50.2905 78.3061 49.9415 78.194 49.3919C78.0285 48.5806 77.66 47.6332 77.2291 46.9112C76.7685 46.139 75.7215 45.0231 74.9952 44.5297C74.4091 44.1317 72.8382 43.2086 72.7467 43.2086C72.7168 43.2086 72.8482 43.4278 73.0388 43.6955C73.8118 44.7815 74.3555 46.2806 74.4639 47.625C74.5201 48.3226 74.5141 48.3499 74.3164 48.2977C74.203 48.2678 74.0536 48.0998 73.9844 47.9244C73.5606 46.8502 72.4303 45.5039 71.3074 44.7358C70.4554 44.1532 69.8094 43.8776 68.4154 43.5022C67.7703 43.3284 67.1742 43.1597 67.0908 43.1275C67.0073 43.0951 67.2694 43.3833 67.6733 43.7678ZM68.8864 61.2375C66.8808 61.6792 65.5293 63.677 65.886 65.6731C66.3598 68.326 69.1689 69.7144 71.5154 68.4555C72.2531 68.0597 72.8275 67.4272 73.2224 66.5758C73.4962 65.9855 73.5357 65.7925 73.5357 65.0414C73.5357 64.2903 73.4962 64.0973 73.2224 63.507C72.6464 62.2653 71.6189 61.4448 70.3451 61.2092C69.6436 61.0796 69.6005 61.0804 68.8864 61.2375ZM68.5924 61.8221C68.0616 61.9916 67.8381 62.1388 67.3255 62.6561C66.7988 63.1877 66.6708 63.3898 66.4929 63.9713C66.2304 64.8293 66.2289 65.2485 66.4852 66.0864C66.7435 66.9302 67.4452 67.7398 68.2665 68.141C68.7481 68.3764 68.9682 68.4201 69.6875 68.4235C70.4191 68.4269 70.618 68.3883 71.1021 68.1483C71.7688 67.8178 72.521 67.0426 72.8206 66.3773C73.1537 65.6374 73.1254 64.3719 72.7586 63.6071C72.361 62.7782 71.5589 62.0699 70.7229 61.8092C69.9086 61.5553 69.4177 61.5584 68.5924 61.8221ZM68.9365 63.312C67.3937 64.0306 67.438 66.1426 69.0098 66.8054C69.4801 67.0038 69.8949 67.0038 70.3653 66.8054C71.9687 66.1293 71.9687 63.9535 70.3653 63.2774C69.8781 63.0719 69.4285 63.0828 68.9365 63.312ZM39.6035 75.2349C39.5785 75.2757 39.4435 75.6162 39.3036 75.9915C39.1186 76.4876 39.0825 76.6859 39.1714 76.7181C39.2386 76.7424 42.3581 77.8505 46.1035 79.1803C49.8489 80.5102 53.0435 81.6496 53.2027 81.7121C54.2238 82.1138 52.8042 81.4125 47.1228 78.7087C39.0686 74.8756 39.657 75.1475 39.6035 75.2349ZM42.9543 81.8297C42.8844 82.2242 42.866 82.5801 42.9132 82.6212C43.0023 82.6986 57.6684 84.9893 57.7229 84.9342C57.7587 84.8981 43.3533 81.1082 43.1903 81.1109C43.1303 81.1119 43.0241 81.4354 42.9543 81.8297ZM45.405 86.1236C45.366 86.5446 45.35 86.9055 45.3698 86.9253C45.3895 86.9452 49.4382 86.9759 54.3669 86.9936C59.2958 87.0113 63.0354 86.9909 62.6774 86.9481C61.8423 86.8486 45.8809 85.358 45.65 85.358C45.5065 85.358 45.4637 85.4918 45.405 86.1236Z" fill="white"/>
<circle cx="69.9219" cy="64.6406" r="7.17188" fill="#34386F"/>
<circle cx="69.9219" cy="64.6406" r="2.95312" fill="white"/>
<path d="M52.4217 43.7102C52.4217 43.7102 51.9927 43.5489 50.7518 43.4344C49.2344 43.2941 48.7767 42.7254 48.272 42.0174H48.2618C48.199 41.8491 48.1316 41.683 48.0575 41.5202L48.0634 41.5143C47.9193 40.657 47.8414 39.9309 48.8152 38.7587C49.6111 37.8005 49.801 37.3829 49.801 37.3829C49.6142 36.9088 49.1651 36.4598 49.1651 36.4598C49.1651 36.4598 48.7159 36.0107 48.2421 35.8242C48.2421 35.8242 47.8244 36.0135 46.8662 36.8098C45.694 37.7835 44.9678 37.7053 44.1106 37.5616L44.1046 37.5674C43.942 37.4933 43.7761 37.4263 43.6075 37.3631V37.3532C42.8994 36.8487 42.3307 36.3905 42.1904 34.8731C42.0757 33.6328 41.9146 33.2033 41.9146 33.2033C41.4473 33 40.8123 33 40.8123 33C40.8123 33 40.1771 33 39.7101 33.2033C39.7101 33.2033 39.5487 33.6328 39.4342 34.8731C39.2939 36.3905 38.7249 36.8487 38.0172 37.3532V37.3631C37.8489 37.4263 37.6827 37.4933 37.52 37.5671L37.5144 37.5616C36.6571 37.7059 35.9309 37.7837 34.7587 36.8101C33.8006 36.0141 33.3824 35.8244 33.3824 35.8244C32.9084 36.0114 32.4599 36.4598 32.4599 36.4598C32.4599 36.4598 32.0107 36.9094 31.8242 37.3831C31.8242 37.3831 32.0133 37.8008 32.8099 38.7587C33.7835 39.9308 33.7046 40.657 33.5613 41.5143L33.5672 41.5202C33.493 41.683 33.426 41.8491 33.3628 42.0174H33.353C32.8488 42.7257 32.3905 43.2941 30.8732 43.4344C29.6328 43.5491 29.2028 43.7108 29.2028 43.7108C29 44.1782 29 44.8125 29 44.8125C29 44.8125 29 45.4479 29.2033 45.9147C29.2033 45.9147 29.6323 46.0763 30.8729 46.1905C32.3903 46.3309 32.848 46.9002 33.353 47.6076H33.3629C33.4261 47.7762 33.493 47.9422 33.5672 48.1048L33.5613 48.1107C33.7057 48.9681 33.7835 49.6941 32.8099 50.8663C32.0139 51.8244 31.824 52.2427 31.824 52.2427C32.0112 52.7164 32.4596 53.1652 32.4596 53.1652C32.4596 53.1652 32.9091 53.6144 33.3829 53.8006C33.3829 53.8006 33.8004 53.6117 34.7586 52.8151C35.9307 51.8415 36.6571 51.9205 37.5141 52.0636L37.52 52.0577C37.6827 52.1317 37.849 52.1985 38.0173 52.2619V52.2721C38.7255 52.7763 39.294 53.2346 39.4343 54.7519C39.5489 55.9923 39.7104 56.4223 39.7104 56.4223C40.178 56.625 40.8123 56.625 40.8123 56.625C40.8123 56.625 41.4478 56.625 41.9146 56.4217C41.9146 56.4217 42.0763 55.9927 42.1904 54.7519C42.3307 53.2345 42.9 52.7768 43.6075 52.272V52.2619C43.7761 52.1985 43.942 52.1317 44.1046 52.0576L44.1106 52.0635C44.9678 51.9195 45.6939 51.8415 46.8662 52.8151C47.8244 53.6112 48.2427 53.8011 48.2427 53.8011C48.7165 53.6138 49.1651 53.1652 49.1651 53.1652C49.1651 53.1652 49.6142 52.7159 49.801 52.2421C49.801 52.2421 49.6116 51.8244 48.8152 50.8663C47.8414 49.6942 47.9198 48.9681 48.0634 48.1107L48.0575 48.1048C48.1316 47.9422 48.1989 47.7762 48.2618 47.6076H48.272C48.7762 46.8997 49.2344 46.3309 50.7518 46.1905C51.9921 46.0759 52.4222 45.9147 52.4222 45.9147C52.625 45.4474 52.625 44.8125 52.625 44.8125C52.625 44.8125 52.625 44.1771 52.4217 43.7102ZM40.8123 50.337C37.7611 50.337 35.2877 47.8637 35.2877 44.8125C35.2877 41.7613 37.7611 39.288 40.8123 39.288C43.8635 39.288 46.3369 41.7613 46.3369 44.8125C46.3369 47.8637 43.8635 50.337 40.8123 50.337Z" fill="white"/>
</g>
<defs>
<linearGradient id="paint0_linear_836_2326" x1="60" y1="0" x2="60" y2="120" gradientUnits="userSpaceOnUse">
<stop stop-color="#646BD5" stop-opacity="0.7"/>
<stop offset="1" stop-color="#1F224E"/>
</linearGradient>
<clipPath id="clip0_836_2326">
<rect width="120" height="120" fill="white"/>
</clipPath>
</defs>
</svg>
