<svg width="120" height="120" viewBox="0 0 120 120" fill="none" xmlns="http://www.w3.org/2000/svg">
<circle cx="60" cy="60" r="60" fill="url(#paint0_linear_836_2334)" fill-opacity="0.6"/>
<circle cx="60" cy="60" r="51.25" fill="#34386F" stroke="white" stroke-width="1.5"/>
<path fill-rule="evenodd" clip-rule="evenodd" d="M45.1615 37.1053L41 39.1703V61.1223C41 81.6299 41.0547 83.0904 41.8323 83.3135C42.2898 83.4445 44.0158 83.7825 45.6666 84.0644C47.3179 84.3463 48.9768 84.6921 49.3525 84.8324C49.9422 85.0527 50.0364 81.6318 50.0364 60.0409C50.0364 46.265 49.8761 35.0046 49.6797 35.0175C49.4833 35.03 47.4506 35.9697 45.1615 37.1053Z" fill="#AAACC9"/>
<path fill-rule="evenodd" clip-rule="evenodd" d="M51.4631 59.997V85L53.2466 84.7621C55.4016 84.4746 64.068 83.6001 64.7614 83.6001C65.0967 83.6001 65.2555 76.0903 65.2555 60.2229C65.2555 47.3654 65.0952 36.8429 64.8988 36.8396C64.7024 36.8364 61.8669 36.4225 58.5971 35.9198C55.3274 35.4171 52.3848 35.0032 52.0576 35C51.5892 34.9954 51.4631 40.2999 51.4631 59.997ZM66.5363 60.1072C66.6633 72.6466 66.8369 82.9747 66.9215 83.059C67.0067 83.1432 69.5559 82.9544 72.5864 82.6391L78.0967 82.066V60.4668V38.8677L72.7386 38.0881C69.7918 37.6595 67.1389 37.3086 66.8431 37.3086C66.4474 37.3086 66.3665 43.3288 66.5363 60.1072ZM53.3655 39.762C53.3655 40.1851 54.9355 40.5332 58.659 40.9364C63.5457 41.4651 64.8831 41.4211 64.1978 40.754C63.9257 40.4888 55.6907 39.1834 54.1978 39.1686C53.7403 39.1639 53.3655 39.431 53.3655 39.762ZM53.3655 41.5845C53.3655 42.1085 54.2468 42.346 57.0514 42.5779C59.0784 42.7455 61.7004 42.9946 62.8775 43.1316C64.7809 43.3529 64.9255 43.308 64.184 42.7228C63.7255 42.3613 61.7133 41.9206 59.7119 41.7442C57.7111 41.5679 55.4643 41.3049 54.7196 41.1596C53.717 40.9647 53.3655 41.0748 53.3655 41.5845ZM68.5847 41.3933C68.5847 42.0229 69.5645 42.277 73.4596 42.6576C75.4728 42.8543 76.6699 42.8011 76.6699 42.5145C76.6699 42.2632 75.3325 41.9136 73.6974 41.7377C72.0628 41.5618 70.2436 41.304 69.6548 41.1647C69.0637 41.0249 68.5847 41.1272 68.5847 41.3933ZM53.4259 43.4871C52.967 44.0255 53.523 44.1824 56.807 44.4389C58.9686 44.6083 61.6999 44.8749 62.8761 45.0318C64.7628 45.2837 64.944 45.2337 64.4094 44.6074C63.9957 44.1218 62.4894 43.7973 59.6549 43.5825C57.3729 43.4093 55.1614 43.1719 54.7405 43.0552C54.3196 42.9381 53.7279 43.1325 53.4259 43.4871ZM68.5847 43.2181C68.5847 43.4825 69.9226 43.8338 71.5572 43.9995C73.1923 44.1653 75.1718 44.4041 75.9565 44.53C77.3134 44.7476 77.3381 44.7235 76.4602 44.0426C75.9522 43.6487 74.9658 43.3265 74.2672 43.3265C73.569 43.3265 72.0048 43.1941 70.7915 43.0321C69.3894 42.845 68.5847 42.9131 68.5847 43.2181ZM68.7488 44.8314C68.3479 45.4628 68.5386 45.5077 73.1029 45.8586C76.1463 46.0924 77.2416 46.0442 76.892 45.691C76.2557 45.0471 69.0917 44.2907 68.7488 44.8314ZM53.1515 45.6035C53.0026 45.8378 54.2207 46.1419 55.8582 46.2799C64.8165 47.0335 64.7514 47.0326 64.4988 46.3924C64.1207 45.4332 53.7189 44.7101 53.1515 45.6035ZM68.5847 46.5021C68.5847 47.1502 70.4077 47.4793 74.0303 47.4862C75.9427 47.4899 77.1455 47.3224 76.8839 47.0881C76.2523 46.5229 68.5847 45.9813 68.5847 46.5021ZM67.3981 62.762C67.0438 63.848 67.497 65.5464 68.141 65.5464C68.7184 65.5464 68.7203 62.4421 68.1434 62.0949C67.9008 61.9491 67.565 62.2491 67.3981 62.762ZM62.3139 63.1161C62.0443 64.2142 62.3724 65.5464 62.9122 65.5464C63.1548 65.5464 63.3531 64.8173 63.3531 63.9262C63.3531 62.2421 62.6611 61.7028 62.3139 63.1161Z" fill="white"/>
<path fill-rule="evenodd" clip-rule="evenodd" d="M44.2753 56.0037C43.9218 56.4667 43.6012 56.8884 43.5625 56.9411C43.5241 56.9939 43.1953 56.7627 42.8323 56.4274C42.2786 55.916 42.1285 55.8689 41.9003 56.1339C41.6826 56.3868 41.8178 56.6326 42.5785 57.3657C43.3879 58.1458 43.5118 58.3872 43.4123 58.994C43.3483 59.3859 43.027 59.977 42.6982 60.3078C42.3692 60.6385 42.1003 61.0241 42.1003 61.1643C42.1003 61.63 42.5892 61.7193 43.0305 61.3347C43.4456 60.9725 43.4878 60.9967 43.9479 61.8661C44.7372 63.3575 45.7293 63.6291 46.7941 62.6459C47.3408 62.141 47.4947 62.0952 47.8063 62.3445C48.4063 62.8245 48.8175 62.2525 48.2822 61.6825C47.9437 61.3219 47.8547 60.8021 47.8226 58.9929C47.7832 56.7784 47.7907 56.7445 48.434 56.2863C49.1663 55.7643 49.2574 55.436 48.7244 55.239C48.5162 55.162 48.1218 55.324 47.793 55.6218L47.2228 56.1382L46.684 55.6501C45.8502 54.8954 45.0299 55.0157 44.2753 56.0037ZM44.3824 56.5188C43.6114 57.2618 43.6247 57.6137 44.4061 57.1435C44.8092 56.9007 44.9808 56.9014 45.3896 57.1476C45.8125 57.4023 45.9398 57.3915 46.2628 57.0749C46.6118 56.7324 46.5988 56.6712 46.0909 56.2697C45.3629 55.6943 45.2155 55.7158 44.3824 56.5188ZM46.338 58.1244C45.9168 58.5304 46.0025 59.532 46.4954 59.9619C46.8956 60.3109 46.9445 60.3122 47.0775 59.9783C47.3655 59.2555 47.1683 57.8552 46.7788 57.8552C46.69 57.8552 46.4917 57.9763 46.338 58.1244ZM44.1293 61.2774C44.4878 61.8694 44.7176 62.0068 45.3477 62.0068C46.3317 62.0068 46.8141 61.4045 46.2588 60.8692C45.9403 60.5622 45.8113 60.553 45.3896 60.8068C44.9922 61.0461 44.8031 61.0499 44.432 60.8266C43.7141 60.3946 43.6512 60.4884 44.1293 61.2774Z" fill="#34386F"/>
<defs>
<linearGradient id="paint0_linear_836_2334" x1="60" y1="0" x2="60" y2="120" gradientUnits="userSpaceOnUse">
<stop stop-color="#646BD5" stop-opacity="0.7"/>
<stop offset="1" stop-color="#1F224E"/>
</linearGradient>
</defs>
</svg>
