<svg width="120" height="120" viewBox="0 0 120 120" fill="none" xmlns="http://www.w3.org/2000/svg">
<circle cx="60" cy="60" r="60" fill="url(#paint0_linear_836_2341)" fill-opacity="0.6"/>
<circle cx="60" cy="60" r="51.25" fill="#34386F" stroke="white" stroke-width="1.5"/>
<path d="M74.6312 35H74.05H46.45H45.8687V35.5813V36.7375C45.8687 39.0125 44.0187 40.8687 41.7375 40.8687H40.5813H40V41.45V60.1187C40 69.225 45.0562 77.4062 53.1937 81.475L59.9875 84.875L60.25 85L60.5062 84.8688L67.3 81.4688C75.4375 77.4 80.4937 69.2188 80.4937 60.1125V41.4437V40.8625H79.9125H78.7562C76.4812 40.8625 74.625 39.0125 74.625 36.7313V35.575V35H74.6312ZM78.7625 41.4437H79.9187V60.1125C79.9187 68.9938 74.9875 76.9812 67.0437 80.95L60.25 84.35L53.4562 80.95C45.5188 76.9812 40.5813 68.9938 40.5813 60.1125V41.4437H41.7375C44.3312 41.4437 46.4437 39.3312 46.4437 36.7375V35.5813H74.05V36.7375C74.05 39.3312 76.1625 41.4437 78.7625 41.4437Z" fill="white" stroke="white"/>
<path d="M60.4196 38.3333H48.75C48.75 41.3793 46.3157 43.8231 43.3334 43.8231V60.2046C43.3334 68.0505 47.6943 75.2123 54.6223 78.7259L60.4196 81.6667L66.2111 78.7318C73.1448 75.2181 77.5 68.0563 77.5 60.2105V43.8231C74.5235 43.8231 72.0834 41.3793 72.0834 38.3333H60.4196Z" fill="white"/>
<path d="M59.7099 61.0323L53.0548 56.1161L51.6666 57.6833L59.7099 64.1666L71.6082 50.7338L70.2201 49.1666L59.7099 61.0323Z" fill="#34386F"/>
<path fill-rule="evenodd" clip-rule="evenodd" d="M70.2201 48.5382L72.1648 50.7338L59.7581 64.7406L51.0653 57.7338L52.9957 55.5545L59.6508 60.4706L70.2201 48.5382ZM70.2201 49.795L59.769 61.594L53.1139 56.6778L52.268 57.6328L59.6617 63.5926L71.0516 50.7338L70.2201 49.795Z" fill="#34386F"/>
<defs>
<linearGradient id="paint0_linear_836_2341" x1="60" y1="0" x2="60" y2="120" gradientUnits="userSpaceOnUse">
<stop stop-color="#646BD5" stop-opacity="0.7"/>
<stop offset="1" stop-color="#1F224E"/>
</linearGradient>
</defs>
</svg>
