<svg width="120" height="120" viewBox="0 0 120 120" fill="none" xmlns="http://www.w3.org/2000/svg">
<circle cx="60" cy="60" r="60" fill="url(#paint0_linear_836_2348)" fill-opacity="0.6"/>
<circle cx="60" cy="60" r="51.25" fill="#34386F" stroke="white" stroke-width="1.5"/>
<path fill-rule="evenodd" clip-rule="evenodd" d="M33.099 33.1609C31.7216 33.6082 30.4501 34.9386 30.1216 36.2763C30.0147 36.7114 29.9815 42.0461 30.0094 54.2282L30.0494 71.5612L30.3638 72.1845C30.8582 73.1646 31.4203 73.7438 32.3718 74.2535L33.2527 74.7252L53.9003 74.7617L74.5478 74.7983V56.9129V39.0275H77.8904H81.233V39.5778V40.128H78.4475H75.662V59.662V79.196H56.1635H36.665V83.598V88H60.6203H84.5756V81.397V74.7939H85.4648C87.2987 74.7939 88.7278 73.9815 89.5785 72.4554L90.0769 71.5612V53.8843V36.2075L89.7321 35.5197C89.0136 34.0867 87.6556 33.1676 86.0357 33.0182C83.8155 32.8135 81.7525 34.3568 81.3435 36.5281L81.1838 37.3768H60.0575H38.9313L38.8462 36.7635C38.6529 35.3704 37.6338 34.0128 36.3261 33.406C35.4749 33.0111 33.9234 32.8932 33.099 33.1609ZM33.3415 34.2636C32.6048 34.5269 31.7874 35.2925 31.4271 36.057L31.0968 36.7577L31.0954 52.0613L31.094 67.3651L31.7555 66.897C33.5064 65.658 35.5265 65.7113 37.3265 67.0443L37.7792 67.3796V52.1534C37.7792 40.6008 37.7384 36.7906 37.6098 36.361C37.3838 35.6054 36.23 34.4658 35.465 34.2425C34.7559 34.0356 33.9571 34.0435 33.3415 34.2636ZM84.5756 34.255C83.892 34.4678 82.7261 35.6602 82.5165 36.361C82.388 36.7906 82.3472 40.5997 82.3472 52.1487V67.3701L83.0423 66.8978C84.8537 65.6672 86.7891 65.7183 88.5797 67.0443L89.0324 67.3796V52.1534C89.0324 40.6008 88.9916 36.7906 88.863 36.361C88.637 35.6054 87.4832 34.4658 86.7182 34.2425C86.0336 34.0428 85.2425 34.0475 84.5756 34.255ZM46.6928 41.2285V42.8793H47.2499H47.807V42.329V41.7788H55.0493H62.2916V42.329V42.8793H62.8487H63.4058V41.2285V39.5778H62.8487H62.2916V40.128V40.6783H55.0493H47.807V40.128V39.5778H47.2499H46.6928V41.2285ZM76.7762 42.8793V43.9798H78.4475H80.1188V44.53V45.0803H78.4475H76.7762V46.1808V47.2813H77.8904H79.0046V47.8316V48.3818H77.8904H76.7762V49.4823V50.5828H78.4475H80.1188V51.1331V51.6833H78.4475H76.7762V52.7838V53.8843H77.8904H79.0046V54.4346V54.9848H77.8904H76.7762V56.0853V57.1859H78.4475H80.1188V57.7361V58.2864H78.4475H76.7762V59.3869V60.4874H77.8904H79.0046V61.0376V61.5879H77.8904H76.7762V62.6884V63.7889H78.4475H80.1188V64.3391V64.8894H78.4475H76.7762V65.9899V67.0904H77.8904H79.0046V67.6407V68.1909H77.8904H76.7762V69.2914V70.3919H78.4475H80.1188V70.9422V71.4924H78.4475H76.7762V72.5929V73.6934H77.8904H79.0046V74.2437V74.7939H77.8904H76.7762V75.8944V76.9949H78.4475H80.1188V77.5452V78.0955H78.4475H76.7762V79.196V80.2965H75.662H74.5478V81.9472V83.598H73.9907H73.4336V81.9472V80.2965H72.3194H71.2052V81.397V82.4975H70.6481H70.091V81.397V80.2965H68.9768H67.8626V81.9472V83.598H67.3055H66.7484V81.9472V80.2965H65.6342H64.52V81.397V82.4975H63.9629H63.4058V81.397V80.2965H62.2916H61.1774V81.9472V83.598H60.6203H60.0632V81.9472V80.2965H58.949H57.8348V81.397V82.4975H57.2777H56.7206V81.397V80.2965H55.6064H54.4922V81.9472V83.598H53.9351H53.378V81.9472V80.2965H52.2638H51.1496V81.397V82.4975H50.5925H50.0354V81.397V80.2965H48.9212H47.807V81.9472V83.598H47.2499H46.6928V81.9472V80.2965H45.5786H44.4644V81.397V82.4975H43.9073H43.3502V81.397V80.2965H42.236H41.1218V81.9472V83.598H40.5647H40.0076V81.9472V80.2965H38.8934H37.7792V83.598V86.8995H60.6203H83.4614L83.4557 77.442L83.4501 67.9846L83.0424 68.4554C82.8029 68.7322 82.5665 69.2283 82.4689 69.6591C82.3036 70.3889 82.3006 70.3919 81.7679 70.3919H81.233V56.0853V41.7788H79.0046H76.7762V42.8793ZM50.8014 46.3107L46.7624 48.6268L46.7301 53.2846L46.6977 57.9424L47.9139 58.6199C48.5827 58.9926 50.4609 60.0611 52.0873 60.9942L55.0445 62.691L59.221 60.3167L63.3976 57.9424L63.3668 53.285L63.3361 48.6275L59.2972 46.31C57.0757 45.0353 55.1642 43.9929 55.0493 43.9935C54.9344 43.9942 53.0228 45.037 50.8014 46.3107ZM64.52 44.53V45.0803H65.0771H65.6342V53.3341V61.5879H65.0771H64.52V62.1381V62.6884H66.1913H67.8626V62.1381V61.5879H67.3055H66.7484V53.3341V45.0803H67.3055H67.8626V44.53V43.9798H66.1913H64.52V44.53ZM51.7518 47.0382C49.3123 48.4176 48.5639 48.9015 48.6878 49.0201C48.7779 49.1064 50.2485 49.9683 51.956 50.9355L55.0604 52.694L55.5218 52.4295C55.7757 52.2839 57.2441 51.4529 58.7852 50.5828C60.3261 49.7127 61.5864 48.9699 61.5859 48.9321C61.5846 48.8582 55.3571 45.3111 55.1211 45.2499C55.0433 45.2298 53.5271 46.0346 51.7518 47.0382ZM47.807 53.5796V57.2872L51.0383 59.1281C52.8154 60.1404 54.3196 60.9895 54.3809 61.0147C54.442 61.04 54.4922 59.3907 54.4922 57.3497V53.6388L51.2604 51.8012C49.483 50.7907 47.9788 49.9432 47.9178 49.918C47.8568 49.8927 47.807 51.5405 47.807 53.5796ZM61.9364 50.0169C61.8637 50.084 60.4097 50.926 58.7052 51.8882L55.6064 53.6374V57.349C55.6064 59.3903 55.6589 61.04 55.7231 61.0147C55.7873 60.9895 57.2915 60.1413 59.0657 59.1296L62.2916 57.2905V53.5927C62.2916 51.559 62.2414 49.895 62.1802 49.895C62.1189 49.895 62.0091 49.9499 61.9364 50.0169ZM44.4644 64.6143C44.4644 64.8741 44.3715 64.8894 42.7931 64.8894H41.1218V67.6407V70.3919H42.7931C44.3715 70.3919 44.4644 70.4072 44.4644 70.667C44.4644 70.9269 44.5573 70.9422 46.1357 70.9422C47.7141 70.9422 47.807 70.9269 47.807 70.667C47.807 70.3947 47.8999 70.3919 57.0678 70.3919H66.3287L69.0454 69.0523C70.5397 68.3155 71.7623 67.6803 71.7623 67.6407C71.7623 67.601 70.5397 66.9658 69.0454 66.229L66.3287 64.8894H57.0678C47.8999 64.8894 47.807 64.8866 47.807 64.6143C47.807 64.3544 47.7141 64.3391 46.1357 64.3391C44.5573 64.3391 44.4644 64.3544 44.4644 64.6143ZM45.5786 67.6407V69.8417H46.1357H46.6928V67.6407V65.4396H46.1357H45.5786V67.6407ZM42.236 67.6407V69.2914H43.3502H44.4644V67.6407V65.9899H43.3502H42.236V67.6407ZM47.807 66.5401V67.0904H56.7206H65.6342V66.5401V65.9899H56.7206H47.807V66.5401ZM66.7484 67.6407C66.7484 68.3216 66.7787 68.8787 66.8159 68.8787C66.9585 68.8787 69.2553 67.713 69.2553 67.6407C69.2553 67.5683 66.9585 66.4026 66.8159 66.4026C66.7787 66.4026 66.7484 66.9597 66.7484 67.6407ZM47.807 68.7412V69.2914H56.7206H65.6342V68.7412V68.1909H56.7206H47.807V68.7412Z" fill="white"/>
<defs>
<linearGradient id="paint0_linear_836_2348" x1="60" y1="0" x2="60" y2="120" gradientUnits="userSpaceOnUse">
<stop stop-color="#646BD5" stop-opacity="0.7"/>
<stop offset="1" stop-color="#1F224E"/>
</linearGradient>
</defs>
</svg>
