<svg width="120" height="120" viewBox="0 0 120 120" fill="none" xmlns="http://www.w3.org/2000/svg">
<circle cx="60" cy="60" r="60" fill="url(#paint0_linear_836_2361)" fill-opacity="0.6"/>
<circle cx="60" cy="60" r="51.25" fill="#34386F" stroke="white" stroke-width="1.5"/>
<path fill-rule="evenodd" clip-rule="evenodd" d="M68.1572 38.1265C67.7248 38.2752 67.3493 38.5843 67.1485 38.9566C66.9814 39.2665 66.9668 40.1064 67.1237 40.3892C67.2505 40.6179 68.7261 42.1499 73.358 46.862C75.09 48.6241 76.8023 50.3889 77.1628 50.7837C77.5234 51.1787 78.0062 51.6234 78.2357 51.772C79.361 52.5014 80.8867 51.6943 80.8867 50.3696C80.8867 49.9077 80.6625 49.529 79.9641 48.8115C77.7997 46.5875 76.2733 45.0243 75.3755 44.1122C74.8071 43.5348 73.2693 41.9705 71.958 40.6359C70.0036 38.6467 69.5048 38.1894 69.191 38.0987C68.7171 37.9617 68.6294 37.964 68.1572 38.1265ZM65.6955 41.3969C65.2608 41.6734 65.0433 42.0617 65.0426 42.5625C65.0417 43.1633 64.9134 43.0189 70.4419 48.6419C71.3822 49.5981 72.7538 50.9959 73.4901 51.748C74.2264 52.5001 74.9629 53.1943 75.1268 53.2907C75.9458 53.7728 77.0525 53.2469 77.2118 52.3001C77.2751 51.923 77.4234 52.0857 71.8325 46.3949C70.2899 44.8247 68.5223 43.0172 67.9044 42.3783C66.8215 41.2585 66.7666 41.2167 66.379 41.2173C66.1512 41.2176 65.8549 41.2955 65.6955 41.3969ZM63.1465 46.1774C62.0509 47.13 60.8003 48.2318 60.3672 48.6258C59.9342 49.0199 59.0042 49.8385 58.3005 50.4449C57.5969 51.0514 56.915 51.6578 56.7851 51.7923L56.5492 52.037L57.3264 52.8646C57.7539 53.3198 59.0559 54.6507 60.2196 55.8221C61.3834 56.9936 62.6421 58.2782 63.0169 58.677C63.3915 59.0757 64.1483 59.8621 64.6986 60.4247L65.6989 61.4473L69.8237 57.8286C72.0923 55.8382 74.0537 54.1109 74.1825 53.9901L74.4165 53.7706L69.8565 49.1079C67.3484 46.5436 65.2608 44.4454 65.2174 44.4454C65.1739 44.4454 64.242 45.2248 63.1465 46.1774ZM54.0655 52.0422C53.6078 52.2607 53.3148 52.6789 53.3015 53.1321C53.2932 53.4111 53.4458 53.6065 54.6118 54.8106C56.3039 56.5577 58.7628 59.069 60.2688 60.5879C60.9184 61.2429 61.9737 62.3231 62.6139 62.9883C63.8984 64.3226 64.0576 64.3996 64.723 64.0081C65.4189 63.5987 65.6356 62.7543 65.2137 62.096C65.0165 61.7885 62.4171 59.0873 59.3782 56.032C58.78 55.4307 57.6827 54.3127 56.9396 53.5475C55.2512 51.809 54.9184 51.6348 54.0655 52.0422ZM50.9195 53.5114C50.1019 53.7968 49.5744 54.6966 49.7841 55.4482C49.9416 56.0124 49.536 55.5807 57.4602 63.6213C58.6218 64.7999 59.8618 66.0635 60.2158 66.4291C61.0848 67.3267 61.248 67.4249 61.873 67.4256C62.4568 67.4263 62.8006 67.2861 63.1904 66.8886C63.6794 66.39 63.8036 65.6834 63.5015 65.1186C63.4122 64.9515 62.6039 64.0665 61.7055 63.1518C60.8071 62.2372 58.3673 59.7438 56.2838 57.6108C54.2003 55.4779 52.383 53.6766 52.2454 53.6079C51.8296 53.4004 51.3395 53.3647 50.9195 53.5114ZM70.7648 58.0195C68.5945 59.9187 68.7966 59.6829 69.0824 59.9822C69.3815 60.2955 70.0142 60.5841 70.4079 60.5869C70.653 60.5886 70.9088 60.4035 71.8595 59.5366L73.0135 58.4842V57.8599C73.0135 57.3371 72.9728 57.1842 72.7624 56.9181C72.6244 56.7435 72.4805 56.603 72.4426 56.6059C72.4048 56.6089 71.6498 57.245 70.7648 58.0195ZM72.3504 60.1224L71.6421 60.7741L72.221 61.4771C73.0224 62.4502 74.9539 64.6433 75.9135 65.6694C76.353 66.1395 76.8383 66.6736 76.9918 66.8564C77.4664 67.4216 80.1826 70.2424 83.9867 74.121C85.9894 76.163 88.4916 78.7284 89.5471 79.8219C92.3445 82.7201 92.5198 82.8822 92.9365 82.9577C93.9267 83.1369 95.0112 82.0907 94.8026 81.1576C94.7422 80.8881 94.1314 80.2436 87.6866 73.6503C80.7333 66.5368 76.2652 62.1733 73.8481 60.1359L73.0588 59.4706L72.3504 60.1224ZM42.751 71.8827C42.3046 71.9866 42.0802 72.1269 41.6846 72.5494C40.9976 73.2832 39.4779 73.2189 57.5132 73.2189C71.8539 73.2189 73.7024 73.2026 73.7024 73.0762C73.7024 72.8151 72.7936 72.0103 72.3738 71.8994C71.9246 71.7809 43.2579 71.7647 42.751 71.8827ZM41.2256 74.4531V74.9282H57.5678H73.9101L73.88 74.4771L73.85 74.0261L57.5378 74.0021L41.2256 73.978V74.4531ZM37.5096 75.9317C36.9508 76.2004 36.5214 76.6217 36.1825 77.2337C35.9695 77.6183 35.9592 77.7439 35.9302 80.3173L35.9 83H57.5132H79.1264L79.0962 80.3173C79.0673 77.7439 79.0569 77.6183 78.844 77.2337C78.505 76.6217 78.0756 76.2004 77.5168 75.9317L77.0098 75.6879H57.5132H38.0166L37.5096 75.9317Z" fill="white"/>
<path d="M35.3362 56.8934L28.1486 51.584L26.6494 53.2765L35.3362 60.2785L48.1863 45.771L46.6872 44.0785L35.3362 56.8934Z" fill="white"/>
<path fill-rule="evenodd" clip-rule="evenodd" d="M46.6872 43.3998L48.7875 45.771L35.3882 60.8984L26 53.331L28.0848 50.9773L35.2724 56.2868L46.6872 43.3998ZM46.6872 44.7571L35.4 57.5L28.2124 52.1906L27.2989 53.222L35.2842 59.6585L47.5852 45.771L46.6872 44.7571Z" fill="white"/>
<defs>
<linearGradient id="paint0_linear_836_2361" x1="60" y1="0" x2="60" y2="120" gradientUnits="userSpaceOnUse">
<stop stop-color="#646BD5" stop-opacity="0.7"/>
<stop offset="1" stop-color="#1F224E"/>
</linearGradient>
</defs>
</svg>
