<svg width="73" height="75" viewBox="0 0 73 75" fill="none" xmlns="http://www.w3.org/2000/svg">
<g clip-path="url(#clip0_223_110)">
<path fill-rule="evenodd" clip-rule="evenodd" d="M57.2356 16.1457L56.4348 16.1227H49.9905C48.5107 11.9902 45.232 8.68367 41.077 7.13507V0H30.3268V7.18382C26.2356 8.74963 23.0033 12.0333 21.5352 16.1227H15.0589L14.8326 16.1313H14.6498C6.57487 16.2719 0 22.8764 0 30.866C0 37.9782 5.12991 44.0665 12.198 45.357L12.6159 45.423V51.6834H30.3268V55.6581H41.077V51.6834H59.0142V45.3943C66.1085 44.2758 71.5605 38.1875 71.5605 30.866C71.5605 22.9137 65.2641 16.4525 57.2356 16.1457Z" fill="#D72A2E"/>
<path fill-rule="evenodd" clip-rule="evenodd" d="M72.5267 57.6382C72.5267 57.6382 72.3064 57.5493 71.9152 57.3916L71.1906 57.1421C70.9124 57.0533 70.5907 56.9673 70.2342 56.8784C69.8836 56.8038 69.4923 56.7608 69.0895 56.7493C68.6663 56.7895 68.2287 56.8669 67.765 56.9673C64.038 57.7127 58.8735 58.7592 55.0248 59.5305L54.135 59.7111L53.2975 59.8172C52.7642 59.8 52.2889 59.6939 51.8542 59.5305C51.4397 59.2983 51.0659 59.0689 50.7587 58.8596C50.153 58.355 49.8052 58.0424 49.8052 58.0424C49.8052 58.0424 49.7994 57.8446 49.7965 57.5292C49.7936 57.2138 49.782 56.801 49.7704 56.3049L49.7646 55.4735C49.7646 55.1695 49.7704 54.8455 49.7762 54.5158C49.7762 54.1804 49.782 53.8707 49.7878 53.5725L49.7965 52.807C49.7994 52.354 49.811 51.9784 49.8168 51.7146L49.8226 51.2817C49.8226 51.2817 50.1617 51.6143 50.7732 52.1848C51.0775 52.4371 51.4455 52.7353 51.8658 53.0134C52.2889 53.2887 52.7758 53.4779 53.2975 53.5582L54.135 53.475L55.0248 53.303C58.8735 52.526 64.038 51.4852 67.765 50.7398C68.2287 50.6394 68.6663 50.5706 69.0895 50.5391C69.5039 50.5448 69.8894 50.5849 70.2458 50.6451C70.5965 50.734 70.9182 50.8258 71.1964 50.9319L71.921 51.2157C72.3209 51.3619 72.5383 51.4451 72.5383 51.4451V53.0736L72.5325 54.576L72.5267 55.3444V57.6382Z" fill="#FFFFFE"/>
<path fill-rule="evenodd" clip-rule="evenodd" d="M72.581 57.7555L72.8838 57.0503C72.8809 57.0503 72.6567 56.9572 72.2606 56.8077L72.2461 56.8021L71.5006 56.5482L71.4773 56.5425C71.1745 56.4466 70.8396 56.3592 70.4698 56.2689L70.4494 56.2633C70.033 56.1758 69.5962 56.1307 69.1419 56.1222H69.0982L69.0546 56.125C68.5828 56.1645 68.1111 56.252 67.6335 56.3479C63.8975 57.0842 58.7083 58.111 54.8383 58.8698L53.9705 59.0419L53.1639 59.1435L53.26 59.8995L53.2891 59.1378C52.8378 59.1237 52.4534 59.0391 52.0952 58.9065L51.8099 59.6174L52.1971 58.9516C51.7953 58.7316 51.4371 58.5172 51.1576 58.331L50.7091 58.9573L51.2129 58.3733C50.6159 57.8853 50.2869 57.5919 50.2869 57.5919L49.7511 58.1533L50.5402 58.1307C50.5402 58.1307 50.5344 57.9389 50.5257 57.6342C50.5257 57.3098 50.5082 56.9093 50.5024 56.4269L49.7161 56.4438L50.5024 56.4382L50.4966 55.6201C50.4966 55.338 50.5024 55.0248 50.5024 54.6976V54.6835C50.5024 54.3619 50.5082 54.0601 50.514 53.7695L50.5315 53.0191V53.0079C50.5344 52.5706 50.5461 52.2123 50.549 51.9331L50.5548 51.5127L49.7686 51.5015L49.2153 52.0431C49.2211 52.0431 49.5705 52.3788 50.1908 52.9458L50.1966 52.9514L50.2112 52.9627C50.5315 53.2279 50.9246 53.541 51.3876 53.84C51.9059 54.1701 52.5029 54.4014 53.1435 54.4945L53.2455 54.5058L54.1802 54.4127H54.2151L55.147 54.2378H55.1557C59.0228 53.4705 64.209 52.4493 67.9509 51.713H67.9568C68.4023 51.6199 68.81 51.5579 69.1798 51.5353L69.1274 50.7708L69.1157 51.5353C69.4972 51.541 69.8408 51.5748 70.1582 51.6256L70.2892 50.8752L70.097 51.6143C70.4377 51.6961 70.7289 51.7807 70.9677 51.8682L71.2444 51.1573L70.959 51.8654L71.687 52.1418C72.0918 52.297 72.3101 52.3731 72.3131 52.3788L72.5926 51.6623L71.8064 51.6679L71.8093 52.1531V53.2646L71.8035 54.7371L71.7976 55.4931V57.7555H72.581H73.3701V55.4988L73.3759 54.7484L73.3818 53.2674V52.1531L73.3788 51.6594L73.3759 51.1347L72.8692 50.9514C72.8692 50.9514 72.6538 50.8696 72.2577 50.7257L71.5356 50.4492L71.5268 50.4464C71.1978 50.3251 70.8512 50.2292 70.4872 50.1361L70.461 50.1333L70.4261 50.1277C70.0272 50.0543 69.5962 50.0176 69.1361 50.012H69.1012L69.072 50.0148C68.6003 50.043 68.1227 50.122 67.6277 50.2236L67.7966 50.9683L67.6393 50.2207C63.8975 50.957 58.7083 51.981 54.8383 52.7427L54.9956 53.4902L54.847 52.7427L53.9822 52.9063L53.1814 52.9853L53.26 53.7413L53.3794 52.9853C52.9659 52.9289 52.5844 52.7822 52.2583 52.5734C51.871 52.3224 51.5274 52.0544 51.242 51.8118L50.7237 52.3901L51.2653 51.8287C50.6567 51.2814 50.3247 50.9627 50.3218 50.957L49.0056 49.696L48.9765 51.9161C48.9736 52.17 48.9619 52.5396 48.959 53.0022H49.7424L48.959 52.9909L48.9445 53.7413C48.9386 54.0319 48.9328 54.345 48.9328 54.6835H49.722L48.9328 54.6722C48.927 54.9966 48.9212 55.3154 48.9212 55.6257L48.927 56.4494V56.4692V56.4607C48.9386 56.9516 48.9503 57.3606 48.9561 57.654C48.9619 57.9756 48.9678 58.1702 48.9678 58.1702L48.9794 58.4946L49.224 58.7118C49.2298 58.7203 49.5851 59.0363 50.2054 59.5384L50.2287 59.5581L50.2578 59.5807C50.5956 59.8064 50.9858 60.0433 51.4284 60.2803L51.4808 60.3085L51.5332 60.3283C52.0399 60.5173 52.6077 60.6386 53.2396 60.6611H53.3008L54.2006 60.5483L54.2268 60.5455L55.1557 60.3621C59.0228 59.6033 64.209 58.5793 67.9509 57.8402C68.411 57.7471 68.8274 57.6737 69.1914 57.6427L69.1274 56.881L69.1099 57.6455C69.4739 57.654 69.8175 57.6907 70.1145 57.7527L70.2776 57.008L70.0941 57.7471C70.4377 57.8289 70.7377 57.9107 70.9998 57.9925L71.2385 57.2675L70.9794 57.9869L71.7045 58.2323L71.9665 57.5129L71.6724 58.2182C72.0655 58.3733 72.2839 58.4608 72.2868 58.4608L73.3701 58.8924V57.7555H72.581Z" fill="#0A0B09"/>
<path fill-rule="evenodd" clip-rule="evenodd" d="M72.5383 64.6689C72.5383 64.6689 72.2939 64.5632 71.8662 64.387L71.0778 64.1286C70.7811 64.0434 70.4349 63.9876 70.0479 63.9436C69.6668 63.9377 69.2421 63.9436 68.794 63.9788C68.3547 64.0434 67.8718 64.1462 67.3772 64.249C63.377 65.1152 57.8902 66.2956 54.1052 67.106L53.2644 67.2764C52.735 67.3615 52.2578 67.4085 51.8389 67.4085C51.4142 67.3762 51.0592 67.294 50.7741 67.1795C50.2039 66.8359 49.8839 66.5892 49.8839 66.5892C49.8839 66.5892 49.8839 66.3984 49.8897 66.0578L49.8955 65.4264C49.8955 65.1651 49.9101 64.8627 49.9101 64.525C49.9159 64.1579 49.9217 63.785 49.9159 63.4297C49.9159 63.0568 49.9101 62.7162 49.9043 62.3844C49.8897 62.0291 49.8839 61.6973 49.8723 61.3743L49.8403 60.4992C49.8141 59.9766 49.7966 59.5332 49.785 59.1984C49.7704 58.8637 49.7646 58.664 49.7646 58.664C49.7646 58.664 50.105 59.0076 50.7189 59.5449C51.0272 59.7652 51.3967 60.0206 51.8215 60.2408C52.2491 60.4376 52.7291 60.5492 53.2644 60.5668L54.1052 60.4435L54.9955 60.2643C58.8502 59.4363 64.0316 58.3205 67.7642 57.5218C68.2297 57.419 68.669 57.3338 69.0879 57.2869C69.4981 57.3045 69.8908 57.3544 70.237 57.419C70.6007 57.5159 70.9236 57.6069 71.1971 57.7038L71.9244 57.974C72.3172 58.1355 72.5383 58.2353 72.5383 58.2353V64.6689Z" fill="#1C67A3"/>
<path fill-rule="evenodd" clip-rule="evenodd" d="M72.5915 64.688L72.9064 63.9533C72.9006 63.9504 72.6469 63.8407 72.2036 63.663L72.1891 63.6571L71.3784 63.3816L71.3521 63.3756L71.3317 63.3667C70.9789 63.2749 70.5968 63.2068 70.1769 63.1594L70.1419 63.1534H69.8416C69.515 63.1534 69.1592 63.1594 68.7801 63.189L68.748 63.1949L68.7188 63.2008C68.2464 63.2749 67.7507 63.3786 67.2491 63.4852C63.2394 64.3562 57.7483 65.5442 53.9544 66.3648L54.1148 67.1469L53.9661 66.3648L53.1204 66.5337L53.2721 67.3187L53.1525 66.5277C52.6451 66.6077 52.2018 66.6492 51.8431 66.6492V67.452L51.9044 66.6492C51.5457 66.6255 51.2687 66.5574 51.0587 66.4714L50.7758 67.221L51.1754 66.5277C50.91 66.3707 50.6971 66.2315 50.563 66.1337L50.3617 65.9886L49.8835 66.6255H50.6738C50.6738 66.6255 50.6738 66.4418 50.6796 66.1011L50.6825 65.4553C50.6854 65.2124 50.6942 64.9013 50.6942 64.5429H49.9097L50.6942 64.5547C50.6971 64.294 50.7029 64.0215 50.7029 63.7578V63.426L49.9156 63.4378H50.7029C50.7029 63.0557 50.6942 62.7031 50.6884 62.3684V62.4128V62.3565C50.6796 62.004 50.6738 61.6722 50.6621 61.3315L50.6242 60.4516V60.4398C50.595 59.9213 50.5834 59.474 50.5688 59.1422C50.56 58.8104 50.5542 58.6119 50.5542 58.606L49.7639 58.6297L49.2099 59.1955C49.2215 59.2074 49.5773 59.5718 50.2072 60.1258L50.2305 60.1465L50.2597 60.1643C50.5834 60.4042 50.9887 60.6827 51.467 60.9316L51.4903 60.9434L51.502 60.9493C52.0269 61.1923 52.6159 61.3256 53.2429 61.3493L53.3187 61.3522L54.2344 61.216L54.2519 61.21L55.1617 61.0293L55.1705 61.0264C59.0373 60.1909 64.2309 59.0652 67.9665 58.2594C68.4272 58.1587 68.8442 58.0787 69.2088 58.0401L69.1329 57.2403L69.1038 58.0431C69.477 58.0579 69.8328 58.1024 70.1419 58.1616L70.2848 57.3736L70.0865 58.1468C70.4452 58.2416 70.7456 58.3275 70.9905 58.4164L71.2471 57.6609L70.9789 58.4105L71.705 58.683L71.9762 57.9335L71.6729 58.6712C72.0666 58.8371 72.2882 58.9319 72.2882 58.9319L72.5915 58.1972H71.807V64.688H72.5915H73.3818V57.6669L72.9006 57.4595C72.9006 57.4595 72.676 57.3617 72.2795 57.1958L72.2649 57.1869L71.5213 56.9114L71.5096 56.9055C71.1946 56.7959 70.8593 56.7011 70.4889 56.5974L70.4598 56.5944L70.4335 56.5885C70.0457 56.5115 69.6199 56.4611 69.1592 56.4434H69.1038L69.0484 56.4493C68.5876 56.4937 68.1152 56.5915 67.637 56.6922C63.9043 57.501 58.7077 58.6238 54.8439 59.4622L55.0072 60.2443L54.8497 59.4562L53.9836 59.6369L53.1583 59.7584L53.2721 60.5494L53.3012 59.7525C52.8521 59.7347 52.4789 59.6429 52.1523 59.4918L51.8256 60.2206L52.1843 59.5096C51.8082 59.314 51.4728 59.08 51.187 58.8726L50.7204 59.5184L51.2337 58.9111C50.9362 58.6504 50.7088 58.4371 50.5513 58.289L50.3238 58.0668L48.9212 56.6448L48.9795 58.6563C48.9795 58.6563 48.9853 58.8608 48.9941 59.1955C49.0057 59.5362 49.0232 59.9954 49.0553 60.5287L49.8398 60.4813L49.0553 60.5168L49.0874 61.3967C49.0991 61.7077 49.1049 62.0425 49.1136 62.4069L49.9039 62.3832L49.1136 62.395C49.1195 62.7328 49.1253 63.0734 49.1253 63.4378V63.7578L49.1195 64.531V64.5429C49.1195 64.8628 49.1107 65.162 49.1078 65.4435L49.1049 66.0834L49.8893 66.0893L49.1049 66.0745C49.0991 66.424 49.0991 66.6196 49.0991 66.6255V67.0195L49.4053 67.2565C49.4257 67.2773 49.7698 67.5439 50.3734 67.9083L50.4288 67.9409L50.4871 67.9616C50.8575 68.1127 51.2949 68.2104 51.7877 68.246L51.814 68.2519H51.8431C52.3156 68.2519 52.8346 68.1986 53.3975 68.1068L53.4149 68.1008L54.2694 67.9349L54.281 67.932C58.0749 67.1113 63.5689 65.9204 67.5786 65.0465C68.0715 64.9458 68.5439 64.845 68.958 64.7799L68.8384 63.9918L68.9026 64.7858C69.2292 64.7621 69.5441 64.7502 69.8416 64.7502L70.0836 64.7562L70.0953 63.9563L70.0078 64.7502C70.3665 64.7917 70.6785 64.848 70.9293 64.9132L71.1276 64.1429L70.8826 64.9013L71.6671 65.162L71.9179 64.4036L71.6233 65.1502C72.052 65.322 72.2824 65.4227 72.2824 65.4227L73.3818 65.9026V64.688H72.5915Z" fill="#0A0B09"/>
<path fill-rule="evenodd" clip-rule="evenodd" d="M72.5383 71.3805C72.5383 71.3805 72.2754 71.2937 71.8022 71.1202C71.5744 71.0335 71.2852 70.9323 70.9523 70.8253C70.6164 70.7241 70.2454 70.6373 69.8307 70.5882C69.4159 70.565 68.9661 70.5997 68.4842 70.6951C67.9993 70.7964 67.4882 70.9091 66.9478 71.019C62.6542 71.927 56.8564 73.1502 53.1645 73.9368C52.627 74.0553 52.1363 74.1392 51.704 74.1565C51.298 74.1016 50.9388 73.9917 50.6496 73.8616C50.0947 73.4799 49.7821 73.2023 49.7821 73.2023C49.7821 73.2023 49.7821 72.9767 49.7821 72.6152C49.7821 72.2653 49.7821 71.8056 49.7763 71.2764V69.683L49.7705 68.9543V68.2835C49.7646 67.8439 49.7646 67.442 49.7646 67.1441L49.7705 66.6641C49.7705 66.6641 50.0917 66.907 50.6613 67.2367C50.9563 67.3523 51.3127 67.4304 51.7274 67.4593C52.1538 67.4593 52.6329 67.4246 53.1645 67.3292L54.0086 67.1644C57.8202 66.3634 63.3289 65.2009 67.3509 64.3478C67.8474 64.2437 68.3323 64.1454 68.7792 64.0818C69.226 64.0355 69.6466 64.0268 70.038 64.0413C70.4207 64.076 70.7682 64.1454 71.072 64.2177L71.8636 64.4866C72.2929 64.6515 72.5383 64.7527 72.5383 64.7527V71.3805Z" fill="#D72A2E"/>
<path fill-rule="evenodd" clip-rule="evenodd" d="M72.5866 71.4007L72.839 70.6528C72.839 70.6528 72.5866 70.5652 72.1231 70.3987L71.8473 71.1378L72.1378 70.4016C71.8884 70.3081 71.5803 70.2 71.2341 70.0861C70.8556 69.9721 70.4331 69.8699 69.9607 69.8173L69.9343 69.8144H69.9109L69.6145 69.8056C69.2126 69.8056 68.7871 69.8465 68.3558 69.9371H68.347C67.86 70.0422 67.3436 70.1533 66.8096 70.2643C62.4938 71.1816 56.6698 72.4145 52.9642 73.212C52.4331 73.3289 51.9784 73.4019 51.6263 73.4194L51.6586 74.2053L51.7701 73.4253C51.4356 73.3785 51.1451 73.288 50.9309 73.1916L50.5994 73.9073L51.0512 73.2588L50.4498 72.8176L50.306 72.6949L50.2679 72.6599L49.728 73.2412H50.5231C50.5231 73.2412 50.5231 73.0134 50.5231 72.6482C50.5231 72.2947 50.5231 71.8272 50.5173 71.2897L49.7222 71.2955H50.5173V69.6858L50.5085 68.9408L49.7163 68.9496H50.5085V68.2718C50.5055 67.8278 50.5055 67.4217 50.5055 67.1208L50.5085 66.6417L49.7163 66.6358L49.2351 67.261C49.2527 67.2785 49.6019 67.5415 50.2092 67.895L50.262 67.9242L50.3177 67.9475C50.708 68.1024 51.1393 68.19 51.6204 68.2309H51.682C52.1574 68.2309 52.6855 68.1871 53.2635 68.0849L53.2811 68.0819L54.1231 67.9183L54.1407 67.9125C57.9696 67.1032 63.5001 65.9259 67.5402 65.067C68.036 64.9618 68.5055 64.8654 68.9192 64.8128L68.8106 64.0269L68.9016 64.8157C69.195 64.7807 69.4737 64.769 69.7407 64.769L70.037 64.7748L70.0752 63.986L70.0018 64.7719C70.3334 64.8011 70.6385 64.8596 70.9319 64.9326L71.1138 64.1643L70.8556 64.9122L71.6507 65.1809L71.9089 64.436L71.6184 65.1722C72.0527 65.3387 72.2903 65.4351 72.2903 65.4351L72.5866 64.7047H71.7974V71.4007H72.5866H73.3818V64.173L72.8888 63.9744C72.8859 63.9714 72.6336 63.8721 72.1906 63.6997L72.1788 63.6939L71.372 63.4164L71.3397 63.4047L71.3016 63.3988C70.97 63.32 70.5827 63.2382 70.1456 63.2002L70.128 63.1972H70.1074L69.7407 63.1914C69.4179 63.1914 69.0776 63.206 68.7226 63.244L68.7079 63.2498C68.215 63.3141 67.7104 63.4164 67.2116 63.5245C63.1656 64.3863 57.641 65.5578 53.8092 66.3729L53.9735 67.1412L53.8209 66.37L52.9759 66.5365L53.1256 67.3077L52.9935 66.5306C52.4948 66.6183 52.0605 66.6533 51.682 66.6533V67.4392L51.7495 66.6563C51.3887 66.627 51.1041 66.5599 50.9045 66.481L50.6111 67.2143L51.0102 66.5306C50.7432 66.3787 50.5319 66.2414 50.394 66.1479L50.2385 66.0398L50.1975 66.0106L48.9329 65.0436L48.9212 67.1149C48.9212 67.4217 48.9212 67.8307 48.9241 68.2718V68.9496L48.9329 69.6946L49.7222 69.6858H48.9329V71.3248V71.3072C48.9388 71.836 48.9388 72.2947 48.9388 72.6482C48.9388 73.0134 48.9388 73.2412 48.9388 73.2412V73.5889L49.197 73.8226C49.2175 73.8401 49.5549 74.1469 50.1534 74.5588L50.2092 74.5939L50.2708 74.6231C50.6317 74.7896 51.063 74.9211 51.55 74.9883L51.6263 75L51.6997 74.997C52.2072 74.9707 52.7353 74.8773 53.2987 74.7516C57.0013 73.9599 62.8224 72.7241 67.1383 71.8039C67.6752 71.6958 68.1915 71.5848 68.6786 71.4825H68.6669C69.0101 71.4153 69.3241 71.3832 69.6145 71.3832L69.8228 71.389L69.8668 70.6002L69.773 71.3861C70.1397 71.427 70.4624 71.503 70.7588 71.5965C71.0756 71.6899 71.3544 71.7922 71.5656 71.874L71.5774 71.8769C72.0585 72.0551 72.3285 72.1457 72.3402 72.1457L73.3818 72.4963V71.4007H72.5866Z" fill="#0A0B09"/>
<path fill-rule="evenodd" clip-rule="evenodd" d="M73.373 57.4226C73.373 57.4226 73.1481 57.3245 72.7304 57.1478L71.9885 56.887C71.6935 56.786 71.3577 56.6934 70.9984 56.6121C70.6333 56.5308 70.2273 56.4775 69.798 56.4663C69.3657 56.5083 68.9101 56.5953 68.4252 56.6934C64.5728 57.518 59.2161 58.6566 55.2293 59.5036L54.3005 59.6999L53.4331 59.8177C52.8898 59.8008 52.3845 59.6887 51.9464 59.5036C51.5054 59.2596 51.1169 59.0072 50.8132 58.7744C50.1764 58.2387 49.823 57.8882 49.823 57.8882C49.823 57.8882 49.8172 57.675 49.8055 57.3188C49.7997 56.9851 49.7938 56.5196 49.7705 56.0204C49.7705 55.7511 49.7646 55.451 49.7646 55.1369C49.7646 54.792 49.7646 54.4358 49.7646 54.06C49.7705 53.7151 49.7821 53.3645 49.7821 53.0308C49.7938 52.7167 49.7938 52.4222 49.7938 52.1642C49.8055 51.6481 49.8172 51.2387 49.8172 50.9442L49.8289 50.4758C49.8289 50.4758 50.1823 50.8517 50.8132 51.4743C51.1286 51.7631 51.5054 52.0912 51.9464 52.4222C52.3845 52.6914 52.8898 52.9046 53.4331 52.9578L54.3005 52.8877L55.2293 52.6914C59.2161 51.8529 64.5728 50.7142 68.4252 49.8981C68.9101 49.7859 69.3657 49.7102 69.8009 49.699C70.2273 49.685 70.6333 49.7214 71.0042 49.7944C71.3693 49.8953 71.6994 50.0075 72.0002 50.1197L72.745 50.4282C73.1539 50.6049 73.3817 50.689 73.3817 50.689C73.3817 50.689 73.3817 50.8937 73.3817 51.205C73.3817 51.5247 73.3817 51.951 73.3817 52.4502V53.2383L73.373 54.9294V57.4226Z" fill="#FFFFFE"/>
<path fill-rule="evenodd" clip-rule="evenodd" d="M73.3817 64.4347C73.3817 64.4347 73.1357 64.3247 72.6817 64.1403L71.8674 63.8578C71.5511 63.7627 71.1937 63.6943 70.7983 63.6408C70.3941 63.611 69.9664 63.6289 69.4948 63.6913C69.0379 63.7508 68.54 63.8578 68.0186 63.9679C63.8681 64.9016 58.1916 66.1833 54.2549 67.0635L53.3849 67.2538C52.8401 67.346 52.3393 67.3995 51.8999 67.4084C51.4693 67.3876 51.0973 67.2984 50.7986 67.1646C50.2098 66.781 49.8789 66.5044 49.8789 66.5044C49.8789 66.5044 49.8847 66.3052 49.8847 65.9483C49.8847 65.5975 49.8906 65.0681 49.9052 64.3426C49.9111 63.9619 49.9111 63.5575 49.9111 63.1531C49.9111 62.7576 49.9111 62.3621 49.9052 61.9963C49.8964 61.6186 49.8847 61.2499 49.8789 60.893C49.8671 60.5451 49.8554 60.218 49.8437 59.9236C49.8203 59.3437 49.7998 58.862 49.791 58.5022C49.7763 58.1483 49.7646 57.9253 49.7646 57.9253C49.7646 57.9253 50.119 58.3089 50.7576 58.8679C51.0622 59.1088 51.4518 59.3854 51.8941 59.6381C52.3334 59.8433 52.8401 59.9534 53.3849 59.9771L54.2549 59.8493L55.1863 59.6381C59.1845 58.743 64.5564 57.5357 68.4199 56.6644C68.9061 56.5603 69.363 56.4622 69.7965 56.4444C70.2271 56.4355 70.6343 56.486 71.0004 56.5722C71.3607 56.6585 71.6975 56.7685 71.9933 56.8637L72.7373 57.1462C73.1562 57.3335 73.3817 57.4316 73.3817 57.4316V64.4347Z" fill="#1C67A3"/>
<path fill-rule="evenodd" clip-rule="evenodd" d="M72.5383 71.9695C72.5383 71.9695 72.28 71.8755 71.8032 71.6817C71.5704 71.5936 71.2781 71.4849 70.9545 71.3822C70.6168 71.2735 70.245 71.1795 69.8249 71.1061C69.4191 71.1061 68.965 71.159 68.4796 71.25C68 71.3469 67.4806 71.4673 66.9527 71.5877C62.6585 72.5685 56.8544 73.8929 53.1619 74.7416C52.6283 74.8679 52.1317 74.9618 51.7059 75C51.2887 74.9501 50.9283 74.8473 50.6445 74.7152C50.091 74.307 49.7816 74.0045 49.7816 74.0045C49.7816 74.0045 49.7845 73.7608 49.7845 73.3555C49.7845 72.9708 49.7845 72.4511 49.776 71.8931L49.7703 71.0151V68.6013C49.7646 68.1285 49.7646 67.7115 49.7646 67.3885V66.8804C49.7646 66.8804 50.0853 67.1477 50.6558 67.5323C50.9453 67.6586 51.3058 67.7526 51.723 67.7761C52.1487 67.7585 52.634 67.7115 53.1619 67.6146L54.0049 67.4266C57.8194 66.5574 63.3198 65.2918 67.3415 64.3697C67.8467 64.261 68.3292 64.1494 68.772 64.0819C69.2289 64.0349 69.6433 64.0232 70.035 64.0467C70.4181 64.0995 70.7644 64.1729 71.0709 64.261L71.8599 64.54C72.2999 64.7221 72.5383 64.8307 72.5383 64.8307V71.9695Z" fill="#D72A2E"/>
<path fill-rule="evenodd" clip-rule="evenodd" d="M57.1206 18.7319L56.3722 18.7059H48.2727C47.244 13.9326 43.5366 10.1533 38.8064 9.0235V2.46167H32.7267V9.05239C28.06 10.2168 24.4046 13.973 23.3904 18.7059H15.288L15.0713 18.7232H14.8401C8.02065 18.8301 2.53043 24.4009 2.53043 31.2488C2.53043 37.3916 6.94283 42.4972 12.7827 43.5692V38.3683C9.76885 37.4003 7.58432 34.5802 7.58432 31.2488C7.58432 27.1285 10.9334 23.7826 15.0626 23.7826L15.0828 23.8548V49.9085H20.4141V23.8548H22.6709V49.9085H27.9935V31.4308C29.3747 32.4999 30.9785 33.3031 32.7267 33.7394V53.9132H38.8064V33.7683C40.6875 33.3205 42.4068 32.4479 43.8574 31.269V49.9085H49.1858V23.7883H56.4473L56.9963 23.7941C60.9551 23.9877 64.1019 27.247 64.1019 31.2488C64.1019 35.3662 60.7817 38.7005 56.6698 38.7208V38.7237H51.3414V49.9085H56.6698V43.7743C63.5759 43.757 69.1644 38.1631 69.1644 31.2488C69.1644 24.4934 63.8187 18.989 57.1206 18.7319ZM32.7267 28.316C30.8253 27.4608 29.3372 25.8398 28.6581 23.8548H31.2212V18.7059H28.739C29.4499 16.8278 30.8947 15.2935 32.7267 14.4816V28.316ZM38.8064 28.3767V14.418C41.5197 15.568 43.4182 18.258 43.4182 21.3959C43.4182 24.528 41.5197 27.2209 38.8064 28.3767Z" fill="#FFFFFE"/>
<path fill-rule="evenodd" clip-rule="evenodd" d="M58.1063 49.6472C58.1063 49.6472 57.9232 49.5078 57.5802 49.3087C57.2518 49.101 56.746 48.9303 56.1095 48.862C55.7927 48.8876 55.4439 48.9531 55.0544 49.0185C46.3289 50.7624 21.2365 55.7836 10.6827 57.8945C10.2583 57.9827 9.85433 58.0481 9.48519 58.1306C9.10734 58.1306 8.75855 58.1107 8.44173 58.0766C8.12492 58.0424 7.82263 57.9998 7.55523 57.9315C7.03205 57.7921 6.6135 57.6641 6.33447 57.5645L5.9043 57.4137V50.4466C5.9043 50.4466 6.11938 50.5178 6.5263 50.6401L7.26457 50.8478C7.54651 50.9189 7.88367 50.9957 8.25571 51.0583C8.62485 51.1237 9.03758 51.1408 9.48519 51.1152C9.93862 51.0924 10.4182 51.0185 10.9356 50.9132C11.4442 50.8136 11.9994 50.7027 12.5778 50.586C25.8405 47.9346 54.2638 42.2477 54.2638 42.2477C54.2638 42.2477 54.5022 42.1965 54.8684 42.1282C55.223 42.0855 55.7171 42.0969 56.2054 42.1965C56.6995 42.3757 57.1995 42.6687 57.5744 43.0016C57.9494 43.4113 58.1993 43.7185 58.1993 43.7185L58.1935 44.1623C58.1935 44.4297 58.1819 44.791 58.1703 45.1779L58.1296 46.4581L58.1121 47.9744C58.1121 48.4979 58.1063 48.9246 58.1063 49.212V49.6472Z" fill="#FFFFFE"/>
<path fill-rule="evenodd" clip-rule="evenodd" d="M57.3277 49.647L57.795 49.03C57.7778 49.0185 57.5771 48.8635 57.213 48.6425L56.8087 49.3055L57.233 48.654C56.7628 48.3555 56.1664 48.169 55.4496 48.0829L55.3693 48.0714L55.2919 48.0829C54.922 48.1173 54.5579 48.1834 54.188 48.2494L54.1708 48.2522L54.1593 48.2551C45.5548 50.0115 20.8048 55.0796 10.3881 57.2091C9.9867 57.2923 9.59102 57.3641 9.20395 57.4473L9.36451 58.2049V57.4272C9.01758 57.4272 8.70505 57.41 8.40686 57.3784C8.12873 57.3526 7.86782 57.3095 7.64704 57.255L7.46067 58.0041L7.66998 57.2608C7.16248 57.1201 6.7668 56.9967 6.51448 56.9049L6.25643 57.6338L6.52595 56.9135L6.10447 56.7528L5.83208 57.4817H6.6091V50.4534H5.83208L5.6027 51.1938C5.6027 51.1938 5.81487 51.2627 6.21629 51.389L6.23062 51.3919L6.9589 51.6014L6.9675 51.6042L6.97611 51.6071C7.27716 51.6817 7.6241 51.7649 8.01118 51.8367H8.02265C8.32371 51.8884 8.64484 51.9113 8.9803 51.9113L9.41039 51.8998C9.90929 51.874 10.4168 51.7879 10.9444 51.6875C11.4547 51.5842 11.9966 51.4751 12.5758 51.3517C25.6504 48.677 53.6891 42.9372 53.6891 42.9372H53.6949C53.6949 42.9372 53.9214 42.8913 54.274 42.8253L54.1335 42.0619L54.231 42.831L54.5579 42.8138L55.2919 42.8884L55.4525 42.1308L55.1772 42.854C55.5758 43.0061 56.0087 43.2615 56.2868 43.5141L56.8029 42.943L56.2266 43.4595C56.585 43.8556 56.8144 44.1483 56.8144 44.1483L57.4194 43.6662L56.6481 43.6547L56.6424 44.1053C56.6395 44.3664 56.6309 44.7309 56.6194 45.1126L56.5965 45.7181L56.5736 46.4012L56.5564 47.9538V47.9595C56.5564 48.4818 56.5506 48.9066 56.5506 49.2079V49.647H57.3277H58.0989V49.2079C58.0989 48.9238 58.1047 48.4904 58.1047 47.9595H57.3334L58.1047 47.971L58.1133 47.1875L58.1247 46.4356L57.3506 46.4299L58.119 46.4557L58.1419 45.7755L58.1678 45.1671C58.1792 44.7711 58.1878 44.4009 58.1907 44.1196L58.1964 43.6719L58.1993 43.4022L58.0301 43.184C58.0187 43.1726 57.7663 42.854 57.3821 42.4264L57.3563 42.3977L57.3277 42.3661C56.866 41.9529 56.3012 41.6257 55.722 41.4019L55.6675 41.3846L55.6102 41.3732C55.2403 41.2957 54.8819 41.2612 54.5579 41.2612L54.0332 41.2957L54.0131 41.2985L53.9902 41.3014C53.6174 41.3674 53.3766 41.4219 53.3709 41.4219H53.3766C53.3766 41.4219 52.9436 41.508 52.1494 41.6745C46.6042 42.8081 23.7064 47.4946 12.2604 49.8364C11.6841 49.9569 11.1479 50.066 10.6404 50.1693C10.1501 50.264 9.71145 50.33 9.33011 50.353L8.9803 50.3645L8.27783 50.3099L8.15167 51.0704L8.2893 50.3128C7.94236 50.2468 7.6327 50.1779 7.36605 50.1062L7.17394 50.8581L7.38899 50.1119L6.66071 49.8995L6.44567 50.6486L6.67505 49.9081C6.27363 49.7819 6.06719 49.7187 6.06719 49.7187L5.06079 49.4002V58.0155L5.98691 58.3628L5.99838 58.3685C6.29657 58.4747 6.72379 58.6038 7.25996 58.7502L7.27143 58.7588H7.28003C7.58396 58.8334 7.91369 58.888 8.25203 58.9224C8.59896 58.9568 8.96597 58.9741 9.36451 58.9741H9.45053L9.52795 58.9568C9.87488 58.888 10.2734 58.8134 10.7035 58.7273C21.1144 56.5978 45.8644 51.5296 54.4719 49.7704L54.3171 49.0127L54.4461 49.7761C54.8389 49.7101 55.1744 49.647 55.4295 49.624L55.3579 48.8549L55.269 49.624C55.8109 49.6843 56.2094 49.8364 56.3929 49.9569L56.4015 49.9627L56.4101 49.9655L56.7571 50.1894L56.8574 50.2583L58.0989 51.2168V49.647H57.3277Z" fill="#0A0B09"/>
<path fill-rule="evenodd" clip-rule="evenodd" d="M57.3444 56.9852C57.3444 56.9852 57.1696 56.8431 56.8344 56.6064C56.505 56.3992 56.0179 56.195 55.3905 56.1003C55.0782 56.121 54.7316 56.1625 54.3505 56.2276C53.9752 56.3075 53.5598 56.3992 53.1186 56.488C43.6786 58.4857 20.9596 63.2771 10.8721 65.4109C10.4366 65.5085 10.0241 65.5914 9.63446 65.6594C9.24482 65.7216 8.88098 65.7305 8.54864 65.7157C8.21344 65.6831 7.90689 65.6417 7.62899 65.5855C7.07892 65.4612 6.65205 65.325 6.35123 65.2185L5.9043 65.0291V57.7576L6.32831 57.9234C6.60334 58.0181 7.0159 58.1453 7.53159 58.2933C7.79516 58.3584 8.09312 58.4058 8.40539 58.4442C8.71767 58.4857 9.06147 58.5034 9.43391 58.4916C9.79776 58.4265 10.196 58.3436 10.6143 58.2607C21.0169 56.0589 45.75 50.8384 54.3505 49.0124C54.7316 48.9472 55.0782 48.891 55.3905 48.8525C56.0179 48.9324 56.5164 49.1041 56.8459 49.2965C57.1782 49.5273 57.3559 49.6694 57.3559 49.6694C57.3559 49.6694 57.3559 50.2938 57.3501 51.1787L57.3444 51.9363C57.3444 52.2323 57.3444 52.5608 57.3387 52.9011C57.3387 53.2474 57.3387 53.6025 57.3329 53.9429C57.3329 54.2891 57.3329 54.6147 57.3387 54.9136C57.3387 55.538 57.3444 56.0589 57.3444 56.4111C57.3444 56.7751 57.3444 56.9852 57.3444 56.9852Z" fill="#1C67A3"/>
<path fill-rule="evenodd" clip-rule="evenodd" d="M57.4122 57.4224L57.889 56.8179C57.8775 56.8094 57.6908 56.6647 57.3432 56.4292L57.326 56.4121L57.3059 56.4008C56.8807 56.1511 56.3005 55.9184 55.5651 55.8134L55.4875 55.802L55.4099 55.8077C55.0652 55.8304 54.6918 55.873 54.281 55.9411H54.2637L54.2494 55.9468C53.8788 56.0234 53.4623 56.1085 53.0285 56.1936C43.5516 58.1091 20.7743 62.7033 10.6625 64.7493L10.6539 64.7521C10.2258 64.8429 9.82366 64.9195 9.44735 64.9819L8.75503 65.0302L8.51086 65.0245L8.485 65.7935L8.55969 65.0302C8.23795 64.9961 7.95356 64.9621 7.70651 64.9138L7.56288 65.6687L7.72949 64.9195C7.20954 64.8088 6.81024 64.6868 6.54021 64.5932L6.28167 65.3168L6.58043 64.6102L6.13229 64.4258L5.83354 65.1352H6.61203V58.163H5.83354L5.55776 58.8781L5.98579 59.0398L6.00302 59.0455L6.02026 59.0512C6.3104 59.1448 6.72981 59.2697 7.25838 59.4144L7.27561 59.4201L7.29285 59.4229C7.58873 59.4882 7.91334 59.5478 8.25806 59.5818L8.34137 58.8213L8.24657 59.5818C8.53097 59.6159 8.82972 59.6357 9.14859 59.6357L9.38989 59.6329L9.45022 59.6301L9.50193 59.6216C9.88974 59.5563 10.289 59.4768 10.697 59.4002L10.7084 59.3974C21.1448 57.2861 45.9416 52.2776 54.5654 50.5296L54.4102 49.7776L54.5395 50.5353C54.9158 50.47 55.2519 50.4218 55.5536 50.3821L55.453 49.6244L55.3582 50.3821C55.904 50.4502 56.3177 50.5977 56.5303 50.7141L56.9123 50.05L56.4757 50.6828C56.7946 50.9014 56.9612 51.0205 56.9612 51.0205L57.4237 50.4076L56.6481 50.4048C56.6481 50.4048 56.648 51.0035 56.6452 51.852L56.6394 52.5756C56.6394 52.865 56.6394 53.1743 56.6308 53.4865V53.5063C56.6308 53.8384 56.6308 54.1732 56.6279 54.4995C56.6279 54.8372 56.6279 55.1522 56.6308 55.4416C56.6308 56.0404 56.6394 56.5455 56.6394 56.8718C56.6394 57.2209 56.6394 57.4224 56.6394 57.4224H57.4122H58.1907C58.1907 57.4224 58.1907 57.2209 58.1907 56.8718C58.1907 56.5228 58.1821 56.029 58.1821 55.436C58.1792 55.1494 58.1792 54.8372 58.1792 54.5052C58.182 54.1789 58.1821 53.8384 58.1821 53.5063H57.4064L58.1821 53.5262C58.1907 53.1857 58.1907 52.865 58.1907 52.5813L58.1964 51.8605C58.1993 51.0092 58.1993 50.4133 58.1993 50.4133V50.0273L57.889 49.7947C57.8833 49.789 57.6966 49.6499 57.3547 49.4172L57.3289 49.4002L57.2944 49.386C56.8463 49.1335 56.266 48.9519 55.5536 48.8639L55.453 48.8525L55.3582 48.8639C55.0279 48.9036 54.6688 48.9575 54.281 49.0228L54.2695 49.0256L54.2523 49.0285C45.6314 50.7765 20.8346 55.785 10.3982 57.8962L10.5562 58.6454L10.4097 57.8934C9.98453 57.9729 9.59385 58.0523 9.24626 58.1119L9.37266 58.8667L9.35829 58.1006L9.14859 58.1034L8.43617 58.058H8.42468C8.14028 58.0296 7.876 57.9842 7.64619 57.9303L7.46521 58.6766L7.67779 57.936C7.16358 57.7969 6.75853 57.6749 6.49712 57.5926L6.25869 58.3219L6.53447 57.604L6.10931 57.4479L5.06079 57.0563V65.6488L5.98866 66.0262L6.0059 66.0319L6.02888 66.0404C6.35349 66.1511 6.81311 66.293 7.39914 66.415L7.41063 66.4207H7.41925C7.72949 66.4802 8.0541 66.5228 8.40744 66.554L8.43042 66.5597H8.4534L8.75503 66.5654C9.04805 66.5654 9.36117 66.5483 9.69439 66.4944C10.1081 66.4263 10.5361 66.344 10.9842 66.2504L10.8147 65.5012L10.9727 66.2504C21.0845 64.2044 43.8618 59.6102 53.333 57.6919C53.7725 57.6096 54.1919 57.5245 54.5711 57.4422L54.4102 56.6959L54.5395 57.4479C54.8986 57.3911 55.2175 57.3542 55.5047 57.3372L55.453 56.5739L55.3467 57.3315C55.8696 57.4053 56.2602 57.5699 56.5015 57.7146L56.9008 57.0591L56.4642 57.6863L56.8233 57.9416L56.9353 58.0239L58.1907 58.9888V57.4224H57.4122Z" fill="#0A0B09"/>
<path fill-rule="evenodd" clip-rule="evenodd" d="M57.3186 64.8619C57.3186 64.8619 57.1725 64.1718 56.8374 63.9324C56.508 63.7099 56.0096 63.4677 55.3851 63.3353C55.0757 63.3269 54.7234 63.3635 54.3424 63.417C53.9672 63.5015 53.5518 63.5776 53.1107 63.6705C43.6723 65.5688 20.9628 70.1344 10.8713 72.1594C10.4359 72.2496 10.0234 72.3369 9.63383 72.4017C9.24427 72.4495 8.88048 72.4693 8.5482 72.4693C8.21879 72.4495 7.90656 72.4073 7.63444 72.3594C7.07873 72.2158 6.65192 72.0721 6.35115 71.9454L5.9043 71.737V64.9407L6.35688 65.1182C6.65192 65.2196 7.07873 65.3491 7.63444 65.4646C7.90656 65.5153 8.21879 65.5604 8.5482 65.5914C8.88048 65.6026 9.24427 65.5914 9.63383 65.535C10.0234 65.4759 10.4359 65.3942 10.8713 65.3013C20.9628 63.2762 43.6723 58.705 53.1107 56.8067C53.5518 56.7194 53.9672 56.6349 54.3424 56.5588C54.7234 56.4941 55.0757 56.4546 55.3851 56.4434C56.0096 56.525 56.4965 56.7194 56.8317 56.9081C57.1639 57.1362 57.3358 57.2799 57.3358 57.2799C57.3358 57.2799 57.3415 57.4657 57.3415 57.784C57.3473 58.1051 57.3473 58.5501 57.3473 59.0993V59.9584L57.3559 60.8625V63.8029C57.3559 64.1183 57.3186 64.8619 57.3186 64.8619Z" fill="#D72A2E"/>
<path fill-rule="evenodd" clip-rule="evenodd" d="M57.3893 64.8688L58.1505 64.7124C58.1447 64.684 58.1016 64.4821 58.0011 64.2177C57.8891 63.9504 57.7656 63.6121 57.3634 63.3079L57.3577 63.3022L57.3462 63.2937C56.9355 63.0179 56.3524 62.7364 55.617 62.5772L55.551 62.563L55.4763 62.5573H55.3643C55.011 62.5573 54.6519 62.5999 54.2986 62.6511H54.2642L54.2383 62.6625C53.8821 62.7421 53.457 62.8189 53.0089 62.9127L53.1698 63.6661L53.0176 62.9127C43.5503 64.829 20.7783 69.4377 10.6619 71.4848C10.2195 71.5758 9.81166 71.6639 9.44687 71.7208L9.57325 72.4799L9.47272 71.7179C9.1223 71.7634 8.7891 71.7805 8.48463 71.7805V72.5481L8.53059 71.7805C8.24048 71.7634 7.95899 71.7265 7.70048 71.681L7.56835 72.4372L7.76655 71.6923C7.23516 71.5587 6.83878 71.4194 6.60037 71.3142L6.28154 72.0193L6.61473 71.3199H6.61186V64.9484H5.83345L5.54622 65.662L6.00005 65.8383L6.01728 65.844L6.02877 65.8497C6.35048 65.9605 6.81292 66.1055 7.41037 66.2278L7.42186 66.2335C7.7292 66.2932 8.05665 66.333 8.41282 66.37H8.43006L8.45304 66.3728L8.72591 66.3756C9.02464 66.3756 9.34921 66.3557 9.6824 66.3103L9.69389 66.3046C10.1018 66.2392 10.5355 66.1596 10.9836 66.0629L10.8141 65.3123L10.9721 66.0657C21.0885 64.0187 43.8576 59.4099 53.3278 57.4908C53.7673 57.4027 54.1866 57.3145 54.5658 57.2378L54.4049 56.4872L54.5342 57.2434C54.8875 57.1837 55.2092 57.1496 55.4878 57.1382L55.4504 56.3706L55.347 57.1297C55.8669 57.1979 56.2633 57.3629 56.5247 57.5079L56.901 56.8397L56.4472 57.4595L56.8062 57.7211L56.9125 57.8035L57.4065 57.215L56.6339 57.2321C56.6339 57.2378 56.6396 57.4112 56.6396 57.7239C56.6425 58.0481 56.6425 58.503 56.6425 59.0517V59.9188L56.6482 60.8372V63.7997C56.6482 64.0784 56.6166 64.8347 56.6166 64.8347L57.3893 64.8688L58.1677 64.9C58.1677 64.8944 58.1993 64.158 58.1993 63.7997V60.8315L58.1935 59.9132V59.0517C58.1935 58.4973 58.1935 58.0424 58.1907 57.7182C58.1907 57.3941 58.1849 57.198 58.1849 57.1923L58.1734 56.8426L57.9034 56.6208C57.8891 56.6094 57.7024 56.4587 57.3577 56.2142L57.3175 56.1858L57.283 56.1659C56.8723 55.9384 56.2892 55.7081 55.5567 55.6086L55.4878 55.6001L55.4188 55.6029C55.0656 55.62 54.6835 55.6598 54.2757 55.7309L54.2584 55.7337H54.2469C53.8735 55.8105 53.4513 55.8986 53.0176 55.9868C43.5503 57.903 20.7783 62.5146 10.6619 64.5617H10.6533C10.2253 64.6555 9.82315 64.7323 9.45262 64.7892L9.57325 65.5483L9.46123 64.7892C9.20272 64.8261 8.95857 64.8403 8.72591 64.8403L8.51623 64.8375L8.48463 65.6051L8.55357 64.8403C8.24623 64.8119 7.95899 64.7721 7.71772 64.7266L7.56835 65.4772L7.72921 64.7295C7.20931 64.6186 6.8158 64.4963 6.5458 64.4025L6.28728 65.1275L6.57452 64.411L6.12356 64.2347L5.06079 63.8168V72.2979L5.95696 72.713L5.97133 72.7187C6.32463 72.8751 6.78707 73.0286 7.37016 73.1793L7.4075 73.185L7.43623 73.1907C7.72346 73.2447 8.06527 73.293 8.4358 73.3129H8.48463C8.84942 73.3129 9.24868 73.293 9.67379 73.2419L9.68815 73.239L9.69677 73.2362C10.119 73.1679 10.5412 73.0741 10.9721 72.986C21.0885 70.9417 43.8576 66.333 53.3278 64.4167H53.3393C53.7615 64.3229 54.1809 64.249 54.5773 64.1608L54.4049 63.4102L54.5169 64.1722C54.8444 64.1239 55.1402 64.0898 55.3643 64.0898L55.4303 64.0954L55.4504 63.3278L55.2867 64.0784C55.8037 64.1893 56.2231 64.3968 56.4759 64.5617L56.9067 63.9305L56.4529 64.5503L56.5132 64.4736L56.4357 64.5333L56.4529 64.5503L56.5132 64.4736L56.4357 64.5333L56.5707 64.8176L56.6195 64.974L56.6339 65.0223L58.1677 64.9L57.3893 64.8688Z" fill="#0A0B09"/>
<path fill-rule="evenodd" clip-rule="evenodd" d="M58.1046 50.0437C58.1046 50.0437 57.9295 49.9055 57.5878 49.6895C57.252 49.4764 56.7524 49.2921 56.118 49.223C55.7964 49.2576 55.4405 49.3181 55.0586 49.39C46.3284 51.2243 21.2345 56.5109 10.6785 58.7339C10.2479 58.8232 9.85456 58.9009 9.47848 58.9729C9.10814 58.9786 8.76077 58.9642 8.4335 58.9239C8.11197 58.8923 7.81914 58.8404 7.55502 58.7742C7.01818 58.6245 6.61339 58.492 6.32918 58.3941L5.9043 58.2271V50.8931C5.9043 50.8931 6.11961 50.9622 6.51865 51.0947L7.25072 51.3135C7.54067 51.3941 7.87082 51.4604 8.24689 51.5324C8.62584 51.6015 9.03063 51.6187 9.47848 51.5957C9.9292 51.5698 10.4115 51.4949 10.9282 51.3884C11.4421 51.2818 11.9962 51.1638 12.5732 51.04C25.8365 48.244 54.2634 42.2605 54.2634 42.2605C54.2634 42.2605 54.5046 42.2087 54.8634 42.1367C55.228 42.082 55.7103 42.0935 56.2098 42.2029C56.6979 42.3958 57.2003 42.7068 57.5764 43.0495C57.9553 43.4871 58.1993 43.8068 58.1993 43.8068L58.1936 44.2732C58.1907 44.5612 58.1878 44.9355 58.1764 45.3473L58.1534 45.9836L58.1333 46.6862L58.1218 47.4752L58.1161 48.2987C58.1161 48.8343 58.1103 49.2864 58.1103 49.583L58.1046 50.0437Z" fill="#FFFFFE"/>
<path fill-rule="evenodd" clip-rule="evenodd" d="M58.1878 56.9881C58.1878 56.9881 58.0124 56.843 57.6759 56.6096C57.3336 56.4019 56.8418 56.1999 56.2091 56.1003C55.887 56.123 55.5304 56.1629 55.1478 56.234C54.7625 56.3108 54.3426 56.4019 53.8968 56.4958C44.2966 58.4849 21.2048 63.2882 10.9546 65.4167C10.5088 65.5135 10.0861 65.5988 9.68916 65.6643C9.29515 65.7155 8.92701 65.7326 8.58189 65.7155C8.24539 65.6814 7.93478 65.6387 7.6558 65.5875C7.09785 65.4651 6.64919 65.3314 6.35584 65.2261L5.9043 65.0297V57.7564L6.32995 57.9271C6.61468 58.021 7.02595 58.1519 7.55802 58.3027C7.82262 58.3625 8.11597 58.4194 8.43809 58.4507C8.7602 58.4906 9.1082 58.5076 9.48497 58.4991C9.86748 58.4279 10.2557 58.3454 10.6843 58.2601C21.2623 56.0661 46.4018 50.8416 55.1478 49.0261C55.5304 48.9578 55.887 48.8981 56.2091 48.8525C56.8476 48.9322 57.3451 49.1143 57.6874 49.3021C58.0268 49.5383 58.1993 49.6863 58.1993 49.6863C58.1993 49.6863 58.1936 50.2924 58.1936 51.1831L58.1878 51.9429C58.1878 52.2331 58.1821 52.566 58.1821 52.9104C58.1821 53.2547 58.1821 53.6047 58.1763 53.9433C58.1763 54.2933 58.1763 54.6177 58.1821 54.9165C58.1821 55.5425 58.1821 56.0661 58.1878 56.4161C58.1878 56.7775 58.1878 56.9881 58.1878 56.9881Z" fill="#1C67A3"/>
<path fill-rule="evenodd" clip-rule="evenodd" d="M58.1993 64.727C58.1993 64.727 58.0182 64.5759 57.676 64.3193C57.3338 64.0885 56.8364 63.8433 56.198 63.6979C55.876 63.6922 55.5195 63.7321 55.137 63.792C54.746 63.869 54.3262 63.9602 53.8862 64.0542C44.2881 66.0468 21.2015 70.8584 10.9535 72.9906C10.5078 73.0847 10.0851 73.1731 9.68833 73.2443C9.2944 73.2956 8.92635 73.3127 8.5813 73.3127C8.24488 73.2956 7.93433 73.2557 7.64967 73.2016C7.09184 73.0505 6.64903 72.9022 6.35574 72.7626L5.9043 72.5459V65.3883L6.35574 65.5736C6.64903 65.6847 7.09184 65.8187 7.64967 65.9413C7.93433 65.9983 8.24488 66.0411 8.5813 66.0753C8.92635 66.0895 9.2944 66.0753 9.68833 66.0182C10.0851 65.9584 10.5078 65.8672 10.9535 65.7674C21.2015 63.6381 44.2881 58.8349 53.8862 56.8339C54.3262 56.7398 54.746 56.6486 55.137 56.5773C55.5195 56.5004 55.876 56.4633 56.198 56.4434C56.8306 56.5374 57.3223 56.7398 57.6645 56.9365C58.0009 57.1845 58.1763 57.327 58.1763 57.327C58.1763 57.327 58.1821 57.518 58.1821 57.8572C58.1821 58.1964 58.1878 58.6696 58.1878 59.2483C58.1936 59.5276 58.1936 59.8383 58.1936 60.149C58.1993 60.4626 58.1993 60.7847 58.1993 61.0983C58.1993 61.4147 58.1993 61.7111 58.1993 61.999V64.727Z" fill="#D72A2E"/>
<path fill-rule="evenodd" clip-rule="evenodd" d="M35.8626 60.7878V61.3771H35.8322V60.8233L35.8626 60.7878Z" fill="#D72A2E"/>
<path fill-rule="evenodd" clip-rule="evenodd" d="M35.8626 61.5527V62.2988L35.8322 62.2862V61.5553L35.8626 61.5527Z" fill="#D72A2E"/>
<path fill-rule="evenodd" clip-rule="evenodd" d="M52.7727 64.8058L56.3952 64.0349L59.0428 65.2883L59.0024 66.3819C59.0024 66.3819 59.0658 67.2527 57.122 68.3691C56.0058 69.0144 51.547 71.21 50.8808 71.9523C50.2203 72.6947 49.9434 74.1565 49.9434 74.1565L50.0819 70.4048L49.7646 65.4682L52.7727 64.8058Z" fill="#0A0B09"/>
<path fill-rule="evenodd" clip-rule="evenodd" d="M53.5678 34.8123V35.0576H53.5527V34.8274L53.5678 34.8123Z" fill="#D72A2E"/>
<path fill-rule="evenodd" clip-rule="evenodd" d="M53.5527 35.9315H53.5678V35.6255H53.5527V35.9315Z" fill="#D72A2E"/>
</g>
<defs>
<clipPath id="clip0_223_110">
<rect width="73" height="75" fill="white"/>
</clipPath>
</defs>
</svg>
