<svg width="121" height="70" viewBox="0 0 121 70" fill="none" xmlns="http://www.w3.org/2000/svg">
<path fill-rule="evenodd" clip-rule="evenodd" d="M45.5755 17.8971C45.188 17.509 45.123 15.3722 44.9937 14.7898H44.7999C42.3432 16.6674 39.4341 18.415 36.4605 16.3432C35.62 14.8548 35.4262 15.5021 34.6506 16.1494C34.3269 16.3437 34.1332 16.3437 33.9394 16.6674C33.3576 16.7323 33.4869 16.7323 33.1633 17.0554C30.0604 17.1204 32.7758 11.8119 33.6158 10.9053C33.6158 10.7754 33.6807 10.6466 33.7457 10.5167C35.2324 9.2221 35.6849 7.7981 38.0766 7.92745C38.9816 9.35145 38.206 11.8119 37.1067 13.171C36.913 15.1784 37.301 16.1494 39.6928 16.2788C39.9515 16.1489 41.5676 15.9551 42.2788 15.7608C43.1188 15.1135 44.2825 14.2074 44.9293 13.4302C44.6705 12.0062 43.4425 10.711 42.8606 9.67511C42.0845 8.83349 40.6627 7.02088 41.4383 6.17926C41.9557 6.2442 43.1838 6.69722 43.895 7.08583C44.6061 8.38047 44.6061 8.38047 45.3817 10.0637C45.7693 11.229 45.7693 11.229 45.8986 11.3584C47.3859 11.3584 47.3859 9.28704 48.0322 8.57478C48.6784 6.89152 48.6784 6.89152 49.0665 6.17926C49.6483 6.0499 49.907 5.92054 50.1652 5.92054C50.4239 6.95647 48.4847 11.0352 48.1615 11.9413C48.2265 12.2 48.2265 12.4592 48.2909 12.718C49.6483 13.4302 52.8156 13.6245 54.5617 12.9128C55.1435 11.747 55.3373 10.5167 55.596 9.4164C56.3066 7.47444 56.3066 7.47444 56.8885 6.1798C57.3415 6.11485 57.729 5.98495 58.3108 5.98495C59.5394 7.40949 57.4059 10.5167 56.8885 12.0706C56.6303 12.3943 56.6303 12.3943 56.0485 13.9482C56.3716 14.0781 56.6947 14.2718 57.0828 14.4012C56.8241 15.5021 55.2079 16.5375 54.4323 15.5665C54.3674 15.0485 54.3674 14.5306 54.3674 14.0131C52.6868 14.0781 50.8114 14.3368 49.3252 14.4662C48.5496 14.0775 48.1615 14.0126 47.6441 14.0126C47.0623 15.1784 46.6103 17.3141 45.5755 17.8971ZM104.339 9.67565C104.727 8.57478 106.86 6.50292 108.089 6.69722C108.153 8.31552 105.632 9.28704 104.339 9.67511V9.67565ZM62.2543 14.7254C61.6725 13.8188 61.8662 12.9123 62.3836 12.2C63.0299 9.48135 63.0948 8.70413 63.3535 8.12176C64.2585 7.08583 63.5473 7.08583 65.3572 7.02088C66.1978 8.57478 63.6117 13.1066 62.8361 14.5955C62.6424 14.5955 62.4481 14.6605 62.2543 14.7254ZM46.5454 16.0845V16.0195H46.6748V16.0845H46.5454ZM58.6989 15.7608C57.9233 14.9841 58.5695 11.1646 58.9576 10.6461C59.2807 8.96284 59.5394 6.63281 59.6683 6.50292C60.0563 6.43797 60.5088 6.43797 60.9613 6.37356C61.1556 6.50346 61.3493 6.69722 61.5431 6.89152C61.7374 8.70467 60.8319 11.229 60.0563 13.1066C59.7976 13.8832 59.4745 14.7249 59.2807 15.5021C59.022 15.6314 58.8283 15.6958 58.6989 15.7608ZM99.0466 32.0748C99.0466 31.9454 99.111 31.2505 99.0466 31.1211C99.6928 30.8624 100.836 31.4978 101.482 30.8505C102.775 30.8505 101.365 31.0394 102.788 30.7152C102.788 30.7152 102.852 30.7802 102.917 30.7802C102.981 30.7802 104.605 30.6091 106.083 30.3093C106.147 30.1794 111.789 28.8799 112.307 28.6856C113.018 28.1676 114.149 28.4566 114.472 27.8737C114.536 27.8737 114.986 27.8196 115.115 27.8196C115.115 27.549 115.825 27.6031 115.846 27.6031C116.687 27.6031 117.472 26.5087 117.99 26.25C118.36 25.8278 118.885 25.3786 118.885 24.3048C118.561 22.8164 115.975 21.5878 115.006 21.2636C114.812 20.875 110.675 19.5154 110.222 19.451C108.089 18.415 108.735 18.2207 109.188 16.6024C109.252 16.6024 109.317 16.5375 109.382 16.5375C109.575 15.1784 108.218 13.8188 107.442 13.6889C107.248 13.8188 107.248 13.8188 106.731 13.8838C106.731 13.8188 106.731 13.7539 106.666 13.624C105.697 13.624 104.921 13.4952 104.21 13.3009C103.951 13.0416 103.693 12.9123 103.499 12.9772C102.529 12.0706 103.111 12.4592 103.111 11.4883C102.981 11.0347 102.529 10.9053 102.335 10.776C102.206 10.9059 102.206 10.9059 101.753 10.9059C100.331 10.3874 98.9086 10.4523 98.6504 12.0062C97.7449 13.171 97.9392 13.8832 96.3231 14.0126C95.8056 13.2359 96.4524 11.9413 96.7106 11.4233C96.5812 11.3584 96.5168 11.4233 95.935 11.4883C95.5469 12.2649 91.4097 14.3368 90.6985 14.4012C89.9229 13.4302 91.3453 11.1646 91.4097 10.1287H91.2159C90.5048 10.711 88.8886 11.8769 88.7593 12.5236C88.5655 12.5236 87.4662 13.3009 87.4662 13.4302C85.1389 14.4662 83.8464 15.0485 82.5534 12.7829C82.4241 12.653 82.2947 12.5886 82.1654 12.5236C82.036 13.4302 80.4848 13.8832 79.7087 13.7539C79.1918 12.5886 79.3856 11.9407 80.0967 11.229C80.0967 11.1641 80.0318 11.0991 80.0318 10.9703H79.7736C78.8687 11.8763 77.5107 12.9123 76.4764 13.6245C75.3777 13.8188 72.7917 13.8832 72.2098 12.9123C72.1454 12.4592 72.1454 12.0706 72.1454 11.682C71.8218 11.8119 71.4986 11.9413 71.4342 12.2649C69.1069 13.4952 67.4908 13.5596 68.0726 10.5817C69.3656 8.50983 71.8867 6.30915 74.5372 6.0499C75.6359 6.37356 75.507 8.63972 74.3434 9.4164C73.9553 10.9053 73.4379 11.2295 74.5372 12.7829C74.9252 12.7829 75.3777 12.8478 75.8302 12.8478C77.0582 12.2649 78.4806 11.1646 78.9331 9.93436C79.2562 9.4164 81.1955 6.30915 82.3591 7.47444C82.2298 8.44542 82.101 9.35145 81.9716 10.323C81.7129 11.0997 81.7129 11.0997 81.7773 11.294C83.1353 10.5817 82.4241 9.7406 83.1353 8.96338C83.2646 8.57478 83.5228 8.25111 83.6521 7.92745C83.9753 7.79756 83.9753 7.79756 84.9452 7.79756C84.9452 8.76908 84.4927 9.7406 83.9753 10.776C83.9753 12.1356 83.8459 13.6889 86.1088 13.4302C87.9187 12.2 90.1816 9.74006 91.3453 7.86251C92.5734 7.86251 93.349 6.95647 93.6077 9.02779C93.4139 10.0637 93.4139 10.0637 93.2196 10.776C92.8321 11.1646 92.3796 11.9413 92.3796 12.718C93.4139 12.9128 95.4181 10.323 96.5812 9.93436C96.7755 9.15769 97.8099 8.57478 98.521 8.44542C98.7792 8.05681 99.2966 8.05681 99.8785 8.12176C100.783 9.15769 101.43 9.86996 103.304 9.80501C103.434 9.67511 103.434 9.67511 104.081 8.12176C104.145 8.12176 104.21 8.05681 104.274 8.05681C104.468 7.34454 105.891 6.56786 106.602 6.0499C108.218 5.53193 110.61 4.88461 109.446 7.7981C108.089 9.2221 106.472 9.2865 104.986 10.323C104.468 11.4233 104.856 12.1356 106.149 12.718C106.343 12.1356 106.279 11.6176 106.279 11.0347C107.442 10.4523 107.765 10.1931 109.188 10.6466C109.188 12.0062 109.188 12.0062 109.058 12.4592C108.735 12.6535 108.412 12.7829 108.606 13.3009C109.252 13.4952 110.739 14.9192 111.062 15.9551C110.868 17.0554 109.705 17.7677 110.998 18.8036C113.066 19.6453 115.329 20.2276 117.721 21.2636C117.85 21.3935 118.755 21.7815 118.885 22.1701C119.531 22.1701 119.854 23.2055 120.565 23.7235C120.63 24.3714 120.584 26.2733 119.614 26.7912C119.484 27.4385 117.077 28.2206 116.366 28.4149C116.107 28.9979 115.141 28.3375 114.559 28.6612C113.589 28.9205 107.9 30.1913 107.706 30.5799C105.638 31.2272 104.169 30.8207 102.294 31.6624C99.8373 31.7923 101.051 31.881 99.0466 32.0748ZM69.6238 11.682C69.495 11.5527 69.43 11.4883 69.3007 11.4233C69.6887 10.776 69.7532 10.4523 70.3999 9.86996C70.9168 8.96338 71.4342 8.96338 72.2742 8.25111C73.3735 9.35145 70.5293 11.2934 69.6238 11.682ZM69.43 4.04299C65.2279 3.39567 60.7026 3.07201 56.436 2.6834L57.0178 0.870791C59.0864 1.38876 61.2844 1.4537 63.4824 1.97167C66.1978 2.03662 69.1713 2.42469 72.2098 2.48909C72.9854 2.68394 72.9854 2.68394 73.5028 2.94265C73.1797 4.23729 72.4685 3.46062 71.7574 3.91363C70.9168 3.97858 70.2056 3.97858 69.43 4.04353V4.04299ZM32.9695 16.0845C32.9695 15.3722 33.0989 15.2428 33.2926 13.8832C33.7451 13.6889 34.5862 11.6176 34.8444 11.1646H35.1031V10.9698C35.2968 10.9053 35.62 10.3874 36.008 10.0637C36.3312 9.99877 36.6543 9.93382 36.9774 9.93382C37.0423 10.1936 35.2324 13.6889 35.1675 13.8832H35.0381C34.6506 14.7898 33.9394 15.8901 32.9695 16.0845ZM17.5837 19.8396C17.39 19.6447 17.39 19.6447 17.0019 19.5159C16.097 17.7677 18.2949 14.6605 17.9069 13.8188C17.0663 14.7898 15.8383 15.567 14.8039 16.2138C11.9597 18.5444 5.62455 18.5444 2.52109 18.6093C0.32366 17.8971 0.0649486 17.509 0 15.3727C1.22861 10.3879 6.98197 8.31606 11.5717 7.47444V7.21519C8.85628 6.37356 8.14563 4.17234 9.1794 2.03608C10.7317 0.417775 12.8652 -0.359443 15.1926 0.741436C15.5157 1.97167 15.5157 1.97167 15.4513 2.42469C13.8351 2.48963 12.8652 1.4537 11.4429 1.90672C9.24543 3.84868 10.861 5.27322 12.9946 6.63281C13.1883 6.82658 13.3177 7.02088 13.5115 7.21519C13.1239 8.38047 10.7317 8.70413 9.82672 8.70413C9.05113 9.09274 8.92177 9.09274 7.04692 9.80501C4.97831 11.0347 1.81044 12.9123 2.32732 15.8257C3.10346 17.1853 2.84475 17.3141 4.78454 17.444C4.84949 17.3141 4.9139 17.2497 4.97831 17.1204C5.23702 14.0775 4.84895 13.4302 7.75811 12.5236C8.14617 12.7185 8.46929 12.9123 8.85682 13.1715C9.5036 14.3368 8.92177 16.1494 7.75811 16.991C8.40435 17.3791 11.0548 16.9261 11.9603 16.7318C14.6751 15.9551 16.485 13.9482 18.3599 12.0057C19.2648 11.5527 19.8472 9.15769 20.4934 8.44542C20.8815 7.02088 21.3984 5.66183 21.5922 4.36665C22.174 3.84868 22.174 3.91363 22.9501 3.71933C22.9501 3.78428 22.9501 3.84922 23.0151 3.97858H23.1439C23.9189 2.35974 27.6042 -0.876866 29.7372 0.223471C30.5128 0.93574 30.7716 1.77682 30.6422 3.20136C29.8666 4.81966 29.8666 4.81967 29.6728 5.46753C29.931 5.53248 30.1897 5.59688 30.384 5.66129C31.4178 8.12176 29.6079 11.682 28.8967 14.0126C28.2505 15.1135 26.3112 18.868 24.9532 19.1273C24.9532 19.1922 24.8883 19.2572 24.8883 19.3216C21.3979 19.3865 22.4322 15.3722 23.9839 13.8832H24.6951C24.9532 14.4012 22.8846 17.1198 24.1132 18.0914C25.3413 19.0623 27.5393 13.8832 27.9918 12.5886C28.8967 12.0062 29.2848 8.38047 29.4141 7.4739C27.4749 7.53885 27.9273 9.15715 26.6343 9.67565C26.6343 9.7406 26.5694 9.86942 26.5694 9.99931C24.6951 10.776 25.4707 9.09274 25.9231 8.38101C26.7637 7.92745 27.6686 5.79119 28.3798 5.46753C28.4448 4.6259 28.7673 3.65438 28.8323 3.00706C28.3798 1.00015 27.3455 1.77737 26.1819 2.23038C25.9875 2.55404 24.2421 5.01397 23.9195 5.14387C23.7896 5.59688 23.3371 5.66183 23.1433 6.30915C21.2041 8.38047 19.3292 15.1135 18.7474 17.5734C19.0705 17.962 19.6524 18.48 19.5879 19.2567C18.8118 19.9689 17.9069 19.8396 17.5837 19.8396ZM46.028 13.9476C46.2867 13.3003 45.8986 12.5881 46.8041 12.5881V13.3003C46.3511 13.4946 46.3511 13.4297 46.2223 14.0126C46.2223 13.9476 46.0924 13.9476 46.028 13.9476ZM6.14143 16.7962C6.14143 15.7603 5.94767 14.7243 6.72326 14.2713V14.0121C7.17573 14.077 7.17573 14.077 7.62821 14.2713C7.69316 15.6953 7.43445 16.2782 6.14143 16.7962Z" fill="#9B0000"/>
<path fill-rule="evenodd" clip-rule="evenodd" d="M85.6034 38.8458H93.7155C94.2724 38.844 94.8242 38.9522 95.3393 39.164C95.8544 39.3758 96.3226 39.6871 96.7173 40.08C97.1119 40.473 97.4252 40.94 97.6391 41.4542C97.8531 41.9683 97.9636 42.5197 97.9642 43.0766C97.9642 45.3844 96.0331 47.308 93.6511 47.308H91.3335V54.1671H85.6034V38.8447V38.8458ZM93.7155 45.7054C95.1313 45.641 96.2901 44.4871 96.2901 43.0766C96.2901 41.6023 95.0669 40.4484 93.6511 40.4484H91.3335V45.7054H93.7155ZM23.7356 35.6384H23.3491V35.7666H24.7011V35.6384H23.9926L24.7011 33.3944H26.5034L27.2119 35.6384H26.6328V35.7666H28.2419V35.6384H27.8555L25.9243 29.8044H25.5379L23.7356 35.6384ZM25.6028 30.5735L26.439 33.2661H24.7655L25.6028 30.5735ZM29.9154 35.6384H29.4651V35.7666H31.0098V35.6384H30.5595V32.6892L33.0703 35.7666H33.907V35.6384H33.6494L30.9459 32.4326L33.2635 29.997H33.7138V29.8688H32.2974V29.9965H32.8765L30.4951 32.497V29.9965H30.9459V29.8688H29.4001V29.9965H29.9149V35.6384H29.9154ZM34.8082 35.6384H34.4228V35.7666H35.7743V35.6384H35.0664L35.7743 33.3944H37.5772L38.2851 35.6384H37.706V35.7666H39.3156V35.6384H38.9292L36.9975 29.8044H36.6116L34.8093 35.6384H34.8082ZM36.6755 30.5735L37.5122 33.2661H35.7738L36.6755 30.5735ZM42.2762 29.8049L40.6022 35.6384H40.2163V37.3054H40.4095C40.4733 36.8562 40.6022 36.4719 40.7954 36.0871C40.9242 35.8949 41.053 35.7666 41.2462 35.7666H43.757C43.9503 35.7666 44.2073 35.8305 44.2717 36.0871C44.465 36.4713 44.5938 36.8562 44.6582 37.3048H44.8514V35.6378H44.465L42.6626 29.8044H42.2762V29.8049ZM43.8214 35.6384H40.7959L42.2762 30.5096L43.8214 35.6384ZM47.1046 32.7536H47.7487C47.9413 32.7536 48.0702 32.8818 48.1346 32.9457C48.2634 33.2023 48.3922 33.6509 48.3922 33.9075H48.5854V31.3431H48.3922C48.3922 31.6635 48.2634 32.1122 48.1346 32.3043C48.0702 32.4326 47.8769 32.5609 47.7481 32.5609H47.104V29.9326H48.7781C48.9713 29.9326 49.2289 30.1248 49.2934 30.2531C49.4866 30.7023 49.6154 31.2148 49.6798 31.6635H49.873V29.741H46.0102V29.8693H46.4611V35.5106H46.0102V35.6389H50.0013V33.4593H49.8086C49.7437 34.1002 49.6154 34.5489 49.4866 34.9975C49.4222 35.2541 49.2289 35.4468 48.9713 35.4468H47.104V32.7541L47.1046 32.7536ZM52.0618 30.3175L53.8641 35.83H54.1217L55.9241 30.2525V35.6378H55.2161V35.7661H56.9546V35.6378H56.5037V29.9965H56.9546V29.8688H55.7314L54.1861 34.9331L52.5121 29.8688H51.3538V29.9965H51.8042V35.6384H51.3533V35.7666H52.7053V35.6384H51.9974V30.3175H52.0618ZM58.8213 35.6378H58.3705V35.7666H59.9157V35.6384H59.4654V35.1891L61.9118 30.8944V35.6384H61.4609V35.7666H63.0062V35.6384H62.5553V29.9965H63.0056V29.8688H61.4609V29.9965H61.9112V30.3813L59.4648 34.6766V29.997H59.9157V29.8688H58.3705V29.9965H58.8213V35.6384V35.6378ZM67.1905 32.818H65.9673C65.2593 32.818 64.8729 32.3043 64.8729 31.6635V29.9326H65.3232V29.8044H63.7785V29.9326H64.2294V31.5997C64.2294 32.3688 64.8085 32.9457 65.8385 32.9457H67.1261V35.574H66.6752V35.7022H68.2205V35.574H67.7701V29.9326H68.2205V29.8044H66.6752V29.9326H67.1261V32.8174L67.1905 32.818ZM70.7951 32.753H71.4392C71.6324 32.753 71.7612 32.8818 71.8256 32.9457C71.9545 33.2023 72.0833 33.6509 72.0833 33.9075H72.2765V31.3431H72.0833C72.0833 31.6635 71.9545 32.1122 71.8256 32.3043C71.7612 32.4326 71.568 32.5609 71.4392 32.5609H70.7951V29.9326H72.4692C72.6624 29.9326 72.92 30.1248 72.9844 30.2531C73.1777 30.7023 73.3065 31.2148 73.3709 31.6635H73.5641V29.741H69.7007V29.8693H70.1511V35.5106H69.7007V35.6389H73.6918V33.4593H73.5002C73.4353 34.1002 73.307 34.5489 73.1782 34.9975C73.1132 35.2541 72.9206 35.4468 72.6629 35.4468H70.7957V32.7541L70.7951 32.753ZM78.6496 33.7148C78.5852 34.2279 78.3919 34.8687 78.2637 35.2536C78.1993 35.5101 77.7484 35.7028 77.362 35.7028C76.3964 35.7028 75.6885 34.42 75.6885 32.8818C75.6885 31.2787 76.4608 29.997 77.362 29.997C77.684 29.997 78.006 30.1248 78.1349 30.3175C78.2637 30.6379 78.4563 31.0866 78.5208 31.6635H78.714V30.1892C78.2637 29.8688 77.8128 29.8049 77.362 29.8049C75.8817 29.8049 74.9805 31.3431 74.9805 32.8818C74.9805 34.8049 75.9461 35.9588 77.362 35.9588C77.9416 35.9588 78.4563 35.8949 78.7784 35.4457V33.7787H78.6496V33.7148ZM80.7101 35.6384H80.2592V35.7666H81.8044V35.6384H81.3536V32.6892L83.8644 35.7666H84.7012V35.6384H84.4435L81.74 32.4326L84.0576 29.997H84.5079V29.8688H83.0921V29.9965H83.6712L81.2892 32.497V29.9965H81.74V29.8688H80.1948V29.9965H80.6457V35.6384H80.7101ZM86.2464 35.6384H85.7955V35.7666H87.3408V35.6384H86.8899V35.1891L89.2719 30.8944V35.6384H88.8216V35.7666H90.3663V35.6384H89.916V29.9965H90.3663V29.8688H88.8216V29.9965H89.2719V30.3813L86.8899 34.6766V29.997H87.3408V29.8688H85.7955V29.9965H86.2464V35.6384ZM92.298 35.6384H91.8471V35.7666H93.3924V35.6384H92.9415V35.1891L95.3235 30.8944V35.6384H94.8732V35.7666H96.4179V35.6384H95.9676V29.9965H96.4179V29.8688H94.8732V29.9965H95.3235V30.3813L92.9415 34.6766V29.997H93.3924V29.8688H91.8471V29.9965H92.298V35.6384ZM94.1003 29.484C93.8427 29.484 93.4568 29.3557 93.3924 29.2274C93.5212 29.1635 93.65 28.9709 93.65 28.8431C93.65 28.5866 93.4568 28.3939 93.2635 28.3939C93.204 28.3923 93.1448 28.4028 93.0895 28.4247C93.0341 28.4467 92.9839 28.4797 92.9417 28.5217C92.8995 28.5638 92.8663 28.6139 92.8442 28.6692C92.822 28.7244 92.8113 28.7836 92.8127 28.8431C92.8127 29.2913 93.3924 29.6117 94.1647 29.6117C94.8732 29.6117 95.5167 29.2918 95.5167 28.8431C95.5167 28.5866 95.3235 28.3939 95.1303 28.3939C95.0708 28.3923 95.0116 28.4029 94.9564 28.4249C94.9011 28.4469 94.8509 28.4799 94.8088 28.5219C94.7667 28.564 94.7335 28.6141 94.7114 28.6693C94.6892 28.7245 94.6786 28.7837 94.68 28.8431C94.68 28.9709 94.8088 29.1635 94.9376 29.2274C94.7444 29.3557 94.3579 29.484 94.1003 29.484ZM25.4101 66.3461H26.1825C26.3757 66.3461 26.5689 66.4743 26.6977 66.6026C26.826 66.8592 26.9548 67.3717 27.0192 67.7565H27.2769V64.8073H27.0192C27.0192 65.1277 26.826 65.7047 26.6977 65.9612C26.6328 66.0895 26.4401 66.2178 26.1825 66.2178H25.4101V63.1409H27.4057C27.6633 63.1409 27.9209 63.333 28.0498 63.5251C28.3068 64.0382 28.3713 64.6152 28.5001 65.1277H28.7577V62.8843H24.2514V63.0764H24.8305V69.6795H24.1231V69.8717H28.7582V67.3717H28.5006C28.4362 68.1408 28.3074 68.6539 28.1786 69.1665C28.1142 69.423 27.8571 69.744 27.5994 69.744H25.4101V66.3461ZM32.3629 69.8717C33.5861 69.8717 34.4228 69.0382 34.4228 67.9487C34.4228 66.923 33.6505 66.2817 32.6205 66.1534C33.3929 65.9612 33.972 65.3199 33.972 64.5513C33.972 63.5251 33.0708 62.8843 31.9764 62.8843H29.3368V63.0764H29.9159V69.6795H29.3368V69.8717H32.3623H32.3629ZM30.6883 63.0764H31.7183C32.7488 63.0764 33.3279 63.9099 33.3279 64.5508C33.3279 65.3843 32.6838 66.0256 31.8471 66.0256H30.7532V63.0759H30.6888L30.6883 63.0764ZM30.6883 66.2817H32.0414C32.9426 66.2817 33.651 67.0513 33.651 67.9487C33.651 68.9104 33.007 69.6795 32.1702 69.6795H30.6894V66.2817H30.6883ZM37.9631 63.0764C38.2207 63.0764 38.4139 63.2047 38.4783 63.3969C38.6716 63.8461 38.9286 64.6146 38.9931 65.0639H39.2507V62.8199H35.1946V63.0126H35.7099V69.6157H35.1308V69.8078H37.1263V69.6157H36.3534V63.0759L37.9631 63.0764ZM39.1863 70C39.4439 70 39.7015 69.7434 39.7015 69.4874C39.7015 69.2309 39.4439 68.9743 39.1863 68.9743C38.9286 68.9743 38.6716 69.2309 38.6716 69.4874C38.6716 69.744 38.9286 70 39.1863 70ZM44.6582 69.8717C45.8814 69.8717 46.7187 69.0382 46.7187 67.9487C46.7187 66.923 45.9458 66.2817 44.9164 66.1534C45.6887 65.9612 46.2678 65.3199 46.2678 64.5513C46.2678 63.5251 45.3667 62.8843 44.2723 62.8843H41.6327V63.0764H42.2118V69.6795H41.6327V69.8717H44.6582ZM42.9852 63.0764H44.0152C45.0452 63.0764 45.6248 63.9099 45.6248 64.5508C45.6248 65.3843 44.9808 66.0256 44.144 66.0256H43.0496V63.0759H42.9847L42.9852 63.0764ZM42.9852 66.2817H44.3372C45.2384 66.2817 45.9463 67.0513 45.9463 67.9487C45.9463 68.9104 45.3023 69.6795 44.4661 69.6795H42.9852V66.2817ZM47.6848 69.6795H47.2339V69.8717H48.7792V69.6795H47.9424L48.7792 67.0513H50.9035L51.7403 69.6795H51.0324V69.8717H52.9635V69.6795H52.5132L50.2595 62.8843H49.8086L47.6848 69.6795ZM49.8736 63.7817L50.9035 66.923H48.908L49.8736 63.7817ZM56.5687 62.8843V63.0764H57.2772L55.989 65.5126L54.8308 63.077H55.4748V62.8843H53.4788V63.0764H53.994L55.5387 66.3455L53.8008 69.6795H53.2217V69.8717H54.8308V69.6795H54.0584L55.6675 66.6026L57.0839 69.6795H56.5048V69.8717H58.5004V69.6795H57.8563L56.054 65.833L57.4704 63.0764H58.0495V62.8843H56.5687ZM59.0151 62.8843V65.1277H59.2727C59.3371 64.679 59.4015 64.0382 59.5947 63.5895C59.7236 63.333 59.9162 63.0764 60.2388 63.0764H60.8179V69.6795H60.1739V69.8717H62.2344V69.6795H61.5903V63.0764H62.1055C62.427 63.0764 62.6203 63.333 62.7496 63.5895C62.9423 64.0382 63.0067 64.679 63.0711 65.1277H63.3287V62.8843H59.0151ZM63.7796 69.679H63.3937V69.8711H64.9384V69.679H64.1016L64.9384 67.0508H67.0627L67.9 69.679H67.1916V69.8711H69.1232V69.679H68.6724L66.4192 62.8838H65.9684L63.7796 69.679ZM65.9684 63.7811L66.9989 66.9225H65.0028L65.9684 63.7811ZM70.7967 66.2817H73.6296V69.679H73.0505V69.8711H74.8528V69.679H74.3375V63.0759H74.9167V62.8838H73.1143V63.0759H73.6935V66.0251H70.8612V63.0759H71.4403V62.8838H69.638V63.0759H70.2171V69.679H69.638V69.8711H71.4403V69.679H70.8612V66.2811L70.7967 66.2817ZM77.1704 63.0759H78.7156C78.9727 63.0759 79.1659 63.2042 79.2303 63.3963C79.4235 63.8455 79.6812 64.6141 79.7456 65.0633H80.0032V62.8194H75.9466V63.012H76.5263V69.6151H75.9466V69.8073H77.9422V69.6151H77.1698L77.1704 63.0759ZM83.0287 62.7555C81.5479 62.7555 80.5179 64.2298 80.5179 66.3455C80.5179 68.5251 81.4191 69.9994 83.0287 69.9994C84.574 69.9994 85.5395 68.5251 85.5395 66.3455C85.5395 64.2298 84.574 62.7555 83.0287 62.7555ZM83.0287 69.7429C81.9988 69.7429 81.3547 68.8455 81.3547 66.3455C81.3547 64.0377 81.9343 63.0115 83.0287 63.0115C84.1231 63.0115 84.7028 64.0377 84.7028 66.3455C84.7672 68.846 84.1231 69.7429 83.0287 69.7429ZM89.1447 69.8711C90.3679 69.8711 91.2047 69.0376 91.2047 67.9481C91.2047 66.9225 90.4323 66.2811 89.4024 66.1528C90.1747 65.9607 90.7538 65.3193 90.7538 64.5508C90.7538 63.5246 89.8527 62.8838 88.7583 62.8838H86.1187V63.0759H86.6983V69.679H86.1187V69.8711H89.1447ZM87.4707 63.0759H88.5006C89.5312 63.0759 90.1103 63.9094 90.1103 64.5502C90.1103 65.3837 89.4668 66.0251 88.6295 66.0251H87.5351V63.0759H87.4707ZM87.4707 66.2811H88.8227C89.7238 66.2811 90.4323 67.0508 90.4323 67.9481C90.4323 68.9099 89.7883 69.679 88.9515 69.679H87.4707V66.2811ZM92.1702 69.679H91.7199V69.8711H93.2646V69.679H92.4279L93.2646 67.0508H95.3895L96.2263 69.679H95.5178V69.8711H97.4495V69.679H96.9986L94.7454 62.8838H94.2946L92.1702 69.679ZM94.359 63.7811L95.3895 66.9225H93.3934L94.359 63.7811ZM27.3413 60.1927V60.0644H27.0842V56.8587H27.3413V56.731H26.183V56.8587H26.4401V57.3079L25.3463 59.2943V56.8587H25.6039V56.7304H24.4446V56.8582H24.7022V60.0639H24.4446V60.1922H25.6028V60.0639H25.3463V59.5508L26.4407 57.5634V59.9995H26.183V60.1278H27.3418V60.1922L27.3413 60.1927ZM45.0452 60.1927V60.0644H44.7881V56.8587H45.0457V56.731H44.0796L43.2429 59.2309L42.4705 56.7304H41.5044V56.8587H41.762V60.0644H41.5049V60.1927H42.2773V60.0644H41.8908V57.0514L42.9208 60.1283H43.114L44.144 57.0514V60H43.7581V60.1283H45.0457L45.0452 60.1927ZM61.7835 58.9749H61.6552C61.5903 59.2948 61.5264 59.6796 61.3976 59.8718C61.3673 59.9308 61.3211 59.9802 61.2642 60.0142C61.2072 60.0483 61.1419 60.0657 61.0756 60.0644H60.2388V58.4618H60.5603C60.6891 58.4618 60.7535 58.5257 60.8179 58.5896C60.8829 58.7178 60.9468 58.9105 60.9468 59.1027H61.0756V57.6922H60.9468C60.9468 57.8849 60.8823 58.1414 60.8179 58.2692C60.7535 58.3336 60.6891 58.3974 60.5603 58.3974H60.2388V56.987H61.0756C61.14 56.987 61.2688 57.0514 61.3332 57.1152C61.3976 57.2435 61.5264 57.6283 61.5908 57.9487H61.7191V56.8587H59.3377V56.987H59.5947V60.1927H59.3371V60.321H61.7835V58.9749ZM78.0071 60.0644H77.7495V60.1927H78.9083V60.0644H78.6507V56.8587H78.9083V56.731H77.7495V56.8587H78.0071V58.2692H76.9127V56.8587H77.1698V56.731H76.0116V56.8587H76.2687V60.0644H76.011V60.1927H77.1698V60.0644H76.9127V58.3974H78.0071V60.0644ZM96.0969 60.1927V60.0644H95.8398V56.8587H96.0969V56.731H94.9381V56.8587H95.1958V57.3079L94.1014 59.2948V56.8592H94.359V56.731H93.2002V56.8587H93.4578V60.0644H93.2002V60.1927H94.359V60.0644H94.1014V59.5514L95.1958 57.5639V60H94.9381V60.1283H96.0969V60.1927ZM26.5045 21.0872C26.6977 21.0872 26.8904 21.2155 26.9548 21.4076C27.1481 21.7924 27.3413 22.4338 27.4057 22.8181H27.5989V20.895H24.1225V21.0233H24.5723V26.6646H24.1231V26.7929H25.7955V26.6646H25.1514V21.0872H26.5045ZM30.2385 20.8306C28.9504 20.8306 28.1136 22.0484 28.1136 23.8437C28.1136 25.7029 28.8865 26.9851 30.2385 26.9851C31.5256 26.9851 32.3629 25.7029 32.3629 23.8437C32.3629 22.049 31.5256 20.8306 30.2385 20.8306ZM30.2385 26.7929C29.3368 26.7929 28.8221 26.0238 28.8221 23.9081C28.8221 21.9846 29.3368 21.0872 30.2385 21.0872C31.1397 21.0872 31.6544 21.9846 31.6544 23.9081C31.6544 26.0238 31.1397 26.7929 30.2385 26.7929ZM36.676 24.8049C36.6116 25.318 36.4184 25.9589 36.2896 26.3437C36.2257 26.6002 35.7749 26.7924 35.3884 26.7924C34.4228 26.7924 33.7149 25.5102 33.7149 23.9714C33.7149 22.3694 34.4872 21.0866 35.3884 21.0866C35.7104 21.0866 36.0325 21.2149 36.1613 21.4071C36.2896 21.728 36.4828 22.1767 36.5472 22.7537H36.7404V21.2799C36.2896 20.9589 35.8393 20.895 35.3884 20.895C33.9076 20.895 33.007 22.4338 33.007 23.972C33.007 25.8955 33.972 27.0495 35.3884 27.0495C35.9675 27.0495 36.4828 26.9212 36.8048 26.5364V24.8699H36.676V24.806V24.8049ZM37.706 20.9584V21.0866H38.0924L39.9597 26.0871L39.8309 26.4076C39.7659 26.6002 39.38 26.7918 39.2512 26.7918C38.9936 26.7918 38.736 26.6641 38.6721 26.472C38.4789 26.0227 38.2857 25.2542 38.2857 24.6767H38.0924V26.728C38.3501 26.8562 38.8648 26.9845 39.1868 26.9845C39.7021 26.9845 40.0236 26.728 40.1524 26.3437L41.827 21.0866H42.2129V20.9584H40.8614V21.0866H41.5055L40.2173 25.1892L38.7365 21.0866H39.3806V20.9584H37.706ZM43.7576 20.9584L42.0841 26.7924H41.6976V28.4594H41.8908C41.9509 28.0348 42.0814 27.6233 42.2767 27.2416C42.4056 27.0489 42.5344 26.9207 42.7276 26.9207H45.174C45.3672 26.9207 45.6248 27.0489 45.6893 27.2411C45.8819 27.6253 46.0107 28.0102 46.0752 28.4588H46.2684V26.7918H45.8819L44.0796 20.9584H43.7576ZM45.3028 26.728H42.2773L43.7576 21.5997L45.3028 26.728ZM47.1051 26.728H46.7192V26.8562H48.0707V26.728H47.3628L48.0707 24.4845H49.8736L50.5815 26.728H50.0024V26.8562H51.612V26.728H51.2256L49.2939 20.895H48.908L47.1057 26.7285L47.1051 26.728ZM48.9075 21.6636L49.7447 24.3563H48.0068L48.9075 21.6636ZM53.1567 23.9714H54.1223C55.4743 23.9714 56.1184 23.3945 56.1184 22.561C56.1184 21.6636 55.4743 20.9589 54.1223 20.9589H52.1267V21.0866H52.5776V26.7285H52.1267V26.8562H53.8652V26.728H53.1567V23.972V23.9714ZM53.1567 21.0866H54.1223C55.024 21.0866 55.4743 21.7919 55.4743 22.4971C55.4743 23.0741 55.024 23.7793 54.0584 23.7793H53.1567V21.0866ZM60.1739 24.8049C60.1095 25.318 59.9168 25.9589 59.788 26.3437C59.723 26.6002 59.2727 26.7924 58.8863 26.7924C57.9207 26.7924 57.2128 25.5102 57.2128 23.9714C57.2128 22.3694 57.9851 21.0866 58.8863 21.0866C59.2083 21.0866 59.5303 21.2149 59.6591 21.4071C59.788 21.728 59.9806 22.1767 60.0451 22.7537H60.2383V21.2799C59.788 20.9589 59.3371 20.895 58.8863 20.895C57.406 20.895 56.5048 22.4338 56.5048 23.972C56.5048 25.8955 57.4704 27.0495 58.8863 27.0495C59.4654 27.0495 59.9806 26.9212 60.3027 26.5364V24.8699H60.1739V24.806V24.8049ZM61.0756 20.9584V22.8819H61.2682C61.3332 22.4971 61.3971 21.9202 61.5259 21.5353C61.6547 21.2793 61.7835 21.0866 62.0411 21.0866H62.5559V26.7285H61.9767V26.8562H63.7146V26.728H63.1355V21.0872H63.6502C63.9079 21.0872 64.1011 21.2799 64.1655 21.5364C64.3587 21.9207 64.4231 22.4338 64.4231 22.8825H64.6163V20.9589L61.0756 20.9584ZM68.0927 26.9212C69.1227 26.9212 69.895 26.216 69.895 25.3186C69.895 24.4851 69.251 23.9081 68.4142 23.7798V23.7154C69.0583 23.5233 69.573 23.0107 69.573 22.3694C69.573 21.5359 68.8007 20.9589 67.8995 20.9589H65.6463V21.0872H66.0966V26.7291H65.6463V26.8568H68.0927V26.9212ZM66.6763 21.0866H67.5131C68.3498 21.0866 68.8651 21.7919 68.8651 22.3694C68.8651 23.0741 68.3498 23.651 67.5775 23.651H66.6763V21.0866ZM66.6763 23.8432H67.8346C68.6074 23.8432 69.2515 24.5484 69.2515 25.2536C69.2515 26.0871 68.6724 26.728 67.9634 26.728H66.6763V23.8432ZM71.4403 23.9076H72.0844C72.277 23.9076 72.4058 24.0359 72.4703 24.0997C72.5991 24.3563 72.7279 24.8049 72.7279 25.0615H72.9206V22.4977H72.7279C72.7279 22.8181 72.5991 23.2668 72.4703 23.4594C72.4058 23.5877 72.2126 23.7154 72.0838 23.7154H71.4397V21.0872H73.1138C73.307 21.0872 73.5646 21.2799 73.629 21.4076C73.8223 21.8568 73.9511 22.3694 74.0155 22.8181H74.2087V20.895H70.3459V21.0233H70.7962V26.6646H70.3459V26.7929H74.337V24.6134H74.1443C74.0794 25.2542 73.9511 25.7029 73.8223 26.1516C73.7573 26.4081 73.5646 26.6008 73.307 26.6008H71.4397V23.9081L71.4403 23.9076ZM76.3331 23.8432H78.7151V26.728H78.2642V26.8562H79.8094V26.728H79.3586V21.0872H79.8094V20.9589H78.2642V21.0872H78.7151V23.6521H76.3331V21.0872H76.7834V20.9589H75.2387V21.0872H75.689V26.7291H75.2387V26.8568H76.7834V26.7285H76.3331V23.8432ZM81.483 23.8432H83.8649V26.728H83.4146V26.8562H84.9593V26.728H84.509V21.0872H84.9593V20.9589H83.4146V21.0872H83.8649V23.6521H81.483V21.0872H81.9338V20.9589H80.3886V21.0872H80.8394V26.7291H80.3886V26.8568H81.9338V26.7285H81.483V23.8432ZM86.6334 21.0866H87.3413V20.9584H85.6034V21.0866H86.0537V26.7285H85.6034V26.8562H87.5989C88.6933 26.8562 89.5945 26.0871 89.5945 25.1254C89.5945 24.1641 88.6933 23.4583 87.5989 23.4583H86.6334V21.0877V21.0866ZM86.6334 26.7285V23.7149H87.5345C88.3074 23.7149 88.951 24.3563 88.951 25.1898C88.951 26.0233 88.3713 26.728 87.5989 26.728L86.6334 26.7285ZM90.0453 26.7285H89.5945V26.8562H91.1397V26.728H90.6894V21.0872H91.1397V20.9589H89.5945V21.0872H90.0453V26.7291V26.7285ZM92.2341 26.7285H91.7194V26.8562H93.2641V26.728H92.8138V26.2793L95.1958 21.984V26.728H94.7449V26.8562H96.2901V26.728H95.8393V21.0872H96.2901V20.9589H94.7449V21.0872H95.1958V21.4715L92.8138 25.7673V21.0866H93.2641V20.9584H91.7194V21.0866H92.1697V26.7285H92.2341ZM94.037 20.5741C93.7793 20.5741 93.3929 20.4458 93.3285 20.3175C93.4573 20.2531 93.5861 20.061 93.5861 19.9333C93.5861 19.6762 93.3929 19.484 93.1997 19.484C93.1402 19.4825 93.081 19.493 93.0258 19.515C92.9705 19.537 92.9203 19.5701 92.8782 19.6121C92.8361 19.6541 92.8029 19.7042 92.7808 19.7594C92.7586 19.8147 92.748 19.8738 92.7494 19.9333C92.7494 20.3814 93.3285 20.7018 94.1014 20.7018C94.8093 20.7018 95.389 20.3814 95.389 19.9333C95.389 19.6762 95.1958 19.484 95.0025 19.484C94.943 19.4825 94.8839 19.493 94.8286 19.515C94.7733 19.537 94.723 19.57 94.6809 19.612C94.6387 19.6541 94.6055 19.7042 94.5833 19.7594C94.5611 19.8146 94.5504 19.8738 94.5517 19.9333C94.5517 20.061 94.6805 20.2531 94.8093 20.3175C94.6161 20.4458 94.2941 20.5741 94.037 20.5741ZM82.3208 38.8458L83.1581 44.1023L78.3297 40.4484V54.2315H72.5996V40.4484L67.7718 44.1023L68.6085 38.8458H82.3208ZM52.0618 54.3576H57.0195L55.7963 51.1519L56.6331 49.8697H61.2038L63.8435 54.3576H70.4742L61.2682 38.6509L52.0618 54.3576ZM39.3817 38.8458H50.1328L50.9696 42.051L45.1756 40.4484V44.7436L48.9096 44.1023L49.7464 47.308L45.24 46.6666V52.6289L51.8063 51.0263L50.9696 54.2315H39.5105V38.8458H39.3817ZM36.8043 38.8458L37.6416 44.1023L32.8132 40.4484V54.2315H27.0836V40.4484L22.1909 44.1023L23.0276 38.8458H36.8043Z" fill="#9B0000"/>
</svg>
