<svg width="114" height="40" viewBox="0 0 114 40" fill="none" xmlns="http://www.w3.org/2000/svg">
<path d="M60.3952 27.4656L57.1111 12.9604L53.8532 27.4623L60.3952 27.4656ZM57.1352 5.44159L57.1842 5.44173C58.3082 5.44223 59.2775 6.19891 59.5441 7.27904C61.1275 13.6918 66.3169 34.6998 66.3169 34.6998L65.4641 34.6994C63.5253 34.6984 61.8386 33.3739 61.3808 31.4926L52.7808 31.4883L52.3651 33.1879C52.1491 34.0709 51.3565 34.6921 50.4459 34.6917C49.1636 34.6912 48.2211 33.4922 48.5296 32.2493C49.9441 26.5475 53.4411 12.4517 54.7099 7.33504C54.986 6.22186 55.9866 5.44109 57.1352 5.44159Z" fill="#4750D5"/>
<path d="M96.4518 27.0732C93.8979 32.2076 88.6708 35.6976 82.4983 35.6945C73.8988 35.69 66.9069 28.7015 66.9116 20.0321C66.9159 11.4862 73.9149 4.46405 82.5144 4.46851C88.6867 4.47155 93.993 7.96678 96.459 13.0627C94.6096 13.9743 92.3822 13.5705 90.9714 12.0683C88.9934 9.96205 86.203 8.6066 83.0509 8.46583C76.6374 8.17974 71.0991 13.2758 70.9081 19.6835C70.711 26.2947 76.0074 31.7059 82.5004 31.7091C85.8826 31.7108 88.8441 30.2963 90.9461 28.0334C92.3533 26.5186 94.606 26.1398 96.4518 27.0732Z" fill="#4750D5"/>
<path d="M103.21 9.49159L99.5063 9.48964C98.393 9.48918 97.4908 8.58732 97.4912 7.47545C97.4918 6.36373 98.3951 5.46268 99.5084 5.46332L112.964 5.47023C112.963 7.694 111.156 9.49559 108.93 9.49464L107.242 9.49364L107.231 30.6945C107.23 32.9183 105.424 34.72 103.197 34.7189L103.21 9.49159Z" fill="#4750D5"/>
<path d="M31.6034 13.2353L31.5965 26.9028L31.5902 26.9089L28.0922 28.9165L22.1087 32.3623L22.1103 32.3607L22.1174 18.7098L6.64733 9.77362L6.63672 30.339L6.66126 30.3512L20.0321 38.0709L21.1271 38.7014L21.564 38.9535V38.953L21.5654 38.9538L22.1051 39.2646L28.0887 35.8207L37.5756 30.3547L37.587 9.79607L31.6034 13.2353Z" fill="#4750D5"/>
<path d="M19.8046 21.5201C19.6368 20.8155 19.0424 20.2812 18.3501 20.2129C17.781 20.1566 17.2703 20.3816 16.9139 20.7626C16.3522 21.3631 15.7151 21.8804 14.9607 22.1527L14.3729 22.365C12.2998 23.0301 10.0822 22.3496 8.73179 20.6338L6.23973 17.4674C5.45976 16.4765 4.96093 15.2959 4.56429 14.0736C4.53921 13.9963 4.50857 13.9185 4.47211 13.8407C4.24678 13.3603 3.8084 13.0047 3.30251 12.9104C2.11671 12.6892 1.11896 13.6992 1.19011 14.8649C1.2309 15.5313 1.50535 15.9383 2.11462 16.2802C3.37749 16.9891 4.44257 18.0236 5.34927 19.1824C6.32358 20.4279 7.26898 21.6878 7.26898 21.6878C8.82798 23.6682 9.49847 26.2704 9.11527 28.8532L8.81564 30.8737C8.68508 31.7548 8.23237 33.1192 7.71974 33.8412C7.41784 34.2664 7.28583 34.8243 7.42585 35.399C7.59752 36.1036 8.19654 36.6352 8.8908 36.6983C10.0009 36.7997 10.9027 35.8308 10.8349 34.7207C10.8243 34.5451 10.7896 34.3782 10.7347 34.2225C10.3835 33.2267 10.3883 32.1209 10.546 31.0579L10.8836 28.7823C11.2059 26.6079 12.7066 24.7967 14.7211 24.1502L14.7811 24.1287C15.7383 23.7842 16.7657 23.5992 17.7437 23.8059C17.9006 23.8391 18.0652 23.8492 18.2347 23.833C19.2963 23.7307 20.0736 22.6497 19.8046 21.5201Z" fill="white"/>
<path d="M37.5868 9.79605L22.1171 18.7098L6.64697 9.77364L22.1255 0.834412L31.6083 6.33855L37.5868 9.79605Z" fill="white"/>
<path d="M37.5756 30.3547L28.0877 35.8195L22.105 39.2645L22.1103 32.3607L28.0912 28.9168L31.5963 26.9029L37.5756 30.3547Z" fill="white"/>
</svg>
