<svg width="47" height="46" viewBox="0 0 47 46" fill="none" xmlns="http://www.w3.org/2000/svg">
<path fill-rule="evenodd" clip-rule="evenodd" d="M7.47745 19.0759V36.9216H10.8174V19.0759H7.47745ZM44.3055 43.51C42.4835 42.534 40.3975 42.164 38.3494 42.452C36.3014 42.742 34.3994 43.6759 32.9176 45.1199V28.692C32.9176 28.46 32.8176 28.24 32.6436 28.088C34.1116 26.54 36.0476 25.514 38.1558 25.174C40.2638 24.832 42.4237 25.194 44.3059 26.202L44.3055 43.51ZM31.3176 45.1199C29.8356 43.6759 27.9336 42.742 25.8858 42.452C23.8378 42.164 21.7519 42.534 19.9277 43.51V26.2019C21.8117 25.1938 23.9717 24.8319 26.0799 25.1739C28.1859 25.5139 30.1238 26.5399 31.592 28.0879C31.418 28.2399 31.318 28.4599 31.318 28.6919L31.3176 45.1199ZM22.7534 35.16H29.2916V35.158C29.7336 35.158 30.0916 34.8 30.0916 34.358C30.0916 33.916 29.7336 33.558 29.2916 33.558H22.7534C22.3114 33.558 21.9534 33.916 21.9534 34.358C21.9534 34.8 22.3114 35.158 22.7534 35.158V35.16ZM29.2916 30.2281L22.7534 30.2261C22.3114 30.2261 21.9534 30.5841 21.9534 31.0261C21.9534 31.4681 22.3114 31.8261 22.7534 31.8261H29.2916C29.7336 31.8261 30.0916 31.4681 30.0916 31.0261C30.0916 30.5841 29.7336 30.2261 29.2916 30.2261V30.2281ZM41.4798 30.2281L34.9436 30.2261C34.5016 30.2261 34.1436 30.5841 34.1436 31.0261C34.1436 31.4681 34.5016 31.8261 34.9436 31.8261H41.4818C41.9238 31.8261 42.2818 31.4681 42.2818 31.0261C42.2818 30.5841 41.9238 30.2261 41.4818 30.2261L41.4798 30.2281ZM41.4798 33.56L34.9436 33.558C34.5016 33.558 34.1436 33.916 34.1436 34.358C34.1436 34.8 34.5016 35.158 34.9436 35.158H41.4818C41.9238 35.158 42.2818 34.8 42.2818 34.358C42.2818 33.916 41.9238 33.558 41.4818 33.558L41.4798 33.56ZM41.4798 36.892L34.9436 36.89C34.5016 36.89 34.1436 37.248 34.1436 37.69C34.1436 38.132 34.5016 38.49 34.9436 38.49H41.4818C41.9238 38.49 42.2818 38.132 42.2818 37.69C42.2818 37.248 41.9238 36.89 41.4818 36.89L41.4798 36.892ZM22.7519 38.492H29.2901L29.2921 38.49C29.7341 38.49 30.0921 38.132 30.0921 37.69C30.0921 37.248 29.7341 36.89 29.2921 36.89H22.7539C22.3119 36.89 21.9539 37.248 21.9539 37.69C21.9539 38.132 22.3119 38.49 22.7539 38.49L22.7519 38.492ZM17.4338 28.6939H18.3278V46H17.4338L17.4358 28.6919L17.4338 28.6939ZM45.9034 28.6939L46.7994 28.6919V46H45.9054V28.6919L45.9034 28.6939ZM45.5674 46L43.5514 44.9199C42.0854 44.136 40.4154 43.82 38.7654 44.012C37.1154 44.206 35.5634 44.898 34.3194 46H45.5674ZM29.9156 46C28.6716 44.9 27.1197 44.206 25.4697 44.012C23.8196 43.82 22.1497 44.136 20.6836 44.9199L18.6677 46H29.9156ZM4.13961 17.476C3.70161 17.472 3.35159 17.116 3.35159 16.68C3.35159 16.242 3.70159 15.888 4.13961 15.882H43.4595C43.8995 15.882 44.2575 16.24 44.2575 16.68C44.2575 17.12 43.8995 17.476 43.4595 17.476H4.13961ZM36.7836 19.076V23.836H36.7816C37.8696 23.546 38.9956 23.418 40.1216 23.458V19.076L36.7836 19.076ZM23.7998 0L0.799843 13.3401H46.7998L23.7998 0ZM20.5298 10.8001C20.0878 10.8001 19.7298 10.4421 19.7298 10.0001C19.7298 9.55809 20.0878 9.20009 20.5298 9.20009H27.0696C27.5116 9.20009 27.8696 9.55809 27.8696 10.0001C27.8696 10.4421 27.5116 10.8001 27.0696 10.8001H20.5298ZM0.799997 43.4599C0.357999 43.4599 0 43.1019 0 42.6599C0 42.2179 0.357999 41.8599 0.799997 41.8599H15.8358V43.4599H0.799997ZM15.8358 40.12L4.13976 40.122C3.69776 40.122 3.33976 39.764 3.33976 39.322C3.33976 38.88 3.69776 38.522 4.13976 38.522H15.8358V40.12Z" fill="#34386F"/>
</svg>
