<svg width="50" height="46" viewBox="0 0 50 46" fill="none" xmlns="http://www.w3.org/2000/svg">
<path d="M48.3769 16.6983L36.016 12.7773V42.6665H48.3769V16.6983ZM41.344 34.9742C41.344 35.1161 41.2295 35.2282 41.0901 35.2282H38.9217C38.7798 35.2282 38.6678 35.1136 38.6678 34.9742V31.917C38.6678 31.7751 38.7823 31.6631 38.9217 31.6631H41.0901C41.232 31.6631 41.344 31.7776 41.344 31.917V34.9742ZM41.3963 29.7238C41.3963 29.8657 41.2818 29.9777 41.1424 29.9777H38.974C38.8321 29.9777 38.7201 29.8632 38.7201 29.7238V26.6666C38.7201 26.5247 38.8346 26.4126 38.974 26.4126H41.1424C41.2843 26.4126 41.3963 26.5272 41.3963 26.6666V29.7238ZM41.4187 24.5853C41.4187 24.7272 41.3042 24.8393 41.1648 24.8393H38.9964C38.8545 24.8393 38.7425 24.7247 38.7425 24.5853V21.5281C38.7425 21.3862 38.857 21.2742 38.9964 21.2742H41.1648C41.3067 21.2742 41.4187 21.3887 41.4187 21.5281V24.5853ZM45.6808 34.9743C45.6808 35.1163 45.5663 35.2283 45.4269 35.2283H43.2585C43.1166 35.2283 43.0046 35.1138 43.0046 34.9743V31.9172C43.0046 31.7753 43.1191 31.6632 43.2585 31.6632H45.4269C45.5688 31.6632 45.6808 31.7778 45.6808 31.9172V34.9743ZM45.7331 29.7239C45.7331 29.8658 45.6186 29.9778 45.4791 29.9778H43.3108C43.1689 29.9778 43.0568 29.8633 43.0568 29.7239V26.6667C43.0568 26.5248 43.1714 26.4128 43.3108 26.4128H45.4791C45.6211 26.4128 45.7331 26.5273 45.7331 26.6667V29.7239ZM45.7555 24.5855C45.7555 24.7274 45.641 24.8394 45.5016 24.8394H43.3332C43.1913 24.8394 43.0793 24.7249 43.0793 24.5855V21.5283C43.0793 21.3864 43.1938 21.2743 43.3332 21.2743H45.5016C45.6435 21.2743 45.7555 21.3889 45.7555 21.5283V24.5855ZM13.3616 12.7752L1.00066 16.6962V42.6646H13.3616V12.7752ZM3.61751 21.5282C3.61751 21.3863 3.73203 21.2743 3.87145 21.2743H6.03981C6.18172 21.2743 6.29375 21.3888 6.29375 21.5282V24.5854C6.29375 24.7273 6.17923 24.8393 6.03981 24.8393H3.87145C3.72954 24.8393 3.61751 24.7248 3.61751 24.5854V21.5282ZM3.63992 26.6666C3.63992 26.5247 3.75444 26.4127 3.89385 26.4127H6.06471C6.20661 26.4127 6.31864 26.5272 6.31864 26.6666V29.7238C6.31864 29.8657 6.20412 29.9778 6.06471 29.9778H3.89385C3.75195 29.9778 3.63992 29.8632 3.63992 29.7238V26.6666ZM6.37346 34.9742C6.37346 35.1161 6.25894 35.2281 6.11953 35.2281H3.95116C3.80925 35.2281 3.69722 35.1136 3.69722 34.9742V31.917C3.69722 31.7751 3.81175 31.663 3.95116 31.663H6.11953C6.26144 31.663 6.37346 31.7776 6.37346 31.917V34.9742ZM7.95683 21.5279C7.95683 21.386 8.07135 21.274 8.21077 21.274H10.3791C10.521 21.274 10.6331 21.3885 10.6331 21.5279V24.5851C10.6331 24.727 10.5186 24.839 10.3791 24.839H8.21077C8.06886 24.839 7.95683 24.7245 7.95683 24.5851V21.5279ZM7.97924 26.6663C7.97924 26.5244 8.09376 26.4124 8.23318 26.4124H10.4015C10.5435 26.4124 10.6555 26.5269 10.6555 26.6663V29.7235C10.6555 29.8654 10.541 29.9774 10.4015 29.9774H8.23318C8.09127 29.9774 7.97924 29.8629 7.97924 29.7235V26.6663ZM10.7128 34.9738C10.7128 35.1157 10.5983 35.2278 10.4589 35.2278H8.29048C8.14858 35.2278 8.03655 35.1133 8.03655 34.9738V31.9167C8.03655 31.7748 8.15107 31.6627 8.29048 31.6627H10.4589C10.6008 31.6627 10.7128 31.7772 10.7128 31.9167V34.9738ZM48.6285 43.1743H25.1673V36.1013H29.4269C29.5688 36.1013 29.6809 36.2158 29.6809 36.3552V42.6637H35.4989L35.5064 7.99898H31.6053C31.4634 7.99898 31.3513 7.88446 31.3513 7.74505C31.3513 7.60314 31.4659 7.49111 31.6053 7.49111H33.0791V0H16.4213V7.49111H17.8279C17.9698 7.49111 18.0819 7.60563 18.0819 7.74505C18.0819 7.88695 17.9673 7.99898 17.8279 7.99898H13.8745V42.6662H19.247V36.3578C19.247 36.2158 19.3615 36.1038 19.5009 36.1038H23.7581V43.1768L0.749366 43.1744H0V46H49.4322V43.1744L48.6285 43.1743ZM30.2882 29.6586C30.2882 29.8005 30.1737 29.9125 30.0343 29.9125H27.8659C27.724 29.9125 27.612 29.798 27.612 29.6586V26.6014C27.612 26.4595 27.7265 26.3474 27.8659 26.3474H30.0343C30.1762 26.3474 30.2882 26.462 30.2882 26.6014V29.6586ZM30.2658 24.5201C30.2658 24.662 30.1513 24.7741 30.0119 24.7741H27.8435C27.7016 24.7741 27.5896 24.6595 27.5896 24.5201V21.4629C27.5896 21.321 27.7041 21.209 27.8435 21.209H30.0119C30.1538 21.209 30.2658 21.3235 30.2658 21.4629V24.5201ZM30.2434 16.3248V19.382C30.2434 19.5239 30.1289 19.6359 29.9895 19.6359H27.8211C27.6792 19.6359 27.5672 19.5214 27.5672 19.382V16.3248C27.5672 16.1829 27.6817 16.0708 27.8211 16.0708H29.9895C30.1314 16.0708 30.2434 16.1854 30.2434 16.3248ZM18.8863 16.3248C18.8863 16.1829 19.0008 16.0708 19.1402 16.0708H21.3086C21.4505 16.0708 21.5625 16.1854 21.5625 16.3248V19.382C21.5625 19.5239 21.448 19.6359 21.3086 19.6359H19.1402C18.9983 19.6359 18.8863 19.5214 18.8863 19.382V16.3248ZM18.9087 21.4632C18.9087 21.3213 19.0232 21.2093 19.1626 21.2093H21.331C21.4729 21.2093 21.5849 21.3238 21.5849 21.4632V24.5204C21.5849 24.6623 21.4704 24.7743 21.331 24.7743H19.1626C19.0207 24.7743 18.9087 24.6598 18.9087 24.5204V21.4632ZM21.6099 29.6586C21.6099 29.8005 21.4953 29.9125 21.3559 29.9125H19.1875C19.0456 29.9125 18.9336 29.798 18.9336 29.6586V26.6014C18.9336 26.4595 19.0481 26.3474 19.1875 26.3474H21.3559C21.4978 26.3474 21.6099 26.462 21.6099 26.6014V29.6586ZM22.7127 12.6751V9.72005H19.7577C19.6158 9.72005 19.5037 9.60553 19.5037 9.46612V6.02807C19.5037 5.88616 19.6182 5.77413 19.7577 5.77413H22.7127V2.81905C22.7127 2.67715 22.8273 2.56512 22.9667 2.56512H26.4047C26.5466 2.56512 26.6587 2.67964 26.6587 2.81905V5.77413H29.6137C29.7556 5.77413 29.8677 5.88865 29.8677 6.02807V9.46612C29.8677 9.60802 29.7532 9.72005 29.6137 9.72005H26.6587V12.6751C26.6587 12.817 26.5441 12.9291 26.4047 12.9291H22.9667C22.8248 12.9291 22.7127 12.8145 22.7127 12.6751ZM23.2231 16.3273C23.2231 16.1854 23.3376 16.0734 23.477 16.0734H25.6454C25.7873 16.0734 25.8993 16.1879 25.8993 16.3273V19.3845C25.8993 19.5264 25.7848 19.6384 25.6454 19.6384H23.477C23.3351 19.6384 23.2231 19.5239 23.2231 19.3845V16.3273ZM23.2455 21.4657C23.2455 21.3238 23.36 21.2118 23.4994 21.2118H25.6678C25.8097 21.2118 25.9217 21.3263 25.9217 21.4657V24.5229C25.9217 24.6648 25.8072 24.7769 25.6678 24.7769H23.4994C23.3575 24.7769 23.2455 24.6623 23.2455 24.5229V21.4657ZM23.5243 29.9154C23.3824 29.9154 23.2704 29.8009 23.2704 29.6615V26.6043C23.2704 26.4624 23.3849 26.3503 23.5243 26.3503H25.6927C25.8346 26.3503 25.9466 26.4649 25.9466 26.6043V29.6615C25.9466 29.8034 25.8321 29.9154 25.6927 29.9154H23.5243Z" fill="#34386F"/>
</svg>
