<svg width="56" height="46" viewBox="0 0 56 46" fill="none" xmlns="http://www.w3.org/2000/svg">
<path d="M53.5518 44.3633V41.0095H48.8576V39.3841H53.5518V36.2633H48.8576V34.6378H53.5518V31.5171H48.8576V29.8916H53.5518V26.7871H48.8576V25.1616H53.5518V22.3767H48.8576V20.7513H53.5518V17.4192C53.5518 17.1212 53.3968 16.8449 53.1438 16.7041L46.668 13.1011V44.3631H45.1187V12.7758H41.762V44.3631H40.2128V7.45522C40.2128 7.15452 40.0527 6.87549 39.7996 6.73459L27.5247 0V44.3631H25.9754V0.0492398L16.1224 6.77301C15.903 6.92472 15.7713 7.18207 15.7713 7.45569V44.3635H14.222V12.7763H10.8653V44.3635H9.31605V13.1015L2.85575 16.7045C2.60271 16.8454 2.44778 17.1217 2.44778 17.4197V20.7518H7.142V22.3772H2.44778V25.1621H7.142V26.7875H2.44778V29.9029H7.142V31.5283H2.44778V34.6491H7.142V36.2746H2.44778V39.3954H7.142V41.0208H2.44778V44.3746H0V46H56V44.3746L53.5518 44.3633ZM36.1897 9.99159H37.739V14.7269H36.1897V9.99159ZM36.1897 16.8075H37.739V21.5428H36.1897V16.8075ZM36.1897 23.6233H37.739V28.3587H36.1897V23.6233ZM36.1897 30.4392H37.739V35.1746H36.1897V30.4392ZM36.1897 37.2551H37.739V42.0121H36.1897V37.2551ZM33.0912 8.72344H34.6405V14.7483H33.0912V8.72344ZM33.0912 16.807H34.6405V21.5423H33.0912V16.807ZM33.0912 23.6228H34.6405V28.3582H33.0912V23.6228ZM33.0912 30.4387H34.6405V35.1741H33.0912V30.4387ZM33.0912 37.2546H34.6405V42.0116H33.0912V37.2546ZM29.9928 7.45522H31.542V14.7482H29.9928V7.45522ZM29.9928 16.8016H31.542V21.537H29.9928V16.8016ZM29.9928 23.6175H31.542V28.3529H29.9928V23.6175ZM29.9928 30.4334H31.542V35.1687H29.9928V30.4334ZM29.9928 37.2493H31.542V42.0117H29.9928V37.2493ZM21.8022 8.74466H23.3515V14.7478H21.8022V8.74466ZM21.8022 16.8282H23.3515V21.5635H21.8022V16.8282ZM21.8022 23.6441H23.3515V28.3794H21.8022V23.6441ZM21.8022 30.4599H23.3515V35.1953H21.8022V30.4599ZM21.8022 37.2758H23.3515V42.0112H21.8022V37.2758ZM18.4042 9.99041H19.9535V14.7258H18.4042V9.99041ZM18.4042 16.8063H19.9535V21.5416H18.4042V16.8063ZM18.4042 23.6222H19.9535V28.3575H18.4042V23.6222ZM18.4042 30.438H19.9535V35.1734H18.4042V30.438ZM18.4042 37.2539H19.9535V42.0109H18.4042V37.2539Z" fill="#34386F"/>
</svg>
