<svg width="120" height="120" viewBox="0 0 120 120" fill="none" xmlns="http://www.w3.org/2000/svg">
<circle cx="60" cy="60" r="60" fill="url(#paint0_linear_836_2352)" fill-opacity="0.6"/>
<circle cx="60" cy="60" r="51.25" fill="#34386F" stroke="white" stroke-width="1.5"/>
<path d="M78.2771 65.802C76.9972 65.7166 69.7446 63.4982 67.0996 62.3037C67.0143 65.546 66.9289 71.0068 66.9289 71.4334C66.8436 72.0306 65.9904 74.761 63.3453 78.3446C63.3453 78.3446 63.1747 75.9556 62.9187 73.0545C62.748 70.9214 61.3829 69.7269 61.3829 68.6177C61.3829 68.2764 62.4067 67.5938 62.4067 66.9112C62.4067 66.2286 62.1508 65.4607 60.7003 65.4607C59.2498 65.4607 58.9938 66.1433 58.9938 66.9112C58.9938 67.5938 60.0177 68.2764 60.0177 68.6177C60.0177 69.7269 58.6525 70.9214 58.4818 73.0545C58.2259 75.9556 58.0552 78.3446 58.0552 78.3446C55.3248 74.761 54.5569 72.0306 54.4716 71.4334C54.3863 71.0068 54.3009 65.546 54.3009 62.3037C51.6559 63.4982 44.4033 65.7166 43.1235 65.802C41.673 65.8873 41.2463 66.3139 40.5637 67.5938C39.8812 68.7883 38.1747 74.5904 37.8334 78.6006C46.7924 82.5255 59.591 84.9999 73.7549 84.9999C77.1678 84.9999 80.5808 84.8293 83.8231 84.5733C83.3965 77.3207 81.7753 68.703 81.0928 67.5938C80.1542 66.3139 79.7276 65.9726 78.2771 65.802Z" fill="white"/>
<path d="M51.9119 48.3959C51.9119 49.0785 52.0825 50.8703 52.2532 52.3208C52.3385 53.7713 53.2771 53.6007 53.3624 53.43C53.3624 55.4778 55.0689 57.4403 55.0689 57.4403C55.8368 58.6348 58.4818 60.256 60.6149 60.256C56.69 60.256 55.0689 58.7201 55.0689 58.7201C55.0689 59.8293 55.0689 61.2799 55.0689 61.7918L59.847 65.1194H61.2975L66.0757 61.7918C66.0757 60.9386 66.0757 57.4403 66.0757 57.4403C66.0757 57.4403 67.7822 55.3925 67.7822 53.43C67.9528 53.6007 68.8061 53.7713 68.8914 52.3208C68.9767 50.8703 69.1474 49.0785 69.2327 48.3959C69.2327 47.7133 68.3794 47.884 68.3794 48.2253C68.3794 47.628 68.2941 47.4573 68.3794 47.372C68.4648 47.2867 68.9767 46.7747 68.9767 46.2628C68.9767 45.7509 69.2327 45.4096 69.2327 44.471C69.2327 43.5324 69.2327 41.1433 69.2327 40.5461C69.2327 39.9488 68.6354 40.2901 68.6354 39.9488C68.6354 39.6075 68.2941 38.157 66.3317 38.157C66.8436 37.7304 67.1849 36.3652 67.0996 35.7679C66.9289 36.1945 66.161 36.4505 65.6491 36.4505C63.3453 36.4505 62.4921 35 59.7617 35C56.2634 35.0853 54.8982 36.9625 54.8982 38.0717C52.9358 38.0717 52.5945 39.5222 52.5945 39.8635C52.5945 40.2048 51.9972 39.8635 51.9972 40.4607C51.9972 41.058 51.9972 43.4471 51.9972 44.3857C51.9972 45.3242 52.2532 45.6655 52.2532 46.1775C52.2532 46.6894 52.7651 47.2014 52.8504 47.2867C52.9358 47.372 52.8504 47.5427 52.8504 48.1399C52.7651 47.884 51.9119 47.7133 51.9119 48.3959Z" fill="white"/>
<rect x="68.6666" y="75.8333" width="7.5" height="5" rx="1" fill="#34386F"/>
<path d="M35.6446 56.6608L28.9895 51.7446L27.6013 53.3118L35.6446 59.7951L47.5429 46.3622L46.1548 44.7951L35.6446 56.6608Z" fill="white"/>
<path fill-rule="evenodd" clip-rule="evenodd" d="M46.1548 44.1667L48.0995 46.3622L35.6928 60.3691L27 53.3622L28.9304 51.1829L35.5855 56.0991L46.1548 44.1667ZM46.1548 45.4235L35.7037 57.2225L29.0486 52.3063L28.2026 53.2613L35.5964 59.2211L46.9863 46.3622L46.1548 45.4235Z" fill="white"/>
<defs>
<linearGradient id="paint0_linear_836_2352" x1="60" y1="0" x2="60" y2="120" gradientUnits="userSpaceOnUse">
<stop stop-color="#646BD5" stop-opacity="0.7"/>
<stop offset="1" stop-color="#1F224E"/>
</linearGradient>
</defs>
</svg>
