<svg width="120" height="120" viewBox="0 0 120 120" fill="none" xmlns="http://www.w3.org/2000/svg">
<circle cx="60" cy="60" r="60" fill="url(#paint0_linear_836_2367)" fill-opacity="0.6"/>
<circle cx="60" cy="60" r="51.25" fill="#34386F" stroke="white" stroke-width="1.5"/>
<path fill-rule="evenodd" clip-rule="evenodd" d="M58.5364 47.1854H59.2725L60.8498 51.0514H58.8727L58.5364 47.1854ZM84.322 45.5694H83.7367L78.0994 57.3346L78.7149 57.2681H78.7164L84.322 45.5694ZM82.9844 45.5694H80.3077L75.7574 55.066C76.0102 55.0582 76.2646 55.1054 76.5043 55.2098C77.0092 55.4294 77.3649 55.8608 77.477 56.3889L77.576 56.8559L82.9844 45.5694ZM79.5553 45.5694H78.97L74.0678 55.7989L74.8735 55.3397L79.5553 45.5694ZM59.8371 45.5694H60.4224L66.0597 57.3346L65.4443 57.2681H65.4427L59.8371 45.5694ZM61.1747 45.5694H63.8515L68.4017 55.066C68.1489 55.0582 67.8945 55.1054 67.6548 55.2098C67.1499 55.4294 66.7942 55.8608 66.6821 56.3897L66.5831 56.8567L61.1747 45.5694ZM64.6038 45.5694H65.1891L70.0905 55.7989L69.2849 55.3397L64.6038 45.5694ZM72.08 61.0436C74.1669 61.0436 75.8579 62.7353 75.8579 64.8214C75.8579 66.9075 74.1661 68.5993 72.08 68.5993C69.9939 68.5993 68.3022 66.9076 68.3022 64.8214C68.3022 62.7346 69.9939 61.0436 72.08 61.0436ZM72.5177 55.6366L73.4169 56.8877C73.5793 57.1142 73.8847 57.1792 74.1252 57.0384L75.4558 56.2614C75.6105 56.1717 75.7829 56.1616 75.9461 56.2343C76.1092 56.307 76.2182 56.4415 76.2546 56.617L76.5677 58.1256C76.6241 58.3985 76.877 58.5818 77.1538 58.5516L78.6855 58.383C78.8633 58.3637 79.0249 58.4248 79.1448 58.5578C79.2646 58.6908 79.3087 58.8578 79.2708 59.0325L78.943 60.5387C78.8842 60.8109 79.0396 61.0807 79.3056 61.1658L80.7732 61.6344C80.9433 61.6893 81.0662 61.8107 81.1219 61.9808C81.1768 62.1509 81.1497 62.321 81.0438 62.4655L80.1322 63.7081C79.9675 63.9323 80 64.2431 80.2079 64.4287L81.3585 65.454C81.4915 65.573 81.5541 65.7339 81.5355 65.9117C81.517 66.0895 81.4219 66.2341 81.2672 66.323L79.9288 67.087C79.6868 67.2246 79.5909 67.5215 79.7054 67.7759L80.3386 69.1808C80.4121 69.344 80.4036 69.5164 80.3139 69.6718C80.2242 69.8265 80.0788 69.92 79.901 69.9378L78.3677 70.0917C78.0901 70.1195 77.8814 70.3515 77.8829 70.6298L77.8907 72.1708C77.8914 72.3502 77.8133 72.5041 77.6687 72.6092C77.5242 72.7144 77.3533 72.7407 77.1832 72.685L75.7203 72.2018C75.4559 72.1144 75.1705 72.2412 75.0584 72.4963L74.4383 73.9074C74.3664 74.0714 74.2319 74.1804 74.0571 74.2175C73.8824 74.2546 73.7154 74.2098 73.5831 74.0891L72.4434 73.0523C72.237 72.8644 71.9246 72.8644 71.7189 73.0523L70.5792 74.0891C70.447 74.2098 70.28 74.2546 70.1053 74.2175C69.9305 74.1804 69.796 74.0714 69.7241 73.9074L69.104 72.4963C68.9919 72.2412 68.7066 72.1144 68.4421 72.2018L66.9784 72.685C66.8091 72.7407 66.6382 72.7144 66.4929 72.6092C66.3483 72.5041 66.2702 72.3502 66.271 72.1708L66.2787 70.6298C66.2802 70.3507 66.0715 70.1188 65.7939 70.0917L64.2606 69.9378C64.0828 69.92 63.9374 69.8265 63.8478 69.6718C63.7581 69.5172 63.7496 69.344 63.823 69.1808L64.4563 67.7759C64.5707 67.5223 64.474 67.2254 64.232 67.087L62.8936 66.323C62.7382 66.2341 62.6439 66.0895 62.6253 65.9117C62.6068 65.7339 62.6694 65.5723 62.8024 65.454L63.9529 64.4287C64.1609 64.2431 64.1934 63.9323 64.0287 63.7081L63.1171 62.4655C63.0111 62.321 62.9841 62.1509 63.039 61.9808C63.0939 61.8106 63.2168 61.6885 63.3869 61.6344L64.8545 61.165C65.1197 61.08 65.2759 60.8101 65.2163 60.5379L64.8885 59.0317C64.8506 58.857 64.8947 58.69 65.0145 58.557C65.1344 58.424 65.296 58.3622 65.4738 58.3823L67.0055 58.5508C67.2823 58.581 67.5352 58.3977 67.5916 58.1248L67.9047 56.6163C67.9411 56.4408 68.0493 56.3062 68.2133 56.2335C68.3764 56.1609 68.5496 56.1701 68.7035 56.2606L70.0342 57.0377C70.2746 57.1784 70.58 57.1134 70.7424 56.8869L71.6424 55.6359C71.7468 55.4905 71.9007 55.4116 72.0793 55.4116C72.2587 55.4116 72.4118 55.4905 72.5169 55.6359L72.5177 55.6366ZM72.3847 58.4286L73.011 59.2992C73.1246 59.4569 73.3365 59.5018 73.5043 59.4036L74.4306 58.8631C74.538 58.8005 74.6587 58.7935 74.7723 58.8445C74.886 58.8956 74.9618 58.9891 74.9865 59.1105L75.2046 60.1605C75.244 60.3508 75.4195 60.4783 75.6128 60.4567L76.6791 60.3392C76.8028 60.3252 76.9149 60.3685 76.9984 60.4605C77.0819 60.5533 77.1128 60.6693 77.0865 60.7915L76.8585 61.8392C76.8175 62.0286 76.9257 62.2165 77.1105 62.276L78.1319 62.6023C78.2502 62.6402 78.336 62.7253 78.3747 62.8436C78.4126 62.9619 78.394 63.0809 78.3206 63.1815L77.6858 64.0467C77.5714 64.2029 77.5938 64.4186 77.7384 64.5477L78.5386 65.2614C78.6314 65.3441 78.6747 65.4562 78.6616 65.5807C78.6484 65.7044 78.5827 65.8049 78.4745 65.8668L77.5428 66.3988C77.3742 66.4946 77.3069 66.7011 77.3873 66.8781L77.8281 67.8555C77.8791 67.9691 77.8729 68.089 77.8111 68.1972C77.7492 68.3047 77.6479 68.3704 77.5242 68.3828L76.4564 68.4895C76.2639 68.5088 76.1178 68.6704 76.1193 68.8645L76.124 69.9369C76.1247 70.0614 76.0698 70.1689 75.9693 70.2416C75.8688 70.315 75.7497 70.3336 75.6314 70.2942L74.6131 69.9578C74.4291 69.8975 74.2304 69.9849 74.1523 70.1627L73.7209 71.1447C73.6706 71.2591 73.5778 71.3349 73.4557 71.3604C73.3335 71.3859 73.2175 71.355 73.1255 71.2715L72.3322 70.5501C72.1884 70.4194 71.9719 70.4202 71.828 70.5501L71.0347 71.2715C70.9427 71.355 70.826 71.3867 70.7046 71.3604C70.5832 71.3349 70.4896 71.2584 70.4394 71.1447L70.0079 70.1627C69.9298 69.9849 69.7319 69.8967 69.5471 69.9578L68.5288 70.2942C68.4105 70.3336 68.2914 70.315 68.1909 70.2416C68.0904 70.1681 68.0355 70.0607 68.0363 69.9369L68.0409 68.8645C68.0417 68.6704 67.8963 68.5096 67.7038 68.4895L66.6368 68.3828C66.5131 68.3704 66.4118 68.3055 66.3492 68.1972C66.2873 68.0898 66.2811 67.9691 66.3322 67.8555L66.7729 66.8781C66.8525 66.7011 66.7853 66.4946 66.6175 66.3988L65.6858 65.8668C65.5775 65.8049 65.5118 65.7044 65.4987 65.5807C65.4855 65.457 65.5288 65.3449 65.6216 65.2614L66.4219 64.5477C66.5665 64.4186 66.5889 64.2028 66.4744 64.0467L65.8396 63.1815C65.7662 63.0809 65.7469 62.9626 65.7855 62.8443C65.8242 62.726 65.9092 62.641 66.0275 62.6031L67.049 62.2768C67.2338 62.218 67.3428 62.0294 67.301 61.8407L67.0729 60.793C67.0466 60.6709 67.0776 60.5549 67.1603 60.4621C67.2438 60.3693 67.3559 60.3268 67.4796 60.3407L68.5459 60.4582C68.7384 60.4791 68.9147 60.3515 68.9541 60.1621L69.1722 59.1121C69.1977 58.9899 69.2727 58.8964 69.3863 58.8461C69.5 58.7958 69.6206 58.802 69.7281 58.8646L70.6544 59.4051C70.8214 59.5033 71.0341 59.4577 71.1477 59.3007L71.774 58.4301C71.8467 58.3288 71.9534 58.2739 72.0779 58.2739C72.2024 58.2739 72.3099 58.3288 72.3825 58.4301L72.3847 58.4286ZM29.7781 48.2323L29.441 48.5354V62.8235C29.7541 62.9913 29.9667 63.3214 29.9667 63.7011C29.9667 64.0521 29.785 64.3606 29.5105 64.5384L30.7175 68.099H27.2914L28.5053 64.581C28.1898 64.414 27.9749 64.0823 27.9749 63.7003C27.9749 63.2913 28.2215 62.9403 28.5741 62.7864V48.5262C28.5741 48.2162 28.7852 47.9548 29.0891 47.8899L30.4901 47.5899L29.778 48.2309L29.7781 48.2323ZM54.192 43.0403L56.6569 52.2384C53.7126 51.7938 49.8658 53.6781 48.4416 55.6313C43.5666 54.7019 39.8126 55.3862 36.4894 57.3926C35.785 54.2573 35.0977 50.3155 34.7706 48.5194C37.9174 45.5649 45.4966 43.0234 54.1911 43.0396L54.192 43.0403ZM36.7855 42.7117L30.3317 48.52V52.9397L34.4382 52.11C34.2279 50.9719 34.0237 49.8321 33.8165 48.6932C33.7562 48.3591 33.8598 48.0437 34.1073 47.8117C36.1848 45.8609 39.4293 44.5356 42.1254 43.7353C45.9953 42.5856 50.1628 42.0621 54.1944 42.0691C54.639 42.0699 55.0148 42.359 55.13 42.7882L55.6983 44.9083L67.7277 37L36.7855 42.7117ZM27.9719 50.6439L24 54.2191L27.9719 53.4166V50.6439ZM67.2471 47.1845H76.9129L75.1029 51.0505H69.0564L67.2471 47.1845ZM84.8877 47.1845H87.2739C88.1407 47.1845 88.8497 47.8936 88.8497 48.7603V83H35.5405V59.0849C36.6299 58.9179 37.9761 58.7609 39.4064 58.7076V79.135H84.9841V51.0512H83.3109L84.8877 47.1845Z" fill="white"/>
<rect x="42.5226" y="62.3506" width="15.7349" height="1.74832" fill="white"/>
<rect x="42.5226" y="65.8473" width="15.7349" height="1.74832" fill="white"/>
<rect x="42.5226" y="69.344" width="9.61576" height="1.74832" fill="white"/>
<defs>
<linearGradient id="paint0_linear_836_2367" x1="60" y1="0" x2="60" y2="120" gradientUnits="userSpaceOnUse">
<stop stop-color="#646BD5" stop-opacity="0.7"/>
<stop offset="1" stop-color="#1F224E"/>
</linearGradient>
</defs>
</svg>
