<svg width="52" height="50" viewBox="0 0 52 50" fill="none" xmlns="http://www.w3.org/2000/svg">
<path fill-rule="evenodd" clip-rule="evenodd" d="M35.8527 1.12344C34.3138 1.41296 32.3361 2.20173 31.2149 2.97321C30.0216 3.79413 26.5599 7.07238 19.9321 13.6577L14.6395 18.9166L15.0276 19.2587C15.6135 19.7749 17.1243 20.7492 17.9332 21.1323C20.5211 22.358 23.0169 22.2791 25.7811 20.8842C26.8565 20.3415 27.2262 20.0415 30.6779 16.9101C32.3736 15.3717 33.7983 14.1132 33.8439 14.1132C33.8896 14.1132 36.5423 16.7805 39.7388 20.0406L45.5508 25.9681L46.1576 25.3103C46.4913 24.9485 47.329 24.0446 48.0191 23.3014C48.7093 22.5582 49.4883 21.6235 49.7504 21.2241C50.6619 19.8355 51.3981 17.6574 51.5323 15.9523C51.5725 15.443 51.6318 15.164 51.6827 15.2444C51.7299 15.3189 51.7603 14.866 51.752 14.2143C51.74 13.2813 51.7236 13.1614 51.6689 13.6075L51.6007 14.1637L51.5826 13.6075C51.5586 12.8692 51.2438 11.4117 50.9055 10.4727C49.6477 6.98177 46.7983 3.8183 43.4313 2.17433C41.6065 1.28332 40.6103 1.05144 38.4216 1.00806C37.1508 0.982881 36.4266 1.01544 35.8527 1.12344ZM11.1817 1.62451C8.07705 2.13216 5.35994 3.68745 3.21763 6.18299C1.80168 7.83223 1.06196 9.09678 0.421642 10.9621C0.0531452 12.0357 0.0514261 12.0482 0.0141113 14.0212C-0.0207765 15.8646 -0.00570905 16.0758 0.231731 17.061C0.6158 18.6548 1.30607 20.2679 2.2893 21.8694C2.87916 22.8302 4.1414 24.2273 5.75776 25.7087L7.22336 27.0518L9.09486 25.1974C10.1242 24.1775 11.1711 23.2267 11.4214 23.0844C13.0294 22.1704 14.9677 22.3737 16.2865 23.5948C17.1441 24.3889 17.5091 25.1353 17.569 26.2178L17.6149 27.0471L18.2347 26.9892C18.9268 26.9246 19.845 27.1158 20.5365 27.4686C21.6358 28.0295 22.5058 29.3805 22.6163 30.6984L22.6773 31.4262L23.0462 31.3673C23.588 31.2806 24.5095 31.4603 25.2138 31.7899C26.4814 32.383 27.3637 33.6613 27.4687 35.0566L27.5251 35.8043L28.1656 35.7706C29.7616 35.6866 31.327 36.6533 32.0326 38.1587C32.2669 38.6586 32.3036 38.8669 32.3036 39.6976C32.3036 40.7924 32.1329 41.3634 31.5949 42.0682L31.2618 42.5046L31.8333 43.0674C32.5032 43.7273 32.8009 43.8597 33.6066 43.8565C35.3351 43.8495 36.8018 41.9863 36.2939 40.4426C36.1943 40.1396 35.2768 39.1448 32.2196 36.0252L28.2739 31.9987L28.9236 31.352L29.5732 30.7052L33.5745 34.6237C36.8615 37.8427 37.649 38.5641 37.9851 38.6648C39.2477 39.0431 40.6782 38.3867 41.2969 37.1451C41.6021 36.5327 41.6483 35.6238 41.4007 35.1022C41.3151 34.9217 39.529 33.0999 37.4316 31.0539C35.3343 29.0077 33.6057 27.2826 33.5903 27.2202C33.5544 27.0744 34.7276 25.9088 34.8605 25.9581C34.9155 25.9786 36.7241 27.6275 38.8797 29.6225C41.6044 32.1443 42.9383 33.3115 43.2566 33.4523C44.3839 33.9509 45.981 33.2522 46.549 32.0121C46.8191 31.4223 46.8335 30.3843 46.5781 29.9074C46.3361 29.4557 33.9569 16.6918 33.7607 16.6918C33.7205 16.6918 32.6081 17.6702 31.2887 18.866C29.9692 20.0618 28.5885 21.2682 28.2202 21.5468C26.9224 22.529 25.1223 23.3016 23.2612 23.6754C22.6206 23.804 22.0823 23.8345 21.087 23.7987C19.8992 23.7561 19.6511 23.7131 18.6568 23.3776C16.5854 22.679 14.5424 21.4226 12.8536 19.8091L11.9776 18.9721L18.1868 12.7801L24.3961 6.5883L23.3947 5.64633C21.472 3.83762 19.9792 2.90232 17.9557 2.23844C15.9088 1.56687 13.0941 1.31184 11.1817 1.62451ZM12.8292 24.4649C12.6302 24.5361 12.3751 24.6593 12.2624 24.7386C12.1495 24.818 10.664 26.2511 8.96097 27.9234C6.76415 30.0808 5.81621 31.0795 5.6979 31.3616C5.16568 32.6306 5.9052 34.0238 7.2721 34.3273C7.79319 34.443 8.50268 34.3254 8.90718 34.0563C9.05057 33.9609 10.5438 32.5329 12.2255 30.883C15.3649 27.8027 15.7705 27.3137 15.7692 26.6102C15.7681 25.9931 15.5513 25.4962 15.0758 25.0207C14.4192 24.3641 13.6462 24.1729 12.8292 24.4649ZM17.8502 28.8964C17.5361 28.9839 16.9857 29.4573 15.221 31.1579C11.9137 34.3451 10.8411 35.4565 10.667 35.8769C10.0094 37.4647 11.5107 39.1492 13.2507 38.776C13.8674 38.6438 14.072 38.464 17.774 34.7994C19.1898 33.3978 20.4263 32.0879 20.5402 31.8687C20.8481 31.2767 20.7691 30.3444 20.3618 29.7642C19.8206 28.9935 18.7859 28.636 17.8502 28.8964ZM22.4673 33.372C22.2855 33.4539 20.7156 34.9119 18.9785 36.6119C15.5073 40.0093 15.3266 40.2392 15.3933 41.1745C15.4974 42.6372 17.0055 43.6035 18.3705 43.0822C18.7546 42.9355 19.4366 42.3215 21.9839 39.8297C23.8082 38.045 25.2224 36.5795 25.3591 36.3318C25.5538 35.9788 25.5882 35.79 25.5587 35.2358C25.5177 34.4659 25.232 33.9555 24.6036 33.5301C24.1421 33.2178 22.9975 33.1331 22.4673 33.372ZM27.5002 37.7064C27.2484 37.786 26.3257 38.6136 24.3038 40.5735C20.62 44.1445 20.4665 44.3142 20.317 44.9821C20.1169 45.8761 20.4683 46.739 21.2406 47.25C21.8376 47.6451 22.8276 47.7028 23.464 47.3795C23.7526 47.2327 25.0277 46.0425 27.0741 44.0092C30.0609 41.0416 30.2469 40.8354 30.3948 40.3267C30.6269 39.5281 30.4536 38.8885 29.837 38.268C29.187 37.614 28.3949 37.4237 27.5002 37.7064ZM27.8531 45.8714L26.0339 47.6968L26.5901 48.2031C27.2923 48.8423 27.6496 49.0012 28.3818 49C30.1715 48.997 31.6343 47.0412 30.9937 45.5079C30.8584 45.1843 29.878 44.0459 29.7345 44.0459C29.7002 44.0459 28.8536 44.8674 27.8531 45.8714Z" fill="#34386F"/>
</svg>
