<svg width="41" height="50" viewBox="0 0 41 50" fill="none" xmlns="http://www.w3.org/2000/svg">
<g clip-path="url(#clip0_425_765)">
<path d="M35.1215 0H34.5402H6.94023H6.35898V0.58125V1.7375C6.35898 4.0125 4.50898 5.86875 2.22773 5.86875H1.07148H0.490234V6.45V25.1187C0.490234 34.225 5.54648 42.4063 13.684 46.475L20.4777 49.875L20.7402 50L20.9965 49.8688L27.7902 46.4687C35.9277 42.4 40.984 34.2188 40.984 25.1125V6.44375V5.8625H40.4027H39.2465C36.9715 5.8625 35.1152 4.0125 35.1152 1.73125V0.575V0H35.1215ZM39.2527 6.44375H40.409V25.1125C40.409 33.9938 35.4777 41.9812 27.534 45.95L20.7402 49.35L13.9465 45.95C6.00898 41.9812 1.07148 33.9938 1.07148 25.1125V6.44375H2.22773C4.82148 6.44375 6.93398 4.33125 6.93398 1.7375V0.58125H34.5402V1.7375C34.5402 4.33125 36.6527 6.44375 39.2527 6.44375Z" stroke="#34386F"/>
<path d="M20.9095 3.3335H9.23984C9.23984 6.37946 6.80554 8.82324 3.82324 8.82324V25.2048C3.82324 33.0506 8.18421 40.2124 15.1121 43.7261L20.9095 46.6668L26.701 43.7319C33.6347 40.2183 37.9899 33.0565 37.9899 25.2106V8.82324C35.0134 8.82324 32.5733 6.37946 32.5733 3.3335H20.9095Z" fill="#34386F"/>
<path d="M20.2 26.0322L13.5449 21.116L12.1567 22.6832L20.2 29.1665L32.0983 15.7337L30.7102 14.1665L20.2 26.0322Z" fill="white"/>
<path fill-rule="evenodd" clip-rule="evenodd" d="M30.7102 13.5381L32.6549 15.7337L20.2482 29.7405L11.5554 22.7337L13.4858 20.5543L20.1409 25.4705L30.7102 13.5381ZM30.7102 14.7949L20.2591 26.5939L13.604 21.6777L12.7581 22.6327L20.1519 28.5925L31.5417 15.7337L30.7102 14.7949Z" fill="white"/>
</g>
<defs>
<clipPath id="clip0_425_765">
<rect width="40.4937" height="50" fill="white" transform="translate(0.490234)"/>
</clipPath>
</defs>
</svg>
