<svg width="48" height="50" viewBox="0 0 48 50" fill="none" xmlns="http://www.w3.org/2000/svg">
<g clip-path="url(#clip0_437_913)">
<path fill-rule="evenodd" clip-rule="evenodd" d="M30.5439 26.4292C33.228 27.6171 40.5877 29.8233 41.8864 29.9081C43.3583 30.0778 43.7913 30.4172 44.7437 31.69C45.4364 32.7931 47.0814 41.3632 47.5144 48.5756C44.2242 48.8302 40.7608 48.9999 37.2975 48.9999C22.9246 48.9999 9.937 46.5391 0.845703 42.6359C1.19204 38.6479 2.92371 32.878 3.61638 31.69C4.30905 30.4172 4.74197 29.993 6.2139 29.9081C7.51265 29.8233 14.8723 27.6171 17.5564 26.4292C17.5564 26.5571 17.5565 26.6885 17.5568 26.8229L17.7593 26.6244L22.6535 29.9818C22.9055 29.7292 23.3346 29.5687 24.0502 29.5687C24.7835 29.5687 25.2159 29.7583 25.4653 30.0325L29.9365 26.6244H30.5388C30.5405 26.5585 30.5422 26.4934 30.5439 26.4292Z" fill="#34386F"/>
<path d="M32.5649 9.79639C31.8907 10.3173 30.3152 11.5525 29.8288 11.9338C25.9744 10.391 21.6314 10.391 17.777 11.9338L15.4346 10.0208C15.46 10.1422 15.4772 10.2618 15.4772 10.3926C15.4772 10.9017 15.9967 11.4108 16.0833 11.4957C16.1326 11.544 16.1257 11.6199 16.1107 11.786C16.0993 11.9115 16.0833 12.0886 16.0833 12.3442C15.9967 12.0896 15.1309 11.9199 15.1309 12.5987C15.1309 13.2776 15.304 15.0594 15.4772 16.5019C15.5638 17.9444 16.5162 17.7747 16.6028 17.605C16.6028 19.6415 18.3345 21.5931 18.3345 21.5931C19.1137 22.781 21.7978 24.3932 23.9624 24.3932C19.9796 24.3932 18.3345 22.8658 18.3345 22.8658V25.9205L23.1832 29.2297H24.6551L29.5038 25.9205V21.5931C29.5038 21.5931 31.2354 19.5566 31.2354 17.605C31.4086 17.7747 32.2744 17.9444 32.361 16.5019C32.4476 15.0594 32.6208 13.2776 32.7074 12.5987C32.7074 11.9199 31.8415 12.0896 31.8415 12.429C31.8415 12.1734 31.8255 11.9964 31.8141 11.8709C31.7991 11.7047 31.7922 11.6288 31.8415 11.5805C31.9281 11.4957 32.4476 10.9865 32.4476 10.4774C32.4476 10.2612 32.4945 10.0755 32.5484 9.86194C32.5539 9.84039 32.5594 9.81856 32.5649 9.79639Z" fill="#34386F"/>
<path d="M15.7285 11.2101L18.2654 13.1991C20.1258 12.3703 25.0643 11.2101 29.9352 13.1991L32.4721 10.7129" stroke="white"/>
<path d="M17.7775 12.9281C21.6319 11.3852 25.9749 11.3852 29.8293 12.9281C30.3722 12.5025 32.2723 11.0128 32.7609 10.6404V9.94876C26.9521 8.1399 20.6547 8.0867 14.8459 9.89556V10.534L17.7775 12.9281Z" fill="#34386F"/>
<path d="M32.7609 8.83151V6.11822C32.7609 2.7665 29.9379 0 26.5178 0H21.089C17.6689 0 14.8459 2.7665 14.8459 6.11822V8.83151C20.709 7.07585 26.9521 7.07585 32.7609 8.83151Z" fill="#34386F"/>
<path d="M3.40089 23.9002C3.79724 24.0683 4.2502 24.1804 4.64655 24.2364L6.68491 29.1107C7.30774 28.8306 12.1771 27.0937 12.1771 27.0937L10.0822 21.9953C11.6109 19.8663 11.4977 17.009 9.74244 15.0481L8.32692 19.194L5.0429 19.4742L2.94792 16.953L4.81641 13.1992C1.75888 13.6474 -0.392718 16.3927 0.06025 19.4181C0.286734 21.4911 1.5324 23.1159 3.40089 23.9002Z" fill="#34386F"/>
<path d="M40.1029 29.1107L42.8645 22.3588C45.3656 21.9401 47.033 19.5324 46.6161 17.0201C46.4598 16.1826 46.0951 15.3975 45.574 14.7694L44.6882 16.9154C44.3756 17.6481 43.594 17.9622 42.8645 17.7005L41.6661 17.1771C40.9366 16.863 40.624 16.0779 40.9366 15.3452L41.8224 13.1992C39.2692 13.3562 37.3934 15.5545 37.5497 18.0669C37.6018 18.9043 37.9144 19.7418 38.3834 20.4745L35.5176 27.4358L40.1029 29.1107Z" fill="#34386F"/>
<path d="M10.1482 39.0553V28.9384L12.1778 28.3218V39.0553H36.532V28.5317L38.5616 29.1107V39.0553H40.5911L41.6059 48.5028C28.414 49.4972 16.2368 47.5083 7.61133 45.0221L8.11871 39.0553H10.1482Z" fill="#34386F" stroke="white"/>
<rect x="8.61914" y="32.5942" width="5.08857" height="1.9834" fill="#34386F" stroke="white"/>
<rect x="35.002" y="32.5942" width="5.08857" height="1.9834" fill="#34386F" stroke="white"/>
</g>
<defs>
<clipPath id="clip0_437_913">
<rect width="48" height="50" fill="white"/>
</clipPath>
</defs>
</svg>
