<svg width="47" height="50" viewBox="0 0 47 50" fill="none" xmlns="http://www.w3.org/2000/svg">
<g clip-path="url(#clip0_437_983)">
<path d="M40.9378 30.802C39.658 30.7167 32.4054 28.4983 29.7604 27.3037C29.675 30.546 29.5897 36.0068 29.5897 36.4334C29.5044 37.0307 28.6511 39.7611 26.0061 43.3447C26.0061 43.3447 25.8354 40.9556 25.5795 38.0546C25.4088 35.9215 24.0436 34.7269 24.0436 33.6177C24.0436 33.2764 25.0675 32.5938 25.0675 31.9112C25.0675 31.2286 24.8115 30.4607 23.361 30.4607C21.9105 30.4607 21.6546 31.1433 21.6546 31.9112C21.6546 32.5938 22.6784 33.2764 22.6784 33.6177C22.6784 34.7269 21.3133 35.9215 21.1426 38.0546C20.8866 40.9556 20.716 43.3447 20.716 43.3447C17.9856 39.7611 17.2177 37.0307 17.1324 36.4334C17.047 36.0068 16.9617 30.546 16.9617 27.3037C14.3167 28.4983 7.06411 30.7167 5.78424 30.802C4.33373 30.8873 3.90711 31.314 3.22452 32.5938C2.54192 33.7884 0.835438 39.5904 0.494141 43.6006C9.45319 47.5256 22.2518 50 36.4156 50C39.8286 50 43.2416 49.8293 46.4839 49.5733C46.0573 42.3208 44.4361 33.703 43.7535 32.5938C42.815 31.314 42.3883 30.9727 40.9378 30.802Z" fill="#34386F"/>
<path d="M14.5723 13.3959C14.5723 14.0785 14.7429 15.8703 14.9136 17.3208C14.9989 18.7713 15.9375 18.6007 16.0228 18.43C16.0228 20.4778 17.7293 22.4403 17.7293 22.4403C18.4972 23.6348 21.1422 25.256 23.2753 25.256C19.3504 25.256 17.7293 23.7201 17.7293 23.7201C17.7293 24.8294 17.7293 26.2799 17.7293 26.7918L22.5074 30.1195H23.9579L28.7361 26.7918C28.7361 25.9386 28.7361 22.4403 28.7361 22.4403C28.7361 22.4403 30.4426 20.3925 30.4426 18.43C30.6132 18.6007 31.4665 18.7713 31.5518 17.3208C31.6371 15.8703 31.8078 14.0785 31.8931 13.3959C31.8931 12.7133 31.0398 12.884 31.0398 13.2253C31.0398 12.628 30.9545 12.4573 31.0398 12.372C31.1252 12.2867 31.6371 11.7747 31.6371 11.2628C31.6371 10.7509 31.8931 10.4096 31.8931 9.47099C31.8931 8.53242 31.8931 6.14334 31.8931 5.54608C31.8931 4.94881 31.2958 5.2901 31.2958 4.9488C31.2958 4.60751 30.9545 3.157 28.9921 3.157C29.504 2.73038 29.8453 1.36519 29.76 0.767918C29.5893 1.19454 28.8214 1.45051 28.3095 1.45051C26.0057 1.45051 25.1525 0 22.4221 0C18.9238 0.0853242 17.5586 1.96246 17.5586 3.07167C15.5962 3.07167 15.2549 4.52218 15.2549 4.86348C15.2549 5.20478 14.6576 4.86348 14.6576 5.46075C14.6576 6.05802 14.6576 8.4471 14.6576 9.38567C14.6576 10.3242 14.9136 10.6655 14.9136 11.1775C14.9136 11.6894 15.4255 12.2014 15.5108 12.2867C15.5962 12.372 15.5108 12.5427 15.5108 13.1399C15.4255 12.884 14.5723 12.7133 14.5723 13.3959Z" fill="#34386F"/>
<rect x="32.4941" y="39" width="8" height="5" rx="1" fill="white"/>
</g>
<defs>
<clipPath id="clip0_437_983">
<rect width="45.9898" height="50" fill="white" transform="translate(0.494141)"/>
</clipPath>
</defs>
</svg>
