<svg width="38" height="50" viewBox="0 0 38 50" fill="none" xmlns="http://www.w3.org/2000/svg">
<path fill-rule="evenodd" clip-rule="evenodd" d="M4.9408 2.10534L0.779297 4.17041V26.1223C0.779297 46.63 0.833991 48.0905 1.6116 48.3136C2.06912 48.4446 3.79509 48.7825 5.44589 49.0644C7.09717 49.3464 8.75607 49.6922 9.13179 49.8324C9.72153 50.0528 9.8157 46.6318 9.8157 25.041C9.8157 11.2651 9.65542 0.00462766 9.459 0.0175893C9.26257 0.030088 7.22986 0.969804 4.9408 2.10534Z" fill="#AAACC9"/>
<path fill-rule="evenodd" clip-rule="evenodd" d="M11.2422 24.997V50L13.0257 49.7621C15.1806 49.4746 23.847 48.6001 24.5404 48.6001C24.8757 48.6001 25.0346 41.0903 25.0346 25.2229C25.0346 12.3654 24.8743 1.84287 24.6779 1.83963C24.4815 1.83639 21.6459 1.42254 18.3762 0.919816C15.1064 0.41709 12.1639 0.00324344 11.8367 3.02642e-06C11.3682 -0.00462613 11.2422 5.29993 11.2422 24.997ZM26.3154 25.1072C26.4423 37.6466 26.6159 47.9747 26.7006 48.059C26.7857 48.1432 29.3349 47.9544 32.3655 47.6391L37.8758 47.066V25.4668V3.86766L32.5177 3.08811C29.5709 2.65945 26.918 2.30856 26.6221 2.30856C26.2264 2.30856 26.1456 8.32879 26.3154 25.1072ZM13.1446 4.76202C13.1446 5.18512 14.7145 5.53323 18.438 5.93643C23.3248 6.46508 24.6622 6.42111 23.9768 5.75405C23.7048 5.48879 15.4698 4.18337 13.9769 4.16856C13.5194 4.16393 13.1446 4.43103 13.1446 4.76202ZM13.1446 6.58452C13.1446 7.10854 14.0259 7.34601 16.8305 7.57793C18.8575 7.74551 21.4795 7.99456 22.6566 8.13158C24.5599 8.35285 24.7045 8.30795 23.9631 7.72282C23.5046 7.36129 21.4923 6.92059 19.491 6.74422C17.4901 6.56785 15.2434 6.30491 14.4986 6.15956C13.496 5.96467 13.1446 6.07484 13.1446 6.58452ZM28.3638 6.39333C28.3638 7.0229 29.3435 7.27704 33.2387 7.65755C35.2519 7.85429 36.449 7.80106 36.449 7.51451C36.449 7.26315 35.1116 6.91365 33.4765 6.73774C31.8418 6.56183 30.0227 6.30399 29.4339 6.16465C28.8427 6.02485 28.3638 6.12715 28.3638 6.39333ZM13.205 8.4871C12.746 9.02547 13.302 9.1824 16.586 9.43885C18.7476 9.60828 21.479 9.87492 22.6552 10.0318C24.5419 10.2837 24.7231 10.2337 24.1885 9.60735C23.7747 9.12175 22.2685 8.79725 19.4339 8.58246C17.152 8.40933 14.9404 8.17185 14.5195 8.0552C14.0986 7.93808 13.507 8.13251 13.205 8.4871ZM28.3638 8.21814C28.3638 8.48247 29.7016 8.83382 31.3363 8.99955C32.9714 9.16527 34.9508 9.40413 35.7356 9.53005C37.0925 9.74762 37.1172 9.72355 36.2392 9.0426C35.7313 8.64865 34.7449 8.32647 34.0462 8.32647C33.3481 8.32647 31.7838 8.19407 30.5706 8.03205C29.1685 7.84503 28.3638 7.91308 28.3638 8.21814ZM28.5279 9.83141C28.1269 10.4628 28.3176 10.5077 32.882 10.8586C35.9253 11.0924 37.0206 11.0442 36.6711 10.691C36.0347 10.0471 28.8708 9.29072 28.5279 9.83141ZM12.9306 10.6035C12.7817 10.8378 13.9997 11.1419 15.6372 11.2799C24.5956 12.0335 24.5304 12.0326 24.2779 11.3924C23.8998 10.4332 13.498 9.71012 12.9306 10.6035ZM28.3638 11.5021C28.3638 12.1502 30.1868 12.4793 33.8094 12.4862C35.7218 12.4899 36.9246 12.3224 36.663 12.0881C36.0314 11.5229 28.3638 10.9813 28.3638 11.5021ZM27.1772 27.762C26.8228 28.848 27.2761 30.5464 27.92 30.5464C28.4974 30.5464 28.4993 27.4421 27.9224 27.0949C27.6799 26.9491 27.3441 27.2491 27.1772 27.762ZM22.093 28.1161C21.8233 29.2142 22.1515 30.5464 22.6913 30.5464C22.9339 30.5464 23.1322 29.8173 23.1322 28.9262C23.1322 27.2421 22.4402 26.7028 22.093 28.1161Z" fill="#34386F"/>
<path fill-rule="evenodd" clip-rule="evenodd" d="M4.05455 21.0036C3.7011 21.4666 3.38047 21.8882 3.34182 21.941C3.3034 21.9937 2.97463 21.7626 2.61164 21.4273C2.05794 20.9159 1.90775 20.8687 1.67957 21.1338C1.46186 21.3867 1.59714 21.6324 2.35783 22.3656C3.16719 23.1456 3.29106 23.3871 3.19164 23.9939C3.12761 24.3857 2.80629 24.9768 2.47751 25.3076C2.14851 25.6384 1.87958 26.0239 1.87958 26.1642C1.87958 26.6298 2.36855 26.7192 2.80978 26.3345C3.22493 25.9723 3.26708 25.9965 3.72717 26.8659C4.5165 28.3574 5.50864 28.6289 6.57342 27.6458C7.12013 27.1408 7.27405 27.095 7.58559 27.3444C8.18562 27.8244 8.59681 27.2524 8.06151 26.6824C7.72296 26.3217 7.63401 25.802 7.60188 23.9928C7.56253 21.7783 7.56998 21.7444 8.21332 21.2861C8.94561 20.7641 9.03665 20.4358 8.50368 20.2388C8.29552 20.1618 7.90109 20.3239 7.57231 20.6216L7.00208 21.138L6.46329 20.6499C5.62949 19.8952 4.80919 20.0155 4.05455 21.0036ZM4.16165 21.5186C3.39072 22.2617 3.40399 22.6135 4.18541 22.1434C4.58846 21.9006 4.76006 21.9012 5.16893 22.1474C5.59177 22.4021 5.71913 22.3914 6.04208 22.0747C6.39111 21.7323 6.37807 21.671 5.87025 21.2695C5.14215 20.6941 4.99476 20.7157 4.16165 21.5186ZM6.11729 23.1243C5.69608 23.5303 5.78176 24.5318 6.27469 24.9618C6.67494 25.3107 6.72384 25.3121 6.85679 24.9782C7.14482 24.2553 6.9476 22.855 6.55805 22.855C6.46934 22.855 6.27097 22.9762 6.11729 23.1243ZM3.90855 26.2773C4.26713 26.8693 4.49694 27.0066 5.12701 27.0066C6.111 27.0066 6.59344 26.4043 6.03812 25.8691C5.71959 25.5621 5.5906 25.5529 5.16893 25.8067C4.77147 26.0459 4.5824 26.0497 4.21125 25.8264C3.4934 25.3944 3.43053 25.4883 3.90855 26.2773Z" fill="#34386F"/>
</svg>
