<svg width="58" height="50" viewBox="0 0 58 50" fill="none" xmlns="http://www.w3.org/2000/svg">
<path fill-rule="evenodd" clip-rule="evenodd" d="M35.8086 9.97019C36.1826 10.3263 36.6728 10.8781 36.8978 11.1964C37.272 11.7257 37.8374 12.842 37.9936 13.3598C38.1189 13.7757 37.7463 13.5774 36.9378 12.7983C36.497 12.3737 35.8987 11.8845 35.608 11.7113C34.4077 10.996 32.6871 10.6252 30.8583 10.6875L30.0237 10.7159L30.5493 10.9646C31.6863 11.5025 32.901 12.5341 33.5593 13.5205C33.8198 13.9111 33.847 13.9981 33.7293 14.0646C33.6323 14.1194 33.4122 14.0267 33.0119 13.762C31.2238 12.5798 29.0969 12.3391 26.5674 13.0326L25.4292 13.3446L26.3423 13.5524C27.4106 13.7956 28.5546 14.3416 29.3999 15.0119C29.7175 15.2638 29.9774 15.5013 29.9774 15.5397C29.9774 15.7113 29.6435 15.7061 29.1143 15.526C27.7808 15.0723 26.1213 15.0725 24.692 15.5266C24.2011 15.6826 22.0447 16.7963 21.7989 17.0208C21.7632 17.0534 22.2639 17.0813 22.9116 17.0827C24.2188 17.0856 24.9433 17.233 26.0141 17.7136C26.5184 17.94 26.6203 18.0198 26.5359 18.1225C26.4603 18.2145 26.1698 18.2504 25.492 18.2515C24.0301 18.2541 22.8698 18.5692 21.6569 19.293C21.1161 19.6159 18.8422 21.785 19.1747 21.661C19.9687 21.365 20.9756 21.1349 21.6784 21.0888C22.5003 21.035 23.8253 21.175 23.9809 21.3321C24.0904 21.4425 23.6773 21.7125 23.3963 21.714C22.9797 21.7162 21.6579 22.2387 20.9635 22.6755C19.9671 23.3024 19.0933 24.2679 18.3089 25.6089C17.9436 26.2334 17.6448 26.7666 17.6448 26.7939C17.6448 26.8212 17.9093 26.6646 18.2326 26.4457C19.274 25.7409 20.9465 25.1756 21.9903 25.1756C22.549 25.1756 22.3986 25.4396 21.6037 25.8539C19.7318 26.8296 18.5513 28.4247 17.9182 30.8339C17.7565 31.4494 17.5999 32.0168 17.5703 32.0948C17.5406 32.1728 17.805 31.9278 18.1577 31.5503C19.1059 30.5358 20.0908 29.8711 21.2335 29.4743C21.6948 29.3141 21.7247 29.3135 21.7247 29.465C21.7247 29.5536 21.3985 29.9619 20.9998 30.3724C19.4296 31.9886 18.779 33.8732 18.8684 36.5469L18.8966 37.3892L19.1518 36.8391C19.6472 35.7717 20.8274 34.3791 21.7679 33.7523C22.0817 33.5432 22.1473 33.528 22.2142 33.6487C22.2687 33.747 22.177 33.9686 21.9145 34.3731C20.7432 36.1779 20.5047 38.3246 21.1918 40.8777L21.501 42.0265L21.7064 41.1117C21.8236 40.5896 22.0691 39.8755 22.2784 39.4482C22.6385 38.7128 23.5212 37.436 23.6695 37.436C23.8428 37.436 23.8444 37.7617 23.6735 38.2736C23.2405 39.571 23.2073 41.1201 23.5831 42.4898C23.7639 43.1483 24.3406 44.3541 24.9394 45.325L25.202 45.7507L25.2046 44.5648C25.2074 43.2484 25.3537 42.5161 25.8296 41.4362C26.0539 40.9272 26.133 40.8243 26.2347 40.9095C26.3259 40.9858 26.3615 41.279 26.3626 41.9631C26.3651 43.4387 26.6773 44.6098 27.3945 45.8339C27.7144 46.3798 29.8635 48.6749 29.7406 48.3392C29.4473 47.5379 29.2193 46.5216 29.1737 45.8123C29.1204 44.9827 29.2591 43.6453 29.4147 43.4883C29.5213 43.3806 29.7919 43.792 29.7919 44.0618C29.7919 44.4494 30.2542 45.6981 30.648 46.3738C31.1009 47.1513 32.0488 48.1778 32.7592 48.6603C33.3018 49.0288 34.7564 49.8835 34.841 49.8835C34.8688 49.8835 34.7505 49.6834 34.5779 49.4389C33.8477 48.4039 33.2228 46.6222 33.2228 45.575C33.2228 45.1938 33.2469 45.1342 33.3865 45.1711C33.4766 45.1949 33.7052 45.5173 33.8948 45.8876C34.5754 47.2179 35.7293 48.3476 37.0682 48.9946C37.4267 49.1678 38.219 49.4433 38.8288 49.6069C39.4386 49.7704 40.0008 49.9288 40.078 49.9586C40.1554 49.9886 39.9126 49.7218 39.5387 49.3657C38.719 48.5854 38.1463 47.7959 37.7305 46.8736C37.1067 45.49 37.2699 45.4102 38.4181 46.5376C38.8506 46.9622 39.4437 47.4514 39.7362 47.6247C40.9446 48.3405 42.6368 48.7088 44.4427 48.6491L45.3236 48.62L44.798 48.3713C43.6836 47.8441 42.3907 46.7379 41.7549 45.7678C41.5225 45.4132 41.5019 45.3369 41.6206 45.2698C41.7175 45.215 41.9224 45.2988 42.2838 45.541C42.9384 45.9795 43.8577 46.3728 44.686 46.5686C45.7189 46.8127 47.3484 46.708 48.7989 46.3041L49.9559 45.982L49.3089 45.8621C48.0594 45.6307 46.6211 44.9256 45.6017 44.0449C45.3668 43.8419 45.3452 43.7894 45.4627 43.7075C45.5392 43.6541 45.6643 43.6301 45.7408 43.6541C47.8103 44.3023 49.2346 44.3302 50.8178 43.7536C51.3121 43.5735 53.341 42.5022 53.5538 42.3088C53.5924 42.2736 53.2575 42.2626 52.8095 42.2842C51.5354 42.3457 50.4978 42.1407 49.2406 41.5791C48.8126 41.3879 48.7276 41.3154 48.8116 41.2133C48.887 41.1215 49.1781 41.0855 49.8553 41.0844C51.3175 41.0819 52.4795 40.7662 53.6895 40.0429C54.1544 39.765 56.3619 37.7363 56.2845 37.6581C56.2678 37.6413 56.0272 37.7148 55.7497 37.8213C54.6439 38.246 53.1345 38.3884 51.9937 38.1757C51.6911 38.1193 51.4102 38.0523 51.3694 38.027C51.2052 37.9246 51.5343 37.7208 52.0302 37.6177C53.7971 37.2505 55.5141 36.1001 56.4918 34.6283C56.8583 34.0766 57.7025 32.6114 57.7025 32.527C57.7025 32.499 57.5015 32.6218 57.2559 32.7999C56.2596 33.5223 54.8844 34.0304 53.651 34.1318C53.0216 34.1834 52.9868 34.1762 53.0315 34.0033C53.0595 33.8953 53.2949 33.7166 53.6058 33.5673C54.9021 32.9449 56.1712 31.6507 56.814 30.2954C56.9899 29.9246 57.2664 29.1176 57.4285 28.502C57.5905 27.8866 57.7474 27.3191 57.777 27.2412C57.8067 27.1631 57.5423 27.4081 57.1896 27.7856C56.8367 28.163 56.29 28.6577 55.9747 28.8849C55.4503 29.2625 54.3443 29.8332 53.8312 29.9909C53.4189 30.1175 53.6158 29.7411 54.3876 28.9269C54.8084 28.4831 55.3101 27.8471 55.5027 27.5135C56.191 26.321 56.5386 24.6567 56.4796 22.8359L56.4507 21.9468L56.2044 22.4772C55.6601 23.6491 54.6795 24.8304 53.6965 25.4986C52.9983 25.9731 52.9516 25.7724 53.5331 24.7958C53.7878 24.368 54.1092 23.6785 54.2474 23.2632C54.4793 22.5661 54.498 22.3971 54.4915 21.0577C54.4849 19.6993 54.4641 19.5333 54.1633 18.4485L53.842 17.2901L53.6944 18.0457C53.4534 19.2804 52.8019 20.6189 51.955 21.6192C51.723 21.8932 51.6622 21.9238 51.5826 21.8064C51.5303 21.7292 51.5068 21.6028 51.5307 21.5256C52.1729 19.4369 52.2005 17.9993 51.6292 16.4013C51.4538 15.9106 50.3916 13.8579 50.2032 13.6456C50.1714 13.6096 50.1426 14.1361 50.1393 14.8155C50.1327 16.1782 50.0099 16.7921 49.5243 17.888C49.2946 18.4065 49.2143 18.5116 49.1126 18.4265C49.0214 18.3501 48.9858 18.057 48.9847 17.3728C48.9822 15.897 48.6694 14.7241 47.9528 13.5029C47.6774 13.0337 45.6675 10.8056 45.59 10.8837C45.5734 10.9006 45.6462 11.1433 45.7517 11.4235C46.0133 12.1172 46.2047 13.1782 46.2037 13.9296C46.2031 14.5422 46.0579 15.6774 45.9598 15.8376C45.8544 16.0098 45.6538 15.6866 45.55 15.1776C45.3967 14.4265 45.0556 13.5493 44.6566 12.8808C44.23 12.1657 43.2607 11.1325 42.5881 10.6757C42.0455 10.3071 40.5909 9.45245 40.5062 9.45245C40.4785 9.45245 40.6002 9.65535 40.7766 9.90327C41.4924 10.9088 41.9958 12.2968 42.0962 13.5417C42.1483 14.1876 42.1427 14.2128 41.9596 14.1645C41.8547 14.1368 41.7163 13.9813 41.6523 13.8189C41.2598 12.8242 40.2132 11.5777 39.1735 10.8665C38.3847 10.327 37.7865 10.0718 36.4957 9.72423C35.8984 9.56335 35.3465 9.40715 35.2693 9.37729C35.1919 9.34735 35.4347 9.61417 35.8086 9.97019ZM36.9318 26.1459C35.0748 26.5548 33.8235 28.4046 34.1537 30.2529C34.5924 32.7093 37.1934 33.9948 39.3661 32.8292C40.0492 32.4627 40.581 31.8771 40.9467 31.0887C41.2002 30.5421 41.2367 30.3634 41.2367 29.668C41.2367 28.9725 41.2002 28.7938 40.9467 28.2473C40.4133 27.0975 39.462 26.3377 38.2825 26.1197C37.6329 25.9996 37.5931 26.0003 36.9318 26.1459ZM36.6596 26.6871C36.1681 26.8441 35.9612 26.9803 35.4866 27.4593C34.9989 27.9516 34.8804 28.1387 34.7157 28.6771C34.4725 29.4716 34.4712 29.8597 34.7085 30.6356C34.9477 31.4169 35.5974 32.1664 36.3579 32.538C36.8038 32.7559 37.0076 32.7964 37.6736 32.7995C38.351 32.8027 38.5352 32.7669 38.9834 32.5447C39.6008 32.2387 40.2972 31.521 40.5746 30.9049C40.8831 30.2198 40.8568 29.048 40.5172 28.3399C40.1491 27.5724 39.4064 26.9166 38.6323 26.6752C37.8783 26.4401 37.4238 26.4429 36.6596 26.6871ZM36.9782 28.0666C35.5497 28.7321 35.5907 30.6876 37.0461 31.3013C37.4816 31.485 37.8657 31.485 38.3012 31.3013C39.7859 30.6753 39.7859 28.6607 38.3012 28.0346C37.8501 27.8444 37.4338 27.8545 36.9782 28.0666ZM9.8181 39.1064C9.79492 39.1442 9.66993 39.4595 9.54039 39.807C9.36903 40.2663 9.33565 40.4499 9.41799 40.4797C9.48021 40.5023 12.3686 41.5282 15.8366 42.7596C19.3046 43.9909 22.2625 45.0459 22.4099 45.1038C23.3554 45.4757 22.0409 44.8264 16.7804 42.3229C9.32276 38.7737 9.86762 39.0255 9.8181 39.1064ZM12.9206 45.2127C12.8559 45.5779 12.8388 45.9075 12.8826 45.9456C12.965 46.0173 26.5448 48.1382 26.5953 48.0872C26.6285 48.0538 13.2901 44.5446 13.1392 44.5471C13.0836 44.5481 12.9853 44.8476 12.9206 45.2127ZM15.1898 49.1885C15.1537 49.5784 15.1389 49.9125 15.1572 49.9308C15.1755 49.9493 18.9243 49.9777 23.4879 49.9941C28.0516 50.0105 31.5143 49.9916 31.1828 49.952C30.4096 49.8598 15.6305 48.4796 15.4166 48.4796C15.2838 48.4796 15.2442 48.6035 15.1898 49.1885Z" fill="#34386F"/>
<circle cx="37.8906" cy="29.2969" r="6.64062" fill="white"/>
<circle cx="37.8906" cy="29.2969" r="2.73438" fill="#34386F"/>
<path d="M21.6868 9.91685C21.6868 9.91685 21.2896 9.76749 20.1405 9.66149C18.7356 9.5316 18.3117 9.00502 17.8444 8.34946H17.835C17.7768 8.19364 17.7145 8.03979 17.6459 7.88906L17.6513 7.88363C17.5179 7.08981 17.4457 6.41749 18.3474 5.33216C19.0844 4.44494 19.2602 4.0582 19.2602 4.0582C19.0872 3.61929 18.6714 3.20353 18.6714 3.20353C18.6714 3.20353 18.2554 2.78765 17.8167 2.61496C17.8167 2.61496 17.43 2.7903 16.5427 3.5276C15.4574 4.42917 14.785 4.35676 13.9913 4.22367L13.9858 4.22905C13.8352 4.16048 13.6816 4.0984 13.5254 4.03991V4.03077C12.8698 3.56362 12.3433 3.13932 12.2133 1.73436C12.1072 0.585883 11.958 0.188202 11.958 0.188202C11.5252 0 10.9374 0 10.9374 0C10.9374 0 10.3492 0 9.91678 0.188202C9.91678 0.188202 9.76733 0.585925 9.66132 1.73436C9.5314 3.13932 9.00456 3.56362 8.34928 4.03077V4.03991C8.19346 4.0984 8.03953 4.16044 7.88888 4.2288L7.88366 4.22367C7.08988 4.35727 6.41751 4.42939 5.33217 3.5279C4.44503 2.79086 4.05777 2.61517 4.05777 2.61517C3.61885 2.78834 3.20361 3.20353 3.20361 3.20353C3.20361 3.20353 2.78768 3.6198 2.61499 4.05841C2.61499 4.05841 2.79012 4.4452 3.52768 5.33216C4.42918 6.41745 4.35607 7.08981 4.22341 7.88363L4.22888 7.88906C4.16022 8.03979 4.09818 8.19364 4.03965 8.34946H4.03055C3.56369 9.00528 3.13935 9.5316 1.73447 9.66149C0.585888 9.7677 0.187734 9.91736 0.187734 9.91736C0 10.3502 0 10.9375 0 10.9375C0 10.9375 0 11.5259 0.188204 11.9581C0.188204 11.9581 0.585418 12.1077 1.73421 12.2135C3.13914 12.3434 3.56297 12.8706 4.03055 13.5255H4.03969C4.09823 13.6817 4.16022 13.8353 4.22892 13.9859L4.22345 13.9914C4.3571 14.7853 4.42918 15.4575 3.52772 16.5428C2.79063 17.43 2.61477 17.8173 2.61477 17.8173C2.78819 18.256 3.20331 18.6715 3.20331 18.6715C3.20331 18.6715 3.61954 19.0874 4.05824 19.2598C4.05824 19.2598 4.44477 19.0849 5.332 18.3474C6.4173 17.4459 7.08992 17.519 7.88345 17.6515L7.88892 17.646C8.03957 17.7146 8.19351 17.7764 8.34932 17.8351V17.8445C9.00511 18.3114 9.53144 18.7357 9.66137 20.1407C9.76754 21.2892 9.91699 21.6873 9.91699 21.6873C10.35 21.875 10.9374 21.875 10.9374 21.875C10.9374 21.875 11.5257 21.875 11.958 21.6868C11.958 21.6868 12.1077 21.2895 12.2133 20.1406C12.3433 18.7357 12.8704 18.3118 13.5254 17.8445V17.8351C13.6816 17.7763 13.8352 17.7146 13.9858 17.6459L13.9913 17.6514C14.785 17.518 15.4574 17.4458 16.5427 18.3473C17.43 19.0844 17.8173 19.2603 17.8173 19.2603C18.256 19.0868 18.6714 18.6715 18.6714 18.6715C18.6714 18.6715 19.0872 18.2555 19.2602 17.8168C19.2602 17.8168 19.0848 17.43 18.3474 16.5428C17.4457 15.4576 17.5184 14.7853 17.6513 13.9914L17.6459 13.9859C17.7144 13.8353 17.7768 13.6817 17.835 13.5255H17.8444C18.3113 12.8701 18.7356 12.3434 20.1405 12.2135C21.289 12.1073 21.6872 11.9581 21.6872 11.9581C21.875 11.5254 21.875 10.9375 21.875 10.9375C21.875 10.9375 21.875 10.3491 21.6868 9.91685ZM10.9374 16.0528C8.11216 16.0528 5.82197 13.7627 5.82197 10.9375C5.82197 8.11234 8.11216 5.82221 10.9374 5.82221C13.7625 5.82221 16.0527 8.11234 16.0527 10.9375C16.0527 13.7627 13.7625 16.0528 10.9374 16.0528Z" fill="#34386F"/>
</svg>
