<svg width="51" height="50" viewBox="0 0 51 50" fill="none" xmlns="http://www.w3.org/2000/svg">
<g clip-path="url(#clip0_424_636)">
<path d="M24.428 5.67822H48.7653V8.76324H24.428V5.67822Z" fill="#34386F"/>
<path d="M24.428 18.4747H45.1317V15.3454L33.0684 15.3447C32.6204 15.3447 32.2574 14.8928 32.2574 14.335C32.2574 13.7766 32.6204 13.3253 33.0684 13.3253H45.1317V10.7822L24.428 10.7829V18.4747Z" fill="#34386F"/>
<path d="M0.511719 47.6714H50.5117V50.0002H0.511719V47.6714Z" fill="#34386F"/>
<path d="M27.418 40.2266H12.9074C12.4594 40.2266 12.0964 40.6779 12.0964 41.2363C12.0964 41.7941 12.4594 42.246 12.9074 42.246H27.418C27.8665 42.246 28.229 41.7941 28.229 41.2363C28.229 40.6779 27.866 40.2266 27.418 40.2266Z" fill="#34386F"/>
<path d="M27.418 35.5107H12.9074C12.4594 35.5107 12.0964 35.962 12.0964 36.5205C12.0964 37.0789 12.4594 37.5302 12.9074 37.5302H27.418C27.8665 37.5302 28.229 37.0789 28.229 36.5205C28.229 35.9627 27.866 35.5107 27.418 35.5107Z" fill="#34386F"/>
<path d="M27.418 30.7939H12.9074C12.4594 30.7939 12.0964 31.2459 12.0964 31.8037C12.0964 32.3621 12.4594 32.8134 12.9074 32.8134H27.418C27.8665 32.8134 28.229 32.3621 28.229 31.8037C28.229 31.2459 27.866 30.7939 27.418 30.7939Z" fill="#34386F"/>
<path d="M40.3936 38.0859H43.6176V42.1001H40.3936V38.0859Z" fill="#34386F"/>
<path d="M2.25684 7.6432V45.6509H5.53951V25.9631C5.53951 25.4047 5.90198 24.9534 6.3505 24.9534H33.9733C34.4213 24.9534 34.7843 25.4047 34.7843 25.9631V45.6509H48.7645V20.4931H23.6166C23.1686 20.4931 22.8056 20.0412 22.8056 19.4834V0L2.25684 7.6432ZM38.7719 26.9562C38.7719 26.3984 39.1349 25.9464 39.5829 25.9464H44.429C44.877 25.9464 45.2399 26.3977 45.2399 26.9562V32.9886C45.2399 33.547 44.877 33.9983 44.429 33.9983H39.5829C39.1349 33.9983 38.7719 33.5471 38.7719 32.9886V26.9562ZM38.7719 37.0763C38.7719 36.5178 39.1349 36.0665 39.5829 36.0665H44.429C44.877 36.0665 45.2399 36.5178 45.2399 37.0763V43.1093C45.2399 43.6671 44.877 44.1191 44.429 44.1191H39.5829C39.1349 44.1191 38.7719 43.6671 38.7719 43.1093V37.0763Z" fill="#34386F"/>
<path d="M40.3936 27.9673H43.6176V31.9801H40.3936V27.9673Z" fill="#34386F"/>
</g>
<defs>
<clipPath id="clip0_424_636">
<rect width="50" height="50" fill="white" transform="translate(0.511719)"/>
</clipPath>
</defs>
</svg>
