<svg width="43" height="50" viewBox="0 0 43 50" fill="none" xmlns="http://www.w3.org/2000/svg">
<g clip-path="url(#clip0_425_712)">
<path d="M14.2916 4.30283C12.1798 2.11218 8.74936 1.87894 6.35134 3.74845C3.91032 5.65207 3.37344 9.04953 4.95352 11.5843L14.2916 4.30283Z" fill="#34386F"/>
<path d="M23.0662 6.42224V3.47021H20.8811V6.40968C21.6322 6.37201 22.3283 6.37759 23.0662 6.42224Z" fill="#34386F"/>
<path d="M21.8699 27.5349C22.4029 27.5349 22.8365 27.1012 22.8365 26.5683C22.8365 26.0352 22.4029 25.6016 21.8699 25.6016C21.337 25.6016 20.9033 26.0352 20.9033 26.5683C20.9033 27.1012 21.337 27.5349 21.8699 27.5349Z" fill="#34386F"/>
<path d="M37.5553 3.74817C35.1554 1.87688 31.7253 2.11343 29.6152 4.30255L38.9529 11.5838C40.5385 9.03379 39.9752 5.63531 37.5553 3.74817Z" fill="#34386F"/>
<path d="M33.4203 10.1633L34.0436 9.36396L32.9658 8.52344L32.2881 9.39275C32.6748 9.63652 33.0523 9.89361 33.4203 10.1633Z" fill="#34386F"/>
<path d="M18.9792 2.20206H20.0851C20.1372 2.18824 20.191 2.17835 20.2475 2.17835C23.903 2.18837 23.6926 2.15653 23.8634 2.20206H24.9692C25.5763 2.20206 26.0703 1.70805 26.0703 1.10103C26.0703 0.494012 25.5763 0 24.9692 0H18.9792C18.3722 0 17.8782 0.494012 17.8782 1.10103C17.8783 1.70818 18.3722 2.20206 18.9792 2.20206Z" fill="#34386F"/>
<path d="M10.4262 10.0861C10.7961 9.8189 11.1756 9.56448 11.5644 9.32286L10.941 8.52344L9.86328 9.36396L10.4262 10.0861Z" fill="#34386F"/>
<path d="M6.17347 38.0723C3.99208 38.0723 2.00943 39.2607 0.986531 41.1071H5.48033C7.08235 41.1072 8.38555 42.4106 8.38555 44.0123C8.38555 45.6144 7.08248 46.9176 5.48058 46.9176H0.984375C2.01223 48.7925 3.99728 50.0002 6.1736 50.0002C9.46224 50.0002 12.1376 47.3248 12.1376 44.0363C12.1376 40.7478 9.46198 38.0723 6.17347 38.0723Z" fill="#34386F"/>
<path d="M12.9863 41.6104C13.5382 43.1554 13.5486 44.8507 13.0024 46.4143H30.9393C30.415 44.8885 30.4069 43.1766 30.9591 41.6104H12.9863ZM16.6094 45.3017C15.9091 45.3017 15.3411 44.7337 15.3411 44.0334C15.3411 43.333 15.9091 42.765 16.6094 42.765C17.3099 42.765 17.8777 43.333 17.8777 44.0334C17.8777 44.7337 17.3099 45.3017 16.6094 45.3017ZM27.3902 45.3017C26.6898 45.3017 26.1219 44.7337 26.1219 44.0334C26.1219 43.333 26.6898 42.765 27.3902 42.765C28.0907 42.765 28.6585 43.333 28.6585 44.0334C28.6585 44.7337 28.0907 45.3017 27.3902 45.3017Z" fill="#34386F"/>
<path d="M38.471 46.9176C36.8658 46.9176 35.566 45.6184 35.566 44.0124C35.566 42.4106 36.8692 41.1073 38.4711 41.1071H42.9993C40.7044 37.0453 34.8026 37.0824 32.566 41.1037C32.5425 41.2192 32.4861 41.3222 32.4092 41.4056C31.6459 42.9863 31.5962 44.9206 32.3777 46.5873C32.4807 46.684 32.5496 46.8142 32.5702 46.9608C34.824 50.9922 40.6905 51.0488 43.0017 46.9177C40.2523 46.9176 41.3562 46.9177 38.471 46.9176Z" fill="#34386F"/>
<path d="M36.5663 36.9055C38.9367 33.727 40.1889 29.9524 40.1889 25.9711C40.1889 15.8704 31.9714 7.65283 21.8708 7.65283C11.7701 7.65283 3.55273 15.8706 3.55273 25.9711C3.55273 29.9374 4.79607 33.7 7.14983 36.871C9.37625 37.1728 11.2838 38.4904 12.3884 40.3415H15.7172C10.0949 37.9248 6.23803 32.3721 6.23803 25.9135C6.2691 17.3195 13.2696 10.3374 21.8709 10.3374C30.6122 10.3374 37.5044 17.4929 37.5044 25.9206C37.5044 32.4216 33.5967 37.9461 28.0246 40.3414H31.5523C32.6012 38.5736 34.3962 37.2677 36.5663 36.9055Z" fill="#34386F"/>
<path d="M12.1499 36.5385C14.5645 38.7615 17.7399 40.1693 21.2361 40.322V38.6417C21.2361 38.2914 21.52 38.0076 21.8703 38.0076C22.2206 38.0076 22.5045 38.2914 22.5045 38.6417V40.322C26.0007 40.1693 29.1761 38.7615 31.5907 36.5385L30.4166 35.3644C30.1689 35.1168 30.1689 34.7153 30.4166 34.4677C30.6641 34.22 31.0659 34.22 31.3133 34.4677L32.4857 35.64C34.6915 33.2203 36.0824 30.046 36.2227 26.5555H34.5907C34.2404 26.5555 33.9565 26.2716 33.9565 25.9213C33.9565 25.571 34.2404 25.2872 34.5907 25.2872H36.2188C36.055 21.8108 34.6497 18.6543 32.4373 16.2512L31.3135 17.3751C31.066 17.6227 30.6642 17.6226 30.4168 17.3751C30.1691 17.1274 30.1691 16.7258 30.4168 16.4781L31.5389 15.3562C29.1308 13.1608 25.9756 11.7727 22.5046 11.6211V13.2009C22.5046 13.5511 22.2207 13.8351 21.8704 13.8351C21.5201 13.8351 21.2363 13.5511 21.2363 13.2009V11.6211C17.7654 11.7727 14.6101 13.161 12.2021 15.3562L13.3242 16.4781C13.5719 16.7258 13.5719 17.1274 13.3242 17.3751C13.0766 17.6227 12.6749 17.6226 12.4275 17.3751L11.3036 16.2512C9.09129 18.6543 7.68598 21.8108 7.52212 25.2872H9.15026C9.50057 25.2872 9.78443 25.571 9.78443 25.9213C9.78443 26.2716 9.50057 26.5555 9.15026 26.5555H7.51831C7.65859 30.046 9.04943 33.2203 11.2553 35.64L12.4276 34.4677C12.6751 34.22 13.0769 34.22 13.3243 34.4677C13.572 34.7153 13.572 35.1168 13.3243 35.3644L12.1499 36.5385ZM21.236 24.4266V18.4713C21.236 18.1211 21.5199 17.8372 21.8702 17.8372C22.2205 17.8372 22.5043 18.1211 22.5043 18.4713V24.4266C23.8711 24.8321 24.5099 26.3953 23.8335 27.6352L26.9455 30.7473C27.3472 31.1489 27.0558 31.8298 26.4971 31.8298C26.3349 31.8298 26.1724 31.7679 26.0488 31.644L22.9368 28.5319C21.4658 29.3349 19.6352 28.2709 19.6352 26.5686C19.6352 25.5566 20.3119 24.7008 21.236 24.4266Z" fill="#34386F"/>
</g>
<defs>
<clipPath id="clip0_425_712">
<rect width="42.0172" height="50" fill="white" transform="translate(0.984375)"/>
</clipPath>
</defs>
</svg>
