<svg width="349" height="140" viewBox="0 0 349 140" fill="none" xmlns="http://www.w3.org/2000/svg">
<g clip-path="url(#clip0_711_1737)">
<g filter="url(#filter0_dd_711_1737)">
<path d="M178.944 81.2021L169.594 39.9018L160.319 81.1926L178.944 81.2021ZM169.663 18.4937L169.802 18.494C173.002 18.4955 175.762 20.6499 176.521 23.7254C181.029 41.9842 195.803 101.8 195.803 101.8L193.375 101.799C187.855 101.796 183.053 98.0245 181.75 92.668L157.266 92.6557L156.082 97.4949C155.468 100.009 153.211 101.778 150.619 101.777C146.968 101.775 144.284 98.3615 145.163 94.8226C149.19 78.5878 159.146 38.4534 162.758 23.8848C163.544 20.7153 166.393 18.4922 169.663 18.4937Z" fill="#4750D5"/>
<path d="M281.597 80.085C274.326 94.7039 259.445 104.641 241.872 104.632C217.389 104.619 197.484 84.721 197.497 60.0369C197.509 35.7045 217.435 15.7105 241.918 15.7232C259.49 15.7318 274.597 25.6837 281.618 40.1931C276.353 42.7887 270.011 41.639 265.995 37.3619C260.363 31.3648 252.419 27.5054 243.445 27.1046C225.186 26.29 209.419 40.7999 208.875 59.0444C208.314 77.8684 223.392 93.2754 241.878 93.2844C251.507 93.2895 259.938 89.262 265.923 82.8189C269.929 78.5058 276.342 77.4273 281.597 80.085Z" fill="#4750D5"/>
<path d="M300.837 30.0253L290.293 30.0197C287.123 30.0184 284.554 27.4505 284.556 24.2848C284.557 21.1194 287.129 18.5539 290.299 18.5557L328.606 18.5753C328.602 24.907 323.46 30.0366 317.12 30.0339L312.316 30.0311L312.285 90.3957C312.282 96.7274 307.14 101.857 300.8 101.854L300.837 30.0253Z" fill="#4750D5"/>
<path d="M96.975 40.6851L96.9553 79.5999L96.9374 79.6173L86.9787 85.3336L69.944 95.1448L69.9485 95.1402L69.9686 56.2724L25.9257 30.8286L25.8955 89.3838L25.9654 89.4185L64.0319 111.399L67.1491 113.194L68.3932 113.912V113.91L68.3972 113.913L69.9335 114.797L86.9687 104.992L113.978 89.4286L114.01 30.8925L96.975 40.6851Z" fill="#4750D5"/>
<path d="M63.384 64.2737C62.9063 62.2675 61.2142 60.7462 59.2431 60.5518C57.6229 60.3914 56.169 61.032 55.1544 62.1169C53.5551 63.8266 51.7415 65.2996 49.5935 66.0748L47.9201 66.6794C42.0181 68.5732 35.7047 66.6355 31.8601 61.7502L24.7653 52.7347C22.5447 49.9132 21.1245 46.5518 19.9953 43.0714C19.9239 42.8514 19.8367 42.63 19.7329 42.4085C19.0914 41.0406 17.8433 40.028 16.4031 39.7596C13.0271 39.1299 10.1865 42.0054 10.3891 45.3247C10.5052 47.2221 11.2866 48.381 13.0212 49.3543C16.6165 51.3728 19.6488 54.3182 22.2301 57.6178C25.004 61.1639 27.6955 64.7512 27.6955 64.7512C32.1339 70.3899 34.0428 77.7991 32.9518 85.1531L32.0988 90.9059C31.7271 93.4147 30.4382 97.2997 28.9788 99.3552C28.1193 100.566 27.7435 102.154 28.1421 103.791C28.6308 105.797 30.3362 107.31 32.3128 107.49C35.4733 107.779 38.0406 105.02 37.8476 101.859C37.8174 101.36 37.7186 100.884 37.5623 100.441C36.5624 97.6055 36.5761 94.4571 37.025 91.4304L37.9861 84.9513C38.9037 78.7602 43.1762 73.6033 48.9114 71.7624L49.0824 71.7012C51.8073 70.7204 54.7324 70.1935 57.5167 70.782C57.9635 70.8766 58.4321 70.9053 58.9145 70.8593C61.937 70.5679 64.1498 67.4902 63.384 64.2737Z" fill="white"/>
<path d="M114.011 30.8922L69.9688 56.2721L25.9258 30.8284L69.9926 5.37598L96.9899 21.0478L114.011 30.8922Z" fill="white"/>
<path d="M113.978 89.4282L86.9661 104.988L69.9336 114.797L69.9488 95.1399L86.9763 85.3341L96.9551 79.6001L113.978 89.4282Z" fill="white"/>
</g>
</g>
<defs>
<filter id="filter0_dd_711_1737" x="0.378906" y="0.375977" width="348.228" height="139.421" filterUnits="userSpaceOnUse" color-interpolation-filters="sRGB">
<feFlood flood-opacity="0" result="BackgroundImageFix"/>
<feColorMatrix in="SourceAlpha" type="matrix" values="0 0 0 0 0 0 0 0 0 0 0 0 0 0 0 0 0 0 127 0" result="hardAlpha"/>
<feOffset dx="5" dy="10"/>
<feGaussianBlur stdDeviation="7.5"/>
<feComposite in2="hardAlpha" operator="out"/>
<feColorMatrix type="matrix" values="0 0 0 0 0 0 0 0 0 0 0 0 0 0 0 0 0 0 0.25 0"/>
<feBlend mode="multiply" in2="BackgroundImageFix" result="effect1_dropShadow_711_1737"/>
<feColorMatrix in="SourceAlpha" type="matrix" values="0 0 0 0 0 0 0 0 0 0 0 0 0 0 0 0 0 0 127 0" result="hardAlpha"/>
<feOffset dx="1" dy="4"/>
<feGaussianBlur stdDeviation="2"/>
<feComposite in2="hardAlpha" operator="out"/>
<feColorMatrix type="matrix" values="0 0 0 0 0 0 0 0 0 0 0 0 0 0 0 0 0 0 0.25 0"/>
<feBlend mode="normal" in2="effect1_dropShadow_711_1737" result="effect2_dropShadow_711_1737"/>
<feBlend mode="normal" in="SourceGraphic" in2="effect2_dropShadow_711_1737" result="shape"/>
</filter>
<clipPath id="clip0_711_1737">
<rect width="349" height="140" fill="white"/>
</clipPath>
</defs>
</svg>
